<svg width="24" height="24" viewBox="0 0 24 24" fill="none" xmlns="http://www.w3.org/2000/svg">
<circle cx="12" cy="12" r="12" fill="#DD6B01"/>
<path d="M7.50103 15.4321L6.83143 13.5814H4.06031L3.40101 15.4321H2L4.69901 8.41126H6.20303L8.90204 15.4321H7.50103ZM5.85278 10.7026C5.82531 10.6112 5.7841 10.4871 5.72916 10.3305C5.67422 10.1738 5.61928 10.0139 5.56434 9.85067C5.51626 9.68095 5.47849 9.5406 5.45102 9.42962C5.41668 9.56018 5.37204 9.71032 5.3171 9.88005C5.26903 10.0498 5.22095 10.2097 5.17288 10.3599C5.13167 10.51 5.09733 10.6242 5.06986 10.7026L4.42086 12.5043H6.49148L5.85278 10.7026Z" fill="white"/>
<path d="M11.9606 8.44064C12.6061 8.44064 13.1384 8.51571 13.5573 8.66585C13.9762 8.81599 14.2887 9.04447 14.4947 9.35129C14.7008 9.65157 14.8038 10.0335 14.8038 10.4969C14.8038 10.8364 14.7351 11.1269 14.5977 11.3684C14.4673 11.61 14.2956 11.8123 14.0827 11.9755C13.8698 12.1322 13.6397 12.2595 13.3925 12.3574L15.5043 15.4321H14.0209L12.2593 12.6707H11.1879V15.4321H9.86934V8.44064H11.9606ZM11.8781 9.48837H11.1879V11.6426H11.9193C12.2833 11.6426 12.5786 11.6002 12.8053 11.5153C13.0319 11.4304 13.1967 11.3064 13.2998 11.1432C13.4096 10.98 13.4646 10.7776 13.4646 10.5361C13.4646 10.2815 13.4062 10.0792 13.2895 9.92901C13.1727 9.77234 12.9976 9.66136 12.7641 9.59608C12.5374 9.52428 12.2421 9.48837 11.8781 9.48837Z" fill="white"/>
<path d="M18.1774 15.011C17.7584 14.998 17.3704 14.9588 17.0133 14.8935C16.663 14.8282 16.3574 14.7401 16.0965 14.6291V13.5324C16.3574 13.6499 16.6802 13.7577 17.0648 13.8556C17.4494 13.9535 17.8203 14.009 18.1774 14.022V12.3574C17.7997 12.2268 17.4769 12.0996 17.209 11.9755C16.9412 11.845 16.7249 11.7079 16.56 11.5643C16.4021 11.4141 16.2819 11.2477 16.1995 11.0649C16.1239 10.8821 16.0862 10.6732 16.0862 10.4382C16.0862 10.1118 16.172 9.83109 16.3437 9.59608C16.5223 9.36108 16.7695 9.17503 17.0854 9.03794C17.4013 8.89433 17.7653 8.80947 18.1774 8.78335V8H18.8573V8.76377C19.235 8.77683 19.5853 8.81926 19.908 8.89106C20.2308 8.96287 20.5399 9.05753 20.8352 9.17503L20.4334 10.1444C20.1793 10.0465 19.9149 9.96818 19.6402 9.90943C19.3724 9.84415 19.1114 9.80171 18.8573 9.78213V11.4076C19.2556 11.5316 19.6162 11.6687 19.9389 11.8188C20.2686 11.969 20.5261 12.1583 20.7116 12.3868C20.9039 12.6087 21 12.8992 21 13.2583C21 13.7283 20.818 14.1167 20.454 14.4235C20.09 14.7303 19.5578 14.9164 18.8573 14.9816V16H18.1774V15.011ZM18.8573 13.9829C19.1526 13.9437 19.3689 13.8686 19.5063 13.7577C19.6505 13.6467 19.7226 13.5031 19.7226 13.3268C19.7226 13.2093 19.6917 13.1081 19.6299 13.0233C19.575 12.9384 19.4822 12.8633 19.3518 12.798C19.2281 12.7262 19.0633 12.6577 18.8573 12.5924V13.9829ZM18.1774 9.80171C17.9988 9.8213 17.8477 9.8572 17.7241 9.90943C17.6074 9.96165 17.5181 10.0302 17.4563 10.1151C17.3945 10.1999 17.3636 10.2978 17.3636 10.4088C17.3636 10.5263 17.3876 10.6308 17.4357 10.7222C17.4906 10.807 17.5765 10.8854 17.6932 10.9572C17.8168 11.029 17.9782 11.0975 18.1774 11.1628V9.80171Z" fill="white"/>
</svg>
