<svg width="24" height="24" viewBox="0 0 24 24" fill="none" xmlns="http://www.w3.org/2000/svg">
<circle cx="12" cy="12" r="12" fill="#0F8BF0"/>
<path d="M13.2632 17.0556C11.2895 17.0556 9.56842 15.9511 8.71579 14.3333H13.2632L14.0526 12.7778H8.19474C8.15526 12.5211 8.13158 12.2644 8.13158 12C8.13158 11.7356 8.15526 11.4789 8.19474 11.2222H13.2632L14.0526 9.66667H8.71579C9.14815 8.84626 9.80085 8.15854 10.6027 7.67851C11.4046 7.19848 12.3249 6.94456 13.2632 6.94445C14.5342 6.94445 15.7026 7.40334 16.6026 8.16556L18 6.78889C16.7001 5.63581 15.0124 4.99845 13.2632 5C10.1684 5 7.54737 6.94445 6.55263 9.66667H3.78947L3 11.2222H6.20526C6.15789 11.4789 6.15789 11.7356 6.15789 12C6.15789 12.2644 6.15789 12.5211 6.20526 12.7778H3.78947L3 14.3333H6.55263C7.54737 17.0556 10.1684 19 13.2632 19C15.0868 19 16.7447 18.3233 18 17.2111L16.5947 15.8344C15.7026 16.5967 14.5421 17.0556 13.2632 17.0556Z" fill="white"/>
</svg>
