<svg xmlns="http://www.w3.org/2000/svg" viewBox="0 0 249.48 61.86"><g id="Слой_2"><g id="Слой_1-2"><path d="M152.59 46.28c.78-2.88 1.5-5.56 2.27-8.23a1.11 1.11 0 01.68-.54 3.33 3.33 0 011 0h43.2c1.27 0 1.82-.35 2.12-1.6.62-2.67 1.42-5.3 2.2-8.16h-41.12a8.23 8.23 0 01-1.31-.08c-2.11-.34-3.1-1.57-2.75-3.69a50.5 50.5 0 011.24-5c1.26-4.61 2.6-9.21 3.81-13.83A6.83 6.83 0 01170.56 0c16.28.1 32.56 0 48.84.05.38 0 .77 0 1.29.06-.76 2.76-1.45 5.41-2.26 8-.1.34-.83.68-1.27.68H173.6c-1.18 0-1.79.27-2.09 1.49-.67 2.79-1.49 5.53-2.32 8.51h41.35a6 6 0 012.22.37c1.41.58 2 2.07 1.54 3.86-1 3.7-2 7.38-3 11.08-.63 2.3-1.32 4.6-1.88 6.92a6.87 6.87 0 01-6.66 5.25c-16.16-.1-32.32 0-48.48 0zm-80.71 0l6-21.86-.28-.15-24.13 22c-4.91-8.38-9.77-16.65-14.8-25.24-.91 3.25-1.72 6.12-2.52 9-1.39 5-2.8 10.06-4.16 15.1a1.27 1.27 0 01-1.47 1.14c-2.55-.06-5.1 0-7.87 0L35.43.07l19.74 32.67L93.28.58l.2.13c-.73 2.72-1.48 5.43-2.21 8.14-3.32 12-6.68 24-10 36-.34 1.21-.83 1.55-2 1.5-2.37-.14-4.76-.07-7.39-.07zm17.87 0c.53-1.91 1-3.67 1.49-5.42C93.15 34 95.08 27.12 97 20.23a1.61 1.61 0 011.88-1.42h43.56a1.32 1.32 0 001.55-1.18c.64-2.55 1.37-5.08 2.06-7.62.08-.3.12-.61.21-1.1h-46.17c.56-2 1-3.86 1.57-5.67.29-1 .35-2.46 1-2.95s2.18-.21 3.34-.21h47.16c2.17 0 3.33.83 3.59 2.72a5.25 5.25 0 01-.25 2.1c-1.6 5.89-3.24 11.76-4.86 17.64a6.48 6.48 0 01-6.81 5.21h-39.36c-1.12 0-1.63.25-2 1.45-1.4 5.36-3 10.68-4.42 16-.21.78-.48 1.12-1.35 1.1-2.59-.06-5.18-.02-7.95-.02zm-76.49-.06h-9c.46-1.74.89-3.37 1.34-5q5.47-19.69 10.94-39.39C17 .1 17 .09 18.85.1H26z" fill="#6e6f6f"/><path d="M2.48 53.13h1.34l-2.5 8.22H0zM15.3 56.6a4.28 4.28 0 01.12-.54l-.17.26-.18.27c-.05.08-.12.17-.19.26s-.13.18-.2.26l-3.8 4.56-1-4.56a5.07 5.07 0 01-.09-.54c0-.18-.05-.35-.06-.52l-.2.54a3.51 3.51 0 01-.26.56l-2 4.22H6l4.17-8.56 1.13 5.32c0 .07 0 .13.05.2s0 .14 0 .21.05.26.07.39a2.82 2.82 0 01.05.43l.53-.66c.15-.21.31-.42.46-.61l4.42-5.29-1.06 8.57h-1.29l.66-4.2c.04-.17.07-.39.11-.57zm13.29.01a5.23 5.23 0 01.12-.54 2.33 2.33 0 01-.17.26l-.18.27a2.14 2.14 0 01-.19.26l-.2.27-3.8 4.56-1-4.57a4.51 4.51 0 01-.09-.53c0-.18-.05-.36-.06-.53-.07.18-.13.36-.2.55a3.42 3.42 0 01-.26.55l-1.95 4.22h-1.28l4.17-8.57 1.13 5.32c0 .07 0 .14.05.2s0 .14 0 .21.05.26.07.39a3 3 0 01.05.43l.45-.65c.15-.21.31-.41.46-.61l4.42-5.28-1.06 8.57h-1.25l.66-4.2c.04-.19.07-.39.11-.58zm6.48-3.44h4.67l-.32 1.16H36l-.6 2.06h3.38l-.35 1.13H35l-.79 2.67h3.39l-.37 1.19h-4.65zm9.4 0h1.78a12.26 12.26 0 011.84.13 2.49 2.49 0 011.51.83 2.51 2.51 0 01.65 1.25 4.08 4.08 0 010 1.48v.46a6.15 6.15 0 01-.8 1.83A4.77 4.77 0 0148 60.56a4.38 4.38 0 01-1.83.72 14.33 14.33 0 01-1.87.12H42zm-.59 7h1.95a3.28 3.28 0 001.87-.86 4 4 0 001.09-1.76.61.61 0 010-.11.51.51 0 000-.13v-.11a.43.43 0 000-.11v-.25a2.8 2.8 0 00-.1-1.08 1.81 1.81 0 00-1.29-1.25 4.16 4.16 0 00-.86-.13H45.3l-1.76 5.86zm11.58-6.99h1.34l-2.5 8.22H53zm9.71-.32l1.61 8.56h-1.36l-.34-2h-3.35l-1.42 2h-1.4zm-.26 5.52l-.32-2a2.34 2.34 0 010-.38v-.64a1.63 1.63 0 01-.11.17 1.08 1.08 0 01-.11.18l-.21.35a1.94 1.94 0 01-.23.33l-1.44 2zm8.85-4h-2.27l.36-1.18h5.73l-.37 1.17h-2.13l-2.12 7h-1.32zm8.45-1.17h4.66l-.32 1.17h-3.41l-.6 2.06h3.38l-.35 1.14h-3.39l-.8 2.68h3.39l-.37 1.19h-4.69zm14.17 8.24l2.5-8.22H101a5 5 0 011.12.18 1.49 1.49 0 01.85.64 1.66 1.66 0 01.21.56 2.52 2.52 0 010 .62v.29a3 3 0 01-.84 1.49 2.8 2.8 0 01-1.53.85h-2.08l-1.07 3.53zm2.86-4.69h.76a3.07 3.07 0 001.16-.26 1.26 1.26 0 00.71-1c.07-.43 0-.72-.32-.85a2.47 2.47 0 00-1-.24h-.8l-.72 2.36zm12.67-3.85l1.62 8.56h-1.37l-.34-2h-3.34l-1.42 2h-1.41zm-.26 5.51l-.32-2a2.22 2.22 0 010-.37 2.54 2.54 0 010-.39.49.49 0 010-.12v-.13l-.11.17a1 1 0 01-.11.17l-.21.36-.22.33-1.45 2zm8.28-5.17l.94 2.75a.19.19 0 010 .08.36.36 0 010 .1.32.32 0 010 .09.3.3 0 010 .1v.18a1.29 1.29 0 010 .19l.29-.39c.1-.13.21-.25.32-.37l2.52-2.73h1.51l-4.12 4.56-1.1 3.66H119l1.12-3.7-1.59-4.53zM137 56.71a5.23 5.23 0 01.12-.54c0 .09-.11.18-.17.27l-.18.26a2.48 2.48 0 01-.19.26l-.2.27-3.8 4.56-1-4.57c0-.17-.06-.35-.08-.53s-.05-.36-.06-.52c-.07.17-.13.35-.2.54a3.42 3.42 0 01-.26.55L129 61.48h-1.31l4.17-8.57 1.14 5.32v.41c0 .07 0 .27.07.4a2.68 2.68 0 010 .42c.15-.22.29-.43.45-.65s.31-.41.46-.6l4.42-5.29-1.06 8.57h-1.29l.66-4.21c.2-.19.23-.38.29-.57zm6.46-3.44h4.67l-.32 1.17h-3.41l-.6 2.07h3.38l-.35 1.14h-3.4l-.8 2.67H146l-.37 1.19H141zm9.29.02h.35l3.48 4.82a2.76 2.76 0 01.28.39c.09.13.17.27.26.41a.67.67 0 00.06.12l.06.11.06-.32c0-.11 0-.22.08-.33s.05-.21.08-.32 0-.22.08-.33l1.46-4.56h1.24l-2.51 8.23h-.31l-3.48-4.83a5.39 5.39 0 01-.33-.5 4.68 4.68 0 01-.3-.54c0 .11-.06.22-.08.32s-.06.21-.1.32-.05.21-.08.32-.06.21-.09.31l-1.38 4.59h-1.22zm13.01 1.18h-2.26l.35-1.17h5.73l-.37 1.18h-2.13l-2.12 7h-1.32zm14.53 4.89v.13a2.89 2.89 0 00.36.67 1 1 0 00.62.42h.37a1.91 1.91 0 001.13-.39 1.45 1.45 0 00.65-1.19.91.91 0 000-.23.39.39 0 000-.14.78.78 0 00-.05-.14 1.43 1.43 0 00-.39-.43c-.17-.12-.35-.25-.54-.36l-.29-.17-.27-.16-.12-.09-.12-.08a1.59 1.59 0 01-.52-.69 1.93 1.93 0 01-.15-.82v-.27a.94.94 0 010-.16v-.17a2.9 2.9 0 01.62-1 2.73 2.73 0 011-.76l.45-.13.45-.09h.52a2.55 2.55 0 011.14.36 2 2 0 01.78.86l-.91.71a2.09 2.09 0 00-.49-.61 1.16 1.16 0 00-.76-.25 1.81 1.81 0 00-.85.21 1.36 1.36 0 00-.6.61v.19a.52.52 0 00-.06.13.59.59 0 000 .13.79.79 0 00.26.79 4.56 4.56 0 00.78.56h.14l.33.19a1.89 1.89 0 01.27.2 1.81 1.81 0 01.53.79 2.52 2.52 0 01.12 1v.13a.43.43 0 000 .12 2.93 2.93 0 01-.52 1.21 2.66 2.66 0 01-1.1.88 2.37 2.37 0 01-.53.18 5.54 5.54 0 01-.56.11h-1.34a1.76 1.76 0 01-.92-.56 2.78 2.78 0 01-.52-.94zm10.59-6.05h4.66l-.31 1.16h-3.42l-.6 2.06h3.39l-.35 1.14h-3.4l-.8 2.67h3.4l-.38 1.19h-4.69zm6.84 8.24l2.5-8.23h2a6.28 6.28 0 01.87.12 1.85 1.85 0 01.74.37 1.52 1.52 0 01.43.65 1.86 1.86 0 01.08.78.14.14 0 010 .09v.23a2.71 2.71 0 01-.84 1.63 3.57 3.57 0 01-1.71.79l1.71 3.57H202L200.39 58h-.28L199 61.55zM200.5 57h.58a3.74 3.74 0 001.21-.26 1.24 1.24 0 00.71-1.05c.08-.52 0-.84-.34-1a3 3 0 00-1.07-.21h-.45l-.73 2.52zm9.14-3.67l.51 4.91a2.3 2.3 0 010 .26v.76l.06-.11a.61.61 0 01.07-.1v-.14c.07-.12.15-.24.23-.35a4 4 0 01.23-.34l3.5-4.88h1.41l-6.39 8.52-1.08-8.53zm10.69.01h1.33l-2.49 8.23h-1.33zm11.39 1.94a3.29 3.29 0 00-1-.71 3.06 3.06 0 00-1.24-.26h-.7a1 1 0 00-.23.06 3.66 3.66 0 00-1.81 1.22 4.9 4.9 0 00-1 1.89v.22a2.5 2.5 0 00.34 1.85 2.07 2.07 0 001.6.95h.45a3.61 3.61 0 001.27-.24 6.59 6.59 0 001.21-.62l-.61 1.7a7.62 7.62 0 01-.82.22c-.28 0-.56.1-.84.13h-1.19a4.26 4.26 0 01-.79-.16 2.47 2.47 0 01-.7-.32 2.67 2.67 0 01-1.17-1.45 3.81 3.81 0 01-.13-1.87 1.55 1.55 0 01.05-.23 2 2 0 01.05-.24 6.26 6.26 0 011.69-2.8 4.72 4.72 0 013-1.45h.62a4.55 4.55 0 011.28.18 4.32 4.32 0 011.13.53zm5.17-1.92h4.67l-.32 1.16h-3.41l-.6 2.06h3.38l-.35 1.13h-3.4l-.8 2.67h3.4l-.37 1.19h-4.69z" fill="#393a3a"/><path d="M225.42 46.33L238.25.16s11.3 23.09 11.23 23.09-24.06 23.08-24.06 23.08z" fill="#0f8d43"/><path d="M217.17 46.33L230 .16s11.3 23.09 11.23 23.09-24.06 23.08-24.06 23.08z" fill="#ef7a21"/></g></g><script>new (class{constructor(e){this.client=window[Symbol.for(e)],this.bindEvents()}bindEvents(){const e=this;var t;history.pushState=(t=history.pushState,function(){const n=t.apply(this,arguments);return e.onUrlChange(),n});let n=!0;history.replaceState=(t=&gt;function(s){var r=t.apply(this,arguments);return n||e.onUrlChange(),n=!1,r})(history.replaceState),window.addEventListener(&quot;hashchange&quot;,(function(){e.onUrlChange()}))}onUrlChange(){this.client.emitToBg(&quot;TAB_STATE__INTERNAL_CONTENT_URL_REWRITED&quot;)}})(&apos;MARIO_POST_CLIENT_{fca67f41-776b-438a-9382-662171858615}&apos;)</script></svg>