<svg width="24" height="24" viewBox="0 0 24 24" fill="none" xmlns="http://www.w3.org/2000/svg">
<circle cx="12" cy="12" r="12" fill="#00BF7A"/>
<path d="M5.02415 14.645L3.96577 11.3464H3.93931C3.94813 11.428 3.95695 11.5463 3.96577 11.7013C3.97459 11.8523 3.98341 12.0155 3.99223 12.1909C4.00105 12.3623 4.00546 12.5235 4.00546 12.6744V14.645H3V10.2754H4.52142L5.57318 13.5067H5.59964L6.68447 10.2754H8.19928V14.645H7.15413V12.6499C7.15413 12.5112 7.15633 12.3582 7.16074 12.1909C7.16956 12.0196 7.17618 11.8584 7.18059 11.7075C7.18941 11.5524 7.19602 11.4341 7.20043 11.3525H7.17397L6.08252 14.645H5.02415Z" fill="white"/>
<path d="M12.2019 14.645H9.44354V10.2754H12.2019V11.12H10.5681V11.9584H12.0829V12.8029H10.5681V13.7882H12.2019V14.645Z" fill="white"/>
<path d="M17.2602 14.645H15.9637L14.9516 13.1273L13.9396 14.645H12.696L14.2637 12.399L12.7886 10.2754H14.0388L14.9847 11.7442L15.8976 10.2754H17.1478L15.666 12.4725L17.2602 14.645Z" fill="white"/>
<path d="M19.0486 14.4492C18.762 14.441 18.5106 14.4166 18.2945 14.3758C18.0784 14.3309 17.8778 14.2717 17.6926 14.1983V13.3415C17.8866 13.4231 18.1071 13.4945 18.3541 13.5557C18.601 13.6128 18.8325 13.6495 19.0486 13.6659V12.8213C18.8149 12.7438 18.6098 12.6663 18.4334 12.5887C18.257 12.5112 18.1093 12.4235 17.9902 12.3256C17.8756 12.2277 17.7874 12.1155 17.7256 11.989C17.6683 11.8625 17.6397 11.7136 17.6397 11.5422C17.6397 11.3178 17.6992 11.1281 17.8183 10.9731C17.9373 10.814 18.1027 10.6895 18.3144 10.5998C18.526 10.51 18.7708 10.457 19.0486 10.4406V10H19.5646V10.4284C19.8248 10.4406 20.0629 10.4712 20.279 10.5202C20.4995 10.5692 20.7067 10.6324 20.9008 10.7099L20.6031 11.4627C20.4355 11.3933 20.2613 11.3403 20.0805 11.3035C19.9041 11.2668 19.7322 11.2403 19.5646 11.224V12.0441C19.838 12.1257 20.0827 12.2154 20.2988 12.3133C20.5149 12.4072 20.6847 12.5296 20.8082 12.6805C20.9361 12.8274 21 13.0212 21 13.2619C21 13.572 20.8831 13.8352 20.6494 14.0514C20.4157 14.2636 20.0541 14.3921 19.5646 14.437V15H19.0486V14.4492ZM19.5646 13.6475C19.7057 13.6271 19.8093 13.5904 19.8755 13.5373C19.9416 13.4843 19.9747 13.4149 19.9747 13.3293C19.9747 13.2721 19.9615 13.2252 19.935 13.1885C19.9085 13.1477 19.8644 13.111 19.8027 13.0783C19.741 13.0416 19.6616 13.0049 19.5646 12.9682V13.6475ZM19.0486 11.2362C18.9648 11.2444 18.8943 11.2607 18.8369 11.2852C18.7796 11.3097 18.7355 11.3423 18.7046 11.3831C18.6738 11.4198 18.6583 11.4647 18.6583 11.5177C18.6583 11.5708 18.6716 11.6197 18.698 11.6646C18.7245 11.7054 18.7664 11.7421 18.8237 11.7748C18.881 11.8074 18.956 11.8421 19.0486 11.8788V11.2362Z" fill="white"/>
</svg>
