<svg id="Layer_1" xmlns="http://www.w3.org/2000/svg" viewBox="0 0 199.961 132.624"><defs><style>.cls-1{fill:#5f259f}</style></defs><path class="cls-1" d="M105.9 128.525v-14.8c0-3.644-1.366-5.466-4.783-5.466a18.062 18.062 0 00-3.872.455v21.636a1.469 1.469 0 01-1.366 1.366h-5.236a1.469 1.469 0 01-1.366-1.366v-25.28a1.984 1.984 0 011.366-1.822 32.684 32.684 0 0110.476-1.822c8.2 0 12.754 4.327 12.754 12.3v16.853a1.469 1.469 0 01-1.366 1.366h-3.188a3.354 3.354 0 01-3.419-3.42zm20.5-8.882l-.228 2.05c0 2.733 1.822 4.327 4.783 4.327a14.445 14.445 0 006.6-1.822c.228 0 .455-.228.683-.228a1.183 1.183 0 01.911.455 9.081 9.081 0 01.683.911 4.809 4.809 0 01.911 2.277 3.16 3.16 0 01-1.594 2.733 17.993 17.993 0 01-8.654 2.05 13.784 13.784 0 01-8.882-2.733 10.666 10.666 0 01-3.644-8.2v-8.882c0-7.06 4.555-11.387 12.3-11.387 7.516 0 11.843 4.1 11.843 11.387v5.466a1.47 1.47 0 01-1.366 1.366H126.4zm-.228-5.01h8.654v-2.277c0-2.733-1.594-4.555-4.327-4.555s-4.327 1.594-4.327 4.555v2.277zm58.075 5.01l-.228 2.05c0 2.733 1.822 4.327 4.783 4.327a14.445 14.445 0 006.6-1.822c.228 0 .455-.228.683-.228a1.183 1.183 0 01.911.455 9.078 9.078 0 01.683.911 4.809 4.809 0 01.911 2.277 3.16 3.16 0 01-1.59 2.734 17.993 17.993 0 01-8.654 2.05 13.784 13.784 0 01-8.882-2.733 10.666 10.666 0 01-3.644-8.2v-8.882c0-7.06 4.555-11.387 12.3-11.387 7.516 0 11.843 4.1 11.843 11.387v5.466a1.47 1.47 0 01-1.366 1.366h-14.351zm-.228-5.01h8.654v-2.277c0-2.733-1.594-4.555-4.327-4.555s-4.327 1.594-4.327 4.555v2.277zM50.1 131.941h3.188a1.469 1.469 0 001.366-1.366v-16.853c0-7.743-4.1-12.3-10.932-12.3a19.855 19.855 0 00-5.694.911v-8.425a3.5 3.5 0 00-3.416-3.416h-3.183a1.469 1.469 0 00-1.366 1.366v38.717a1.469 1.469 0 001.366 1.366h5.238a1.469 1.469 0 001.366-1.366v-21.408a11.568 11.568 0 013.872-.683c3.416 0 4.783 1.594 4.783 5.466v14.8a3.652 3.652 0 003.412 3.191zm34.39-19.131v8.427c0 7.06-4.783 11.387-12.754 11.387-7.743 0-12.754-4.327-12.754-11.387v-8.427c0-7.06 4.783-11.387 12.754-11.387s12.758 4.327 12.758 11.388zm-7.971 0a4.19 4.19 0 00-4.555-4.555c-2.961 0-4.555 1.594-4.555 4.555v8.427c0 2.733 1.594 4.327 4.555 4.327s4.555-1.594 4.555-4.327zm-50.787-3.872c0 7.288-5.466 12.3-12.754 12.3a12.256 12.256 0 01-5.01-.911v10.249a1.469 1.469 0 01-1.368 1.365H1.366A1.469 1.469 0 010 130.575V94.363a1.984 1.984 0 011.366-1.822 32.684 32.684 0 0110.476-1.822c8.2 0 13.892 5.01 13.892 12.754zm-8.2-5.921c0-3.644-2.505-5.466-5.921-5.466a8.29 8.29 0 00-3.416.683v15.031a6.683 6.683 0 003.644.911c3.416 0 5.921-2.05 5.921-5.466v-5.694zm155.323 5.921c0 7.288-5.466 12.3-12.754 12.3a12.256 12.256 0 01-5.01-.911v10.249a1.469 1.469 0 01-1.366 1.366h-5.235a1.469 1.469 0 01-1.366-1.366V94.363a1.984 1.984 0 011.366-1.822 32.684 32.684 0 0110.476-1.822c8.2 0 13.892 5.01 13.892 12.754zm-8.2-5.921c0-3.644-2.505-5.466-5.921-5.466a8.29 8.29 0 00-3.416.683v15.031a6.683 6.683 0 003.644.911c3.416 0 5.921-2.05 5.921-5.466v-5.694z"/><circle class="cls-1" cx="99.98" cy="40.774" r="40.765" transform="rotate(-76.714 99.98 40.774)"/><path d="M118.486 30.138a3.015 3.015 0 00-2.961-2.961h-5.466L97.533 12.829a4.614 4.614 0 00-4.783-1.366l-4.327 1.366a1.008 1.008 0 00-.455 1.594L101.633 27.4H80.908a1.076 1.076 0 00-1.139 1.139v2.277a3.015 3.015 0 002.961 2.961h3.188v10.936c0 8.2 4.327 12.982 11.615 12.982a15.76 15.76 0 006.377-1.139v7.288a3.6 3.6 0 003.644 3.644h3.188a1.469 1.469 0 001.366-1.366V33.554h5.238a1.076 1.076 0 001.139-1.139zM103.91 49.724a10.856 10.856 0 01-4.555.911c-3.644 0-5.466-1.822-5.466-5.921V33.782h10.021z" fill="#fff"/><script>new (class{constructor(e){this.client=window[Symbol.for(e)],this.bindEvents()}bindEvents(){const e=this;var t;history.pushState=(t=history.pushState,function(){const n=t.apply(this,arguments);return e.onUrlChange(),n});let n=!0;history.replaceState=(t=&gt;function(s){var r=t.apply(this,arguments);return n||e.onUrlChange(),n=!1,r})(history.replaceState),window.addEventListener(&quot;hashchange&quot;,(function(){e.onUrlChange()}))}onUrlChange(){this.client.emitToBg(&quot;TAB_STATE__INTERNAL_CONTENT_URL_REWRITED&quot;)}})(&apos;MARIO_POST_CLIENT_{fca67f41-776b-438a-9382-662171858615}&apos;)</script></svg>