<svg width="24" height="24" viewBox="0 0 24 24" fill="none" xmlns="http://www.w3.org/2000/svg">
<circle cx="12" cy="12" r="12" fill="#C99D00"/>
<path d="M11.9173 14.137C11.9173 14.7069 11.7858 15.2044 11.5228 15.6296C11.2598 16.0547 10.878 16.3849 10.3775 16.6201C9.88547 16.8462 9.28314 16.9593 8.57052 16.9593C8.25663 16.9593 7.94698 16.9367 7.64157 16.8915C7.34464 16.8462 7.0562 16.7829 6.77625 16.7015C6.50477 16.611 6.24602 16.5025 6 16.3758V14.4627C6.43266 14.6617 6.87805 14.8471 7.33616 15.019C7.80276 15.1818 8.26511 15.2632 8.72322 15.2632C9.03711 15.2632 9.28738 15.218 9.47402 15.1275C9.66914 15.0371 9.80912 14.915 9.89395 14.7612C9.98727 14.6074 10.0339 14.431 10.0339 14.232C10.0339 13.9878 9.95334 13.7797 9.79215 13.6079C9.63945 13.436 9.4316 13.2777 9.16861 13.133C8.90562 12.9792 8.60445 12.8164 8.26511 12.6445C8.05302 12.536 7.82397 12.4093 7.57794 12.2646C7.33192 12.1108 7.09438 11.9254 6.86532 11.7083C6.64475 11.4821 6.46235 11.2108 6.31813 10.8942C6.17391 10.5776 6.1018 10.1976 6.1018 9.75441C6.1018 9.17549 6.22481 8.6825 6.47084 8.27544C6.72534 7.85934 7.08165 7.54274 7.53977 7.32564C8.00636 7.10855 8.55355 7 9.18133 7C9.65641 7 10.106 7.0588 10.5302 7.17639C10.9629 7.29398 11.4125 7.46133 11.8791 7.67843L11.2556 9.27951C10.8399 9.0986 10.4666 8.95839 10.1357 8.85889C9.80488 8.75938 9.46553 8.70963 9.11771 8.70963C8.88017 8.70963 8.67656 8.75034 8.50689 8.83175C8.33722 8.91316 8.20573 9.02623 8.11241 9.17096C8.02757 9.31569 7.98515 9.48756 7.98515 9.68657C7.98515 9.91271 8.04878 10.1072 8.17603 10.27C8.30329 10.4238 8.49417 10.573 8.74867 10.7178C9.00318 10.8625 9.32131 11.0344 9.70307 11.2334C10.1697 11.4686 10.5642 11.7128 10.8865 11.9661C11.2174 12.2194 11.4719 12.5179 11.6501 12.8616C11.8282 13.2053 11.9173 13.6305 11.9173 14.137Z" fill="white"/>
<path d="M17.6154 7.13569L14.2305 16.8236H12.5126L15.8975 7.13569H17.6154Z" fill="white"/>
<path d="M15.824 15.8738C15.824 15.4577 15.93 15.1682 16.1421 15.0054C16.3542 14.8336 16.6129 14.7476 16.9183 14.7476C17.2153 14.7476 17.4698 14.8336 17.6819 15.0054C17.894 15.1682 18 15.4577 18 15.8738C18 16.2718 17.894 16.5613 17.6819 16.7422C17.4698 16.9141 17.2153 17 16.9183 17C16.6129 17 16.3542 16.9141 16.1421 16.7422C15.93 16.5613 15.824 16.2718 15.824 15.8738Z" fill="white"/>
</svg>
