<svg width="24" height="24" viewBox="0 0 24 24" fill="none" xmlns="http://www.w3.org/2000/svg">
<circle cx="12" cy="12" r="12" fill="#F0370F"/>
<path d="M12.0299 11.9706C12.0299 12.8782 11.8478 14.5382 11.4837 15.1508C11.1195 15.7634 10.5891 16.2248 9.89244 16.5349C9.2037 16.845 8.37246 17 7.39872 17H5V8H7.65997C8.54663 8 9.31453 8.15126 9.96369 8.45378C10.6208 8.7563 11.1274 9.20252 11.4837 9.79244C11.8478 10.3748 12.0299 11.1008 12.0299 11.9706ZM10.1656 12.016C10.1656 11.4185 10.0745 10.9269 9.89244 10.5412C9.71036 10.1555 9.43724 9.87185 9.07308 9.69034C8.71683 9.50126 8.27746 9.40672 7.75497 9.40672H6.7931V15.5819H7.56497C8.44371 15.5819 9.09683 15.3588 9.52432 14.9126C9.95182 14.4664 10.1656 12.9008 10.1656 12.016Z" fill="white"/>
<path d="M16.6963 17H14.9032V9.42941H12.5994V8H19V9.42941H16.6963V17Z" fill="white"/>
</svg>
