<svg width="24" height="24" viewBox="0 0 24 24" fill="none" xmlns="http://www.w3.org/2000/svg">
<circle cx="12" cy="12" r="12" fill="#E90101"/>
<path d="M11.514 19C11.2399 19 10.9533 18.9871 10.6542 18.9612C10.3676 18.9354 10.1059 18.8966 9.86916 18.8449V12.7562L8 13.4349V11.903L9.86916 11.2438V9.92521L8 10.5845V9.05263L9.86916 8.39335V5H12.1869V7.57895L15.4579 6.39612V7.92798L12.1869 9.09141V10.4294L15.4579 9.24654V10.759L12.1869 11.9418V16.964C13.0966 16.8864 13.8131 16.6343 14.3364 16.2078C14.8723 15.7682 15.2461 15.193 15.4579 14.482C15.6822 13.771 15.7944 12.9631 15.7944 12.0582H18C18 12.9501 17.8879 13.8163 17.6636 14.6565C17.4393 15.4838 17.0779 16.2271 16.5794 16.8864C16.081 17.5328 15.4143 18.0499 14.5794 18.4377C13.757 18.8126 12.7352 19 11.514 19Z" fill="white"/>
</svg>
