<svg width="24" height="24" viewBox="0 0 24 24" fill="none" xmlns="http://www.w3.org/2000/svg">
<circle cx="12" cy="12" r="12" fill="#0CC52A"/>
<path d="M8 14.6667H9.6C9.6 15.6267 10.696 16.4444 12 16.4444C13.304 16.4444 14.4 15.6267 14.4 14.6667C14.4 13.6889 13.568 13.3333 11.808 12.8622C10.112 12.3911 8 11.8044 8 9.33333C8 7.74222 9.176 6.39111 10.8 5.93778V4H13.2V5.93778C14.824 6.39111 16 7.74222 16 9.33333H14.4C14.4 8.37333 13.304 7.55556 12 7.55556C10.696 7.55556 9.6 8.37333 9.6 9.33333C9.6 10.3111 10.432 10.6667 12.192 11.1378C13.888 11.6089 16 12.1956 16 14.6667C16 16.2578 14.824 17.6089 13.2 18.0622V20H10.8V18.0622C9.176 17.6089 8 16.2578 8 14.6667Z" fill="white"/>
</svg>
