<svg width="24" height="24" viewBox="0 0 24 24" fill="none" xmlns="http://www.w3.org/2000/svg">
<circle cx="12" cy="12" r="12" fill="#26A17B"/>
<path fill-rule="evenodd" clip-rule="evenodd" d="M13.2201 10.6937V9.23079H18V7H6V9.23079H10.7892V10.693C8.05571 10.8179 6 11.3571 6 12.0026C6 12.6481 8.05571 13.1866 10.7892 13.3121V20H13.2201V13.3109C15.9493 13.186 18 12.6475 18 12.0026C18 11.3577 15.9493 10.8192 13.2201 10.6937ZM13.2201 12.9133V12.9121C13.1518 12.917 12.7995 12.9381 12.0137 12.9381C11.3862 12.9381 10.9445 12.9195 10.7892 12.9121V12.9139C8.37378 12.8082 6.57093 12.3896 6.57093 11.8888C6.57093 11.3886 8.37378 10.97 10.7892 10.8625V12.4972C10.947 12.5083 11.3993 12.5349 12.0242 12.5349C12.7741 12.5349 13.1499 12.504 13.2201 12.4978V10.8637C15.6306 10.9707 17.4291 11.3892 17.4291 11.8888C17.4291 12.3896 15.6306 12.807 13.2201 12.9133Z" fill="white"/>
</svg>
