<?xml version="1.0" encoding="UTF-8" standalone="no"?>
<svg
   xmlns:dc="http://purl.org/dc/elements/1.1/"
   xmlns:cc="http://creativecommons.org/ns#"
   xmlns:rdf="http://www.w3.org/1999/02/22-rdf-syntax-ns#"
   xmlns:svg="http://www.w3.org/2000/svg"
   xmlns="http://www.w3.org/2000/svg"
   xmlns:sodipodi="http://sodipodi.sourceforge.net/DTD/sodipodi-0.dtd"
   xmlns:inkscape="http://www.inkscape.org/namespaces/inkscape"
   sodipodi:docname="AZ.svg"
   inkscape:version="1.0 (4035a4fb49, 2020-05-01)"
   id="svg2364"
   version="1.1"
   viewBox="0 0 158.74999 158.75"
   height="600"
   width="600">
  <defs
     id="defs2358" />
  <sodipodi:namedview
     inkscape:window-maximized="1"
     inkscape:window-y="0"
     inkscape:window-x="0"
     inkscape:window-height="703"
     inkscape:window-width="1366"
     inkscape:showpageshadow="false"
     borderlayer="false"
     units="px"
     showgrid="false"
     inkscape:document-rotation="0"
     inkscape:current-layer="layer1"
     inkscape:document-units="px"
     inkscape:cy="313.55105"
     inkscape:cx="-291.1232"
     inkscape:zoom="0.16"
     inkscape:pageshadow="2"
     inkscape:pageopacity="0"
     borderopacity="1.0"
     bordercolor="#666666"
     pagecolor="#cccccc"
     id="base"
     inkscape:snap-global="false"
     inkscape:object-paths="true"
     inkscape:snap-intersection-paths="true"
     inkscape:snap-bbox="true"
     inkscape:bbox-paths="true"
     inkscape:bbox-nodes="true"
     inkscape:snap-bbox-edge-midpoints="true"
     inkscape:snap-bbox-midpoints="true"
     inkscape:snap-smooth-nodes="true"
     showborder="false" />
  <metadata
     id="metadata2361">
    <rdf:RDF>
      <cc:Work
         rdf:about="">
        <dc:format>image/svg+xml</dc:format>
        <dc:type
           rdf:resource="http://purl.org/dc/dcmitype/StillImage" />
        <dc:title></dc:title>
      </cc:Work>
    </rdf:RDF>
  </metadata>
  <g
     id="layer1"
     inkscape:groupmode="layer"
     inkscape:label="Layer 1">
    <path
       id="rect578"
       style="fill:#ffffff;fill-opacity:1;stroke:none;stroke-width:0.379078"
       d="M 23.812498,-2e-7 H 134.93751 c 13.19212,0 23.8125,10.6203742 23.8125,23.8124952 V 134.9375 c 0,13.19212 -10.62038,23.8125 -23.8125,23.8125 H 23.812498 C 10.620375,158.75 10e-7,148.12962 10e-7,134.9375 V 23.812495 C 10e-7,10.620374 10.620375,-2e-7 23.812498,-2e-7 Z" />
    <g
       id="g551"
       transform="translate(-53.43629,25.305771)" />
    <g
       transform="matrix(1.3505906,0,0,1.3505906,-202.12451,-209.22747)"
       id="g790">
      <path
         style="fill:#b82423;fill-opacity:1;fill-rule:nonzero;stroke:none;stroke-width:2.24518"
         d="m 208.79994,200.55581 c -10.47749,0 -18.70983,8.23224 -18.70983,17.96139 0,10.47749 8.23234,17.96148 18.70983,17.96148 9.72915,0 17.96148,-7.48399 17.96148,-17.96148 0,-9.72915 -8.23233,-17.96139 -17.96148,-17.96139 z"
         id="path59" />
      <path
         style="fill:#1a643b;fill-opacity:1;fill-rule:nonzero;stroke:none;stroke-width:2.24518"
         d="m 217.78072,181.84589 c 0,0 0,0 -0.74843,0 3.74196,-1.4967 8.9807,-2.9935 14.96779,-3.74195 -8.23233,0 -14.96787,0.74845 -20.95498,1.49682 -0.74843,0 -1.4968,0 -2.24525,0 -0.74843,0 -2.24513,0 -2.9935,0 -5.98717,-0.74848 -12.72274,-1.49682 -20.95507,-1.49682 5.9872,0.74845 11.22594,2.24525 15.71633,3.74195 -0.74843,0 -1.4968,0 -1.4968,0 -26.94218,8.98077 -47.89723,26.94216 -46.40043,42.65851 1.49679,12.72265 14.21951,18.70982 35.17451,16.46469 -11.22594,-1.49682 -16.46469,-7.48402 -17.21305,-16.46469 -1.4968,-14.21955 14.21944,-29.93577 36.67133,-39.66492 0,0 0,0 1.49668,-0.74843 0.74845,0.74843 1.49682,0.74843 1.49682,0.74843 21.70341,9.72915 37.41973,25.44537 35.92294,39.66492 -0.74843,8.98067 -5.23875,14.96787 -17.21312,16.46469 20.95507,2.24513 33.67772,-3.74204 35.17452,-16.46469 1.49679,-15.71635 -18.70983,-33.67774 -46.40037,-42.65851 z"
         id="path61" />
    </g>
  </g>
</svg>
