<?xml version="1.0" encoding="utf-8"?>
<!-- Generator: Adobe Illustrator 16.0.0, SVG Export Plug-In . SVG Version: 6.00 Build 0)  -->
<!DOCTYPE svg PUBLIC "-//W3C//DTD SVG 1.0//EN" "http://www.w3.org/TR/2001/REC-SVG-20010904/DTD/svg10.dtd">
<svg version="1.0" id="Capa_1" xmlns="http://www.w3.org/2000/svg" xmlns:xlink="http://www.w3.org/1999/xlink" x="0px" y="0px"
	 width="100px" height="100px" viewBox="0 0 100 100" enable-background="new 0 0 100 100" xml:space="preserve">
<g>
	<path fill="#BA0038" d="M99.998,100h-78.11C21.888,100,0,100,0,78.113V0h78.11c0,0,21.888,0,21.888,21.888V100L99.998,100
		L99.998,100z"/>
	<polygon fill="#FFFFFF" points="45.488,85.945 40.566,85.945 40.566,60.718 45.488,60.718 45.488,85.945 	"/>
	<polygon fill="#FFFFFF" points="58.029,85.945 49.966,85.945 49.966,51.318 58.029,51.318 58.029,85.945 	"/>
	<path fill="#FFFFFF" d="M36.149,27.2c0,0,8.129-7.948,21.831-5.333c0,0,6.029,0.938,10.648,5.043c0,0,0.689,0.644,1.217,0.115
		c0,0,0.67-0.525-0.076-1.312c0,0-3.972-5.511-11.816-7.946c0,0-10.773-3.858-21.842,1.354c0,0-6.812,2.823-10.59,10.517
		c0,0-5.388,1.74-9.426,4.006c0,0-1.194,0.471-0.742,1.4c0,0,0.386,0.665,1.431,0.169c0,0,3.75-1.293,7.365-2.101
		c0,0-2.907,7.54,0.128,16.896c1.351,4.168,3.817,8.408,7.583,11.819c0,0,0.612,0.644,1.284,0.203c0,0,0.58-0.423,0.171-1.112
		c0,0-3.004-4.522-4.172-10.951c-0.971-5.246-0.513-12.486,3.128-18.225c0,0,13.865-1.935,25.682,2.516
		c0,0,20.074,6.549,15.02,18.698c0,0-1.47,4.222-7.01,8.037c0,0-0.929,0.54-0.424,1.316c0,0,0.418,0.605,1.367,0.218
		c0,0,8.485-2.762,12.147-9.578c0,0,7.43-11.368-10.087-20.643c0,0-4.819-2.575-11.014-3.951
		C57.953,28.354,46.796,25.595,36.149,27.2"/>
</g>
</svg>
