<?xml version="1.0" encoding="utf-8"?>
<!-- Generator: Adobe Illustrator 16.0.0, SVG Export Plug-In . SVG Version: 6.00 Build 0)  -->
<!DOCTYPE svg PUBLIC "-//W3C//DTD SVG 1.0//EN" "http://www.w3.org/TR/2001/REC-SVG-20010904/DTD/svg10.dtd">
<svg version="1.0" id="Capa_1" xmlns="http://www.w3.org/2000/svg" xmlns:xlink="http://www.w3.org/1999/xlink" x="0px" y="0px"
	 width="100px" height="100px" viewBox="0 0 100 100" enable-background="new 0 0 100 100" xml:space="preserve">
<path fill="#FFDF00" d="M100,97c0,1.657-1.343,3-3,3H3c-1.657,0-3-1.343-3-3V3c0-1.657,1.343-3,3-3h94c1.657,0,3,1.343,3,3V97z"/>
<path fill-rule="evenodd" clip-rule="evenodd" fill="#005A9F" d="M71.359,23.837l7.371,5.049l7.21-4.82l0.015-9.901L71.359,23.837
	L71.359,23.837L71.359,23.837z M28.743,76.317l-7.345-5.009l-7.353,5.017v9.705L28.743,76.317L28.743,76.317L28.743,76.317z
	 M56.634,33.483l7.197,4.841l-34.2,23.14l21.133,14.263l9.924-6.725l-7.711-5.108l17.795-11.925l14.887,9.877L49.692,85.822
	l-35.49-23.811L56.634,33.483L56.634,33.483L56.634,33.483z M43.161,66.309l-7.196-4.84l34.198-23.142L49.031,24.065l-9.924,6.726
	l7.709,5.106L29.022,47.823l-14.887-9.877l35.839-23.976l35.583,23.914L43.161,66.309L43.161,66.309L43.161,66.309z"/>
</svg>
