<svg id="Layer_1" data-name="Layer 1" xmlns="http://www.w3.org/2000/svg" width="600" height="600" viewBox="0 0 600 600">
  <defs>
    <style>
      .cls-1 {
        fill: #fff;
      }
    </style>
  </defs>
  <path id="rect578" class="cls-1" d="M90,0H510a89.8,89.8,0,0,1,90,90V510a89.8,89.8,0,0,1-90,90H90A89.8,89.8,0,0,1,0,510V90A89.8,89.8,0,0,1,90,0Z"/>
  <g>
    <g>
      <rect x="56.65" y="124.25" width="32.45" height="351.51"/>
      <rect x="105.32" y="124.25" width="21.63" height="259.57"/>
      <rect x="164.81" y="124.25" width="21.63" height="259.57"/>
      <rect x="202.66" y="124.25" width="32.45" height="259.57"/>
      <rect x="137.77" y="124.25" width="16.22" height="259.57"/>
      <rect x="245.92" y="124.25" width="16.22" height="259.57"/>
      <polygon points="355.88 124.25 321.63 124.25 321.63 383.82 355.88 383.82 365.8 383.82 386.52 383.82 386.52 124.25 365.8 124.25 355.88 124.25"/>
      <rect x="272.96" y="124.25" width="27.04" height="259.57"/>
      <rect x="473.05" y="124.25" width="32.45" height="259.57"/>
      <polygon points="437 124.25 408.16 124.25 408.16 383.82 437 383.82 442.4 383.82 456.83 383.82 456.83 124.25 442.4 124.25 437 124.25"/>
      <rect x="516.31" y="124.25" width="27.04" height="351.51"/>
    </g>
    <g>
      <path d="M137.1,420.21h25.43q12.72,0,12.72,10.73V438q0,7.53-4.15,9.78a5.77,5.77,0,0,1,3.28,3.16,15.48,15.48,0,0,1,.87,5.75V465q0,10.73-12.72,10.72H137.1Zm23.27,20.85v-9c0-1.26-.72-1.9-2.16-1.9H152V443h6.23C159.65,443,160.37,442.33,160.37,441.06Zm0,22.84v-9.08c0-1.27-.72-1.91-2.16-1.91H152V465.8h6.23C159.65,465.8,160.37,465.17,160.37,463.9Z"/>
      <path d="M211.5,420.21h12.8q12.72,0,12.72,10.73V465q0,10.73-12.72,10.72H211.5q-12.72,0-12.72-10.72V430.94Q198.78,420.22,211.5,420.21ZM221.88,463V432.93c0-1.27-.72-1.9-2.16-1.9h-3.64c-1.44,0-2.16.63-2.16,1.9V463c0,1.27.72,1.9,2.16,1.9h3.64C221.16,464.94,221.88,464.31,221.88,463Z"/>
      <path d="M276.12,464.94h17.22v10.81H261V420.21h15.14Z"/>
      <path d="M329.24,464.94h18.95v10.81H314.1V420.21h33.31V431H329.24v11.33H344.9v10.81H329.24Z"/>
      <path d="M403.73,420.21V431H393v44.72H377.86V431H367.22V420.21Z"/>
      <path d="M437.38,420.21h12.81q12.71,0,12.71,10.73V465q0,10.73-12.71,10.72H437.38q-12.72,0-12.72-10.72V430.94Q424.66,420.22,437.38,420.21ZM447.76,463V432.93c0-1.27-.72-1.9-2.16-1.9H442c-1.45,0-2.17.63-2.17,1.9V463c0,1.27.72,1.9,2.17,1.9h3.63C447,464.94,447.76,464.31,447.76,463Z"/>
    </g>
  </g>
</svg>
