<svg xmlns="http://www.w3.org/2000/svg" width="40" height="40" viewBox="0 0 40 40" fill="none">
  <rect y="6.10352e-05" width="40" height="40" rx="20" fill="#F7931A"/>
  <path d="M28.8307 17.4798C29.2579 14.9109 27.2972 13.4814 24.6015 12.5047L25.5369 9.03106L23.4196 8.46099L22.5122 11.8405L20.7753 11.4204L21.6883 8.01994L19.571 7.44987L18.6409 10.9236C18.175 10.8087 17.7196 10.6941 17.275 10.5743L14.3266 9.78182L13.7235 12.0366C13.7235 12.0366 15.3119 12.4326 15.2744 12.4529C15.5712 12.4935 15.8406 12.6481 16.0241 12.8834C16.2076 13.1187 16.2903 13.4155 16.2544 13.7095L13.7014 23.2204C13.6719 23.3193 13.6226 23.4112 13.5563 23.4905C13.4901 23.5699 13.4082 23.6351 13.3157 23.6823C13.2232 23.7295 13.1219 23.7577 13.0179 23.7652C12.9139 23.7726 12.8093 23.7593 12.7104 23.7259C12.7099 23.7574 11.1541 23.3095 11.1541 23.3095L10.0543 25.7223L12.8386 26.4693C13.368 26.6066 13.86 26.7536 14.3575 26.8902L13.4163 30.4006L15.5336 30.9706L16.469 27.497C17.051 27.6669 17.6174 27.8207 18.1679 27.9689L17.2381 31.4269L19.3554 31.997L20.3018 28.492C23.947 29.2516 26.7088 29.0355 27.9119 25.7831C28.8872 23.173 27.9329 21.6223 26.0193 20.5883C27.427 20.2966 28.4983 19.4036 28.8087 17.5267L28.8307 17.4798ZM23.8225 24.183C23.1181 26.7987 18.6553 25.2908 17.205 24.8977L18.4506 20.2469C19.901 20.6347 24.5555 21.4259 23.8225 24.183ZM24.5911 17.3601C23.9486 19.7509 20.232 18.4532 19.0251 18.1282L20.1527 13.9063C21.365 14.2208 25.2618 14.8594 24.5912 17.3496L24.5911 17.3601Z" fill="white"/>
</svg>