<svg width="128" height="48" viewBox="0 0 128 48" fill="none" xmlns="http://www.w3.org/2000/svg">
<path d="M26.9192 26.5255C25.1762 33.2219 18.095 37.2972 11.1027 35.6273C4.11335 33.9578 -0.141552 27.1751 1.60233 20.4791C3.34458 13.782 10.4257 9.70626 17.416 11.3758C24.4078 13.0453 28.6623 19.8288 26.9192 26.5255Z" fill="#F7931A"/>
<path d="M20.0149 21.7206C20.2747 20.0574 18.9525 19.1633 17.1446 18.5668L17.731 16.3137L16.2992 15.9719L15.7282 18.1656C15.3518 18.0758 14.9651 17.991 14.581 17.907L15.156 15.6988L13.7249 15.3571L13.1381 17.6094C12.8265 17.5414 12.5206 17.4742 12.2237 17.4035L12.2253 17.3965L10.2506 16.9242L9.86972 18.389C9.86972 18.389 10.9321 18.6222 10.9097 18.6367C11.4896 18.7754 11.5944 19.1429 11.5769 19.4343L10.9089 22.0011C10.9488 22.0109 11.0006 22.0249 11.0577 22.0468C11.01 22.0355 10.959 22.023 10.9064 22.0109L9.97004 25.6065C9.89907 25.7753 9.71923 26.0284 9.31385 25.9323C9.32812 25.9522 8.27306 25.6835 8.27306 25.6835L7.56221 27.2534L9.42559 27.6983C9.77224 27.7815 10.112 27.8686 10.4464 27.9506L9.85382 30.2295L11.2841 30.5713L11.8709 28.3166C12.2616 28.4182 12.6409 28.5119 13.012 28.6002L12.4272 30.8443L13.8591 31.1861L14.4517 28.9115C16.8934 29.3541 18.7294 29.1756 19.5023 27.0604C20.125 25.3573 19.4713 24.3749 18.1866 23.7343C19.1222 23.5276 19.8269 22.9382 20.0149 21.7206ZM16.7433 26.1147C16.3008 27.8178 13.3069 26.8971 12.3363 26.6663L13.1226 23.6472C14.0932 23.8792 17.2058 24.3386 16.7433 26.1147ZM17.1862 21.696C16.7824 23.2452 14.2906 22.4581 13.4823 22.2651L14.1952 19.5269C15.0035 19.7199 17.6067 20.08 17.1862 21.696Z" fill="white"/>
<path d="M39.4562 18.5644C40.5145 18.5644 41.4289 18.7461 42.1972 19.1027C42.9692 19.4629 43.6063 19.948 44.1173 20.5582C44.6213 21.1714 44.9966 21.8882 45.2388 22.7097C45.4794 23.5335 45.6001 24.419 45.6001 25.3671C45.6001 26.8233 45.3216 28.1991 44.7592 29.4959C44.1968 30.7947 43.4337 31.9213 42.4631 32.8822C41.4933 33.8419 40.3481 34.5986 39.0276 35.1575C37.709 35.7169 36.2755 35.9966 34.7364 35.9966C34.5373 35.9966 34.1874 35.9911 33.6931 35.9814C33.1988 35.9716 32.6307 35.9228 31.9945 35.8403C31.3542 35.7548 30.6772 35.6282 29.9623 35.4587C29.2478 35.2923 28.5692 35.0591 27.9301 34.763L33.6446 11.7649L38.7629 11.0052L36.7168 19.1664C37.1548 18.9773 37.5961 18.8308 38.0365 18.7242C38.4774 18.6191 38.9505 18.5644 39.4562 18.5644ZM35.1629 32.1076C35.9337 32.1076 36.6601 31.926 37.3424 31.5693C38.0267 31.2123 38.6173 30.7303 39.112 30.1299C39.6067 29.5268 39.9982 28.8475 40.2837 28.0885C40.5691 27.3295 40.7135 26.5378 40.7135 25.7139C40.7135 24.7018 40.5369 23.9124 40.185 23.3417C39.833 22.7734 39.1817 22.4874 38.236 22.4874C37.926 22.4874 37.5267 22.5441 37.0316 22.6452C36.5349 22.7527 36.0904 22.9757 35.6919 23.3112L33.5133 31.9783C33.6446 32.0006 33.7608 32.0217 33.8599 32.0416C33.957 32.0631 34.0643 32.0783 34.1711 32.0888C34.2841 32.101 34.4134 32.1072 34.5696 32.1072C34.7258 32.1072 34.9211 32.1076 35.1629 32.1076Z" fill="white"/>
<path d="M50.908 35.5564H46.0193L50.1478 18.9172H55.0699L50.908 35.5564ZM53.2869 16.8899C52.6046 16.8899 51.9859 16.6953 51.4369 16.3055C50.8835 15.918 50.6095 15.3215 50.6095 14.5176C50.6095 14.0755 50.7033 13.6606 50.8892 13.2692C51.0781 12.8786 51.3248 12.5423 51.6339 12.2563C51.9427 11.9728 52.3003 11.7462 52.7065 11.5755C53.1152 11.4075 53.5499 11.3235 54.0132 11.3235C54.6951 11.3235 55.3105 11.5181 55.8615 11.9079C56.4104 12.2997 56.6865 12.8962 56.6865 13.6958C56.6865 14.1395 56.5932 14.5559 56.4056 14.9465C56.2192 15.3372 55.9724 15.6735 55.6633 15.9594C55.357 16.2434 54.9961 16.4692 54.5907 16.6383C54.1816 16.809 53.7485 16.8899 53.2869 16.8899Z" fill="white"/>
<path d="M59.3542 14.7715L64.4745 14.0118L63.2172 18.9164H68.7008L67.7106 22.7749H62.26L60.8081 28.5952C60.6743 29.0803 60.5985 29.5334 60.5773 29.9545C60.5532 30.3775 60.6091 30.7408 60.7412 31.0467C60.8725 31.3533 61.1087 31.5896 61.4513 31.7568C61.7922 31.9267 62.2804 32.0123 62.9207 32.0123C63.448 32.0123 63.9619 31.9642 64.4586 31.8689C64.9525 31.7752 65.4529 31.6447 65.9594 31.474L66.324 35.0818C65.6633 35.3138 64.948 35.5134 64.1772 35.6814C63.4052 35.8517 62.4912 35.9337 61.4349 35.9337C59.9162 35.9337 58.7388 35.7177 57.8999 35.2876C57.0622 34.8544 56.47 34.2626 56.1156 33.5134C55.7661 32.767 55.6099 31.9064 55.6535 30.9369C55.6988 29.9651 55.8517 28.9436 56.1156 27.8678L59.3542 14.7715Z" fill="white"/>
<path d="M68.4855 28.9119C68.4855 27.4787 68.7278 26.1272 69.2119 24.862C69.6952 23.5956 70.3913 22.4882 71.2947 21.5378C72.1948 20.5921 73.2914 19.8429 74.5822 19.2929C75.8669 18.746 77.3053 18.4703 78.8905 18.4703C79.8828 18.4703 80.769 18.5601 81.5487 18.7402C82.3318 18.9218 83.0402 19.1566 83.6809 19.4511L81.9949 23.1229C81.5545 22.9519 81.0973 22.8011 80.6246 22.6644C80.1515 22.5249 79.574 22.4577 78.8909 22.4577C77.2592 22.4577 75.9692 22.9964 75.0092 24.0702C74.0528 25.1448 73.5712 26.5912 73.5712 28.4057C73.5712 29.481 73.8134 30.3506 74.2996 31.0158C74.7833 31.681 75.6768 32.0119 76.9741 32.0119C77.6144 32.0119 78.2323 31.9478 78.824 31.8228C79.4203 31.6962 79.9468 31.5369 80.4105 31.3486L80.7755 35.1126C80.1572 35.3423 79.4753 35.5497 78.7274 35.7313C77.9778 35.9067 77.0854 35.9977 76.0508 35.9977C74.685 35.9977 73.5288 35.8063 72.583 35.4294C71.6368 35.0466 70.855 34.5384 70.2392 33.8946C69.6201 33.2493 69.1756 32.4958 68.9007 31.631C68.6258 30.767 68.4855 29.8592 68.4855 28.9119Z" fill="white"/>
<path d="M90.2025 35.9977C89.0357 35.9977 88.0222 35.8274 87.1625 35.4903C86.3052 35.1532 85.5952 34.6802 85.0336 34.0669C84.4712 33.4568 84.0504 32.7337 83.762 31.9005C83.4737 31.0677 83.335 30.1455 83.335 29.135C83.335 27.8674 83.5475 26.6002 83.9769 25.3366C84.4044 24.0702 85.0385 22.9323 85.8778 21.921C86.7106 20.9081 87.738 20.08 88.9476 19.4343C90.156 18.7929 91.5459 18.4703 93.107 18.4703C94.2526 18.4703 95.2608 18.641 96.1323 18.9781C96.9998 19.3144 97.7143 19.7913 98.2792 20.4015C98.8379 21.0148 99.2624 21.7347 99.5479 22.569C99.8354 23.4003 99.9774 24.3249 99.9774 25.3362C99.9774 26.5998 99.7677 27.867 99.3517 29.1346C98.9354 30.3959 98.3175 31.5365 97.5018 32.5501C96.6878 33.5615 95.6699 34.3892 94.4472 35.0321C93.2261 35.6751 91.8101 35.9977 90.2025 35.9977ZM92.6458 22.4581C91.9211 22.4581 91.2804 22.6597 90.7318 23.0577C90.1813 23.4604 89.7188 23.9667 89.346 24.5772C88.9692 25.1905 88.6898 25.8592 88.501 26.5862C88.3138 27.3147 88.2221 28.0033 88.2221 28.6576C88.2221 29.7135 88.3999 30.5357 88.7494 31.1275C89.1038 31.7162 89.7404 32.0122 90.6658 32.0122C91.3929 32.0122 92.0304 31.8123 92.5822 31.4099C93.1295 31.0103 93.5924 30.5037 93.968 29.892C94.3424 29.2818 94.6242 28.6111 94.813 27.883C94.9977 27.1569 95.092 26.4643 95.092 25.8112C95.092 24.7581 94.915 23.9339 94.5622 23.3429C94.2098 22.7542 93.5703 22.4581 92.6458 22.4581Z" fill="white"/>
<path d="M105.304 35.5564H100.412L104.54 18.9172H109.465L105.304 35.5564ZM107.68 16.8899C106.998 16.8899 106.379 16.6953 105.831 16.3055C105.281 15.918 105.004 15.3215 105.004 14.5176C105.004 14.0755 105.099 13.6606 105.286 13.2692C105.472 12.8786 105.72 12.5423 106.03 12.2563C106.337 11.9728 106.698 11.7462 107.103 11.5755C107.509 11.4075 107.944 11.3235 108.406 11.3235C109.089 11.3235 109.707 11.5181 110.256 11.9079C110.806 12.2997 111.084 12.8962 111.084 13.6958C111.084 14.1395 110.986 14.5559 110.801 14.9465C110.616 15.3372 110.368 15.6735 110.06 15.9594C109.75 16.2434 109.393 16.4692 108.987 16.6383C108.578 16.809 108.144 16.8899 107.68 16.8899Z" fill="white"/>
<path d="M112.988 19.6738C113.359 19.5699 113.773 19.4449 114.224 19.309C114.676 19.173 115.182 19.0465 115.746 18.9324C116.304 18.8148 116.935 18.7195 117.627 18.6457C118.32 18.5703 119.11 18.5336 119.987 18.5336C122.565 18.5336 124.343 19.2527 125.324 20.6867C126.304 22.1206 126.474 24.0831 125.838 26.5706L123.589 35.5548H118.668L120.848 26.7596C120.981 26.2104 121.085 25.6796 121.162 25.1608C121.24 24.6468 121.236 24.1936 121.145 23.8015C121.058 23.414 120.853 23.0968 120.535 22.8511C120.213 22.6093 119.725 22.4878 119.064 22.4878C118.427 22.4878 117.778 22.5534 117.116 22.68L113.912 35.5544H108.989L112.988 19.6738Z" fill="white"/>
</svg>
