<?xml version="1.0" encoding="utf-8"?>
<!-- Generator: Adobe Illustrator 27.4.1, SVG Export Plug-In . SVG Version: 6.00 Build 0)  -->
<svg version="1.1" id="Layer_1" xmlns="http://www.w3.org/2000/svg" xmlns:xlink="http://www.w3.org/1999/xlink" x="0px" y="0px"
	 viewBox="0 0 644 228" style="enable-background:new 0 0 644 228;" xml:space="preserve">
<style type="text/css">
	.st0{fill:#939598;}
	.st1{fill:#32BCAD;}
</style>
<path class="st0" d="M264.9,216.1c-2.2,0-4-1.8-4-4V81.8c0-26.1,21.3-47.4,47.5-47.4l38.6,0.1c26.1,0,47.4,21.3,47.4,47.3v27.7
	c0,26.1-21.3,47.4-47.5,47.4h-54.5c-2.2,0-4-1.8-4-4s1.8-4,4-4h54.5c21.8,0,39.5-17.7,39.5-39.4V81.8c0-21.6-17.6-39.3-39.4-39.3
	l-38.6-0.1c-21.8,0-39.5,17.7-39.5,39.4v130.2C268.9,214.3,267.1,216.1,264.9,216.1L264.9,216.1z"/>
<path class="st0" d="M435.7,157.5c-2.2,0-4-1.8-4-4V56.2c0-7.6-6.2-13.8-13.8-13.8h-16.7c-2.2,0-4-1.8-4-4c0-2.2,1.8-4,4-4h16.7
	c12.1,0,21.9,9.8,21.9,21.8v97.3C439.7,155.7,437.9,157.5,435.7,157.5z"/>
<path class="st1" d="M432.1,23.4l-7.6-7.6c-1.9-1.9-1.9-4.9,0-6.8l7.6-7.6c1.9-1.9,4.9-1.9,6.8,0l7.6,7.6c1.9,1.9,1.9,4.9,0,6.8
	l-7.6,7.6C437.1,25.2,434,25.2,432.1,23.4"/>
<path class="st0" d="M555.1,94.2c-4.5,0-8.8-1.7-11.9-4.9l-38.8-38.7c-5.3-5.3-12.4-8.2-19.9-8.2h-16.6c-2.2,0-4-1.8-4-4
	c0-2.2,1.8-4,4-4h16.6c9.7,0,18.8,3.8,25.6,10.6l38.8,38.7c1.7,1.7,3.9,2.6,6.3,2.6s4.6-0.9,6.3-2.6L600,45
	c6.8-6.8,15.9-10.6,25.6-10.6h13.5c2.2,0,4,1.8,4,4c0,2.2-1.8,4-4,4h-13.5c-7.5,0-14.6,2.9-19.9,8.2L567,89.3
	C563.8,92.5,559.6,94.2,555.1,94.2z"/>
<path class="st0" d="M484.4,156.7h-16.6c-2.2,0-4-1.8-4-4c0-2.2,1.8-4,4-4h16.6c7.5,0,14.6-2.9,19.9-8.2l38.8-38.7
	c3.2-3.2,7.4-4.9,11.9-4.9c4.5,0,8.8,1.7,11.9,4.9l38.7,38.5c5.3,5.3,12.4,8.2,19.9,8.2h13.5c2.2,0,4,1.8,4,4c0,2.2-1.8,4-4,4h-13.5
	c-9.7,0-18.8-3.8-25.6-10.6l-38.7-38.5c-1.7-1.7-3.9-2.6-6.3-2.6c-2.4,0-4.6,0.9-6.3,2.6L510,146.1
	C503.2,152.9,494.1,156.7,484.4,156.7z"/>
<path class="st1" d="M166,177.4c-8.3,0-16.2-3.2-22-9.1l-31.8-31.7c-2.2-2.2-6.1-2.2-8.4,0l-32,31.9c-5.9,5.9-13.7,9.1-22,9.1h-6.3
	l40.3,40.2c12.6,12.5,33,12.5,45.6,0l40.4-40.3L166,177.4L166,177.4z"/>
<path class="st1" d="M49.8,65.1c8.3,0,16.2,3.2,22,9.1l32,31.9c2.3,2.3,6.1,2.3,8.4,0l31.8-31.7c5.9-5.9,13.7-9.1,22-9.1h3.8
	l-40.4-40.3c-12.6-12.6-33-12.6-45.6,0L43.5,65.1H49.8z"/>
<path class="st1" d="M203.3,98.6l-24.4-24.4c-0.5,0.2-1.1,0.4-1.7,0.4H166c-5.7,0-11.4,2.3-15.4,6.4l-31.8,31.7
	c-3,3-6.9,4.5-10.8,4.5c-3.9,0-7.8-1.5-10.8-4.4l-32-31.9c-4.1-4-9.7-6.4-15.4-6.4H36.1c-0.6,0-1.1-0.1-1.6-0.3L10,98.6
	c-12.6,12.6-12.6,32.9,0,45.5l24.5,24.4c0.5-0.2,1.1-0.3,1.6-0.3h13.7c5.7,0,11.4-2.3,15.4-6.4l32-31.8c5.8-5.8,15.8-5.8,21.6,0
	l31.8,31.7c4.1,4,9.7,6.4,15.4,6.4h11.1c0.6,0,1.2,0.1,1.7,0.4l24.4-24.4C215.9,131.5,215.9,111.1,203.3,98.6"/>
<path class="st0" d="M298.1,201c-1.8,0-3.9,0.4-6,0.9v7.9c1.4,0.5,3.1,0.8,4.7,0.8c4,0,5.9-1.3,5.9-4.8
	C302.6,202.5,301.1,201,298.1,201 M290.8,215.7V200h1.1l0.1,0.7c1.8-0.4,4.4-1,6.2-1c1.5,0,2.9,0.2,4.1,1.2c1.4,1.1,1.8,2.9,1.8,4.9
	c0,2.1-0.7,4-2.6,5c-1.3,0.7-3.1,1-4.6,1c-1.6,0-3.2-0.2-4.8-0.7v4.6L290.8,215.7L290.8,215.7z"/>
<path class="st0" d="M314.1,200.9c-4,0-5.8,1.3-5.8,4.8c0,3.5,1.8,4.9,5.8,4.9c4,0,5.8-1.2,5.8-4.7
	C319.8,202.4,318.1,200.9,314.1,200.9z M319.2,210.6c-1.3,1-3.1,1.2-5.1,1.2s-3.9-0.3-5.2-1.2c-1.5-1-2.1-2.7-2.1-4.8
	s0.6-3.8,2.1-4.8c1.3-0.9,3.1-1.2,5.2-1.2c2.1,0,3.8,0.3,5.1,1.2c1.5,1,2,2.8,2,4.8C321.3,207.8,320.7,209.6,319.2,210.6z"/>
<path class="st0" d="M338.1,211.5l-4.4-9.5h-0.1l-4.4,9.5H328l-4.7-11.5h1.5l3.9,9.6h0.1l4.3-9.6h1.2l4.4,9.6h0.1l3.9-9.6h1.4
	l-4.7,11.5H338.1L338.1,211.5z"/>
<path class="st0" d="M352.7,200.9c-3.7,0-4.9,1.6-5.2,4h10.4C357.7,202.3,356.4,200.9,352.7,200.9z M352.6,211.8
	c-2.2,0-3.7-0.3-4.8-1.3c-1.3-1.2-1.8-2.8-1.8-4.8c0-1.9,0.6-3.8,2.1-4.9c1.3-0.9,2.9-1.2,4.5-1.2c1.5,0,3.2,0.2,4.6,1.1
	c1.7,1.1,2,3.1,2,5.3h-11.8c0,2.4,0.8,4.5,5.3,4.5c2.1,0,4.1-0.3,6-0.7v1.2C356.8,211.5,354.7,211.8,352.6,211.8"/>
<path class="st0" d="M363.1,211.5V200h1.1l0.1,0.7c2.4-0.6,3.6-1,5.7-1h0.2v1.3h-0.3c-1.8,0-2.9,0.2-5.4,0.9v9.6L363.1,211.5
	L363.1,211.5z"/>
<path class="st0" d="M378,200.9c-3.7,0-4.9,1.6-5.2,4h10.4C383.1,202.3,381.8,200.9,378,200.9z M378,211.8c-2.2,0-3.7-0.3-4.8-1.3
	c-1.3-1.2-1.8-2.8-1.8-4.8c0-1.9,0.6-3.8,2.1-4.9c1.3-0.9,2.9-1.2,4.5-1.2c1.5,0,3.2,0.2,4.6,1.1c1.7,1.1,2,3.1,2,5.3h-11.8
	c0,2.4,0.8,4.5,5.3,4.5c2.1,0,4.1-0.3,6-0.7v1.2C382.2,211.5,380,211.8,378,211.8"/>
<path class="st0" d="M399.4,201.7c-1.4-0.5-3.1-0.8-4.7-0.8c-4,0-5.9,1.3-5.9,4.8c0,3.3,1.6,4.8,4.6,4.8c1.8,0,3.9-0.4,6-0.9V201.7
	L399.4,201.7z M399.6,211.5l-0.1-0.7c-1.9,0.4-4.4,1-6.2,1c-1.5,0-2.9-0.2-4.1-1.2c-1.4-1.1-1.8-2.9-1.8-4.9c0-2,0.7-4,2.6-5
	c1.3-0.8,3.1-1,4.7-1c1.6,0,3.1,0.3,4.8,0.7v-5.3h1.3v16.3H399.6z"/>
<path class="st0" d="M420.5,201c-1.8,0-3.9,0.4-6,0.9v7.9c1.5,0.5,3.1,0.8,4.7,0.8c4,0,5.9-1.3,5.9-4.8
	C425,202.5,423.5,201,420.5,201z M423.9,210.8c-1.3,0.7-3.1,1-4.6,1c-1.7,0-3.4-0.3-5.2-0.9l-0.1,0.6h-0.9v-16.3h1.3v5.5
	c1.8-0.4,4.3-0.9,6.1-0.9c1.5,0,2.9,0.2,4.1,1.2c1.4,1.1,1.8,2.9,1.8,4.9C426.5,207.8,425.8,209.7,423.9,210.8"/>
<path class="st0" d="M428.3,215.9v-1.2c0.7,0.1,1.3,0.1,1.7,0.1c1.7,0,2.7-0.5,3.6-2.4l0.4-0.9l-6-11.5h1.6l5.2,9.9h0.1l4.9-9.9h1.5
	l-6.5,12.9c-1.2,2.3-2.5,3.1-4.8,3.1C429.4,216,428.8,216,428.3,215.9"/>
<path class="st0" d="M459.8,205h-4.5v4h4.5c3.1,0,4.2-0.3,4.2-2C464,205.2,462.4,205,459.8,205z M458.9,198.4h-3.7v4.1h3.7
	c3,0,4.2-0.4,4.2-2.1C463.2,198.6,461.7,198.4,458.9,198.4 M465.9,210.4c-1.6,1-3.6,1.1-7.3,1.1h-6.8v-15.6h6.7c3.1,0,5,0,6.6,1
	c1.1,0.7,1.6,1.7,1.6,3.1c0,1.6-0.7,2.7-2.5,3.5v0.1c2,0.5,3.3,1.5,3.3,3.7C467.5,208.7,467,209.7,465.9,210.4z"/>
<path class="st0" d="M481.2,206.7c-1.3-0.1-2.7-0.2-4.1-0.2c-2.3,0-3.2,0.5-3.2,1.5c0,1,0.7,1.6,2.5,1.6c1.5,0,3.3-0.3,4.8-0.7
	V206.7z M481.9,211.5l-0.1-0.7c-2,0.5-4.2,1-6.2,1c-1.2,0-2.6-0.2-3.5-0.8c-0.9-0.6-1.3-1.6-1.3-2.8c0-1.3,0.6-2.5,1.9-3.1
	c1.2-0.6,2.8-0.6,4.3-0.6c1.2,0,2.8,0.1,4.2,0.2v-0.2c0-1.8-1.2-2.4-4.4-2.4c-1.3,0-2.8,0.1-4.2,0.2v-2.3c1.6-0.1,3.4-0.2,4.9-0.2
	c2,0,4.1,0.2,5.4,1.1c1.3,0.9,1.6,2.2,1.6,3.9v6.8L481.9,211.5L481.9,211.5z"/>
<path class="st0" d="M499.4,211.5v-6.3c0-2.1-1.1-2.8-3-2.8c-1.4,0-3.2,0.4-4.7,0.7v8.5h-3.2V200h2.6l0.1,0.7c2-0.5,4.3-1,6.2-1
	c1.4,0,2.9,0.2,3.9,1.2c0.9,0.8,1.3,2,1.3,3.6v7H499.4L499.4,211.5z"/>
<path class="st0" d="M511.7,211.8c-1.5,0-3.1-0.2-4.3-1.2c-1.4-1.1-1.8-2.9-1.8-4.9c0-1.8,0.6-3.8,2.3-4.9c1.4-0.9,3.2-1.1,5.1-1.1
	c1.3,0,2.6,0.1,4.1,0.2v2.5c-1.2-0.1-2.6-0.2-3.7-0.2c-3.1,0-4.5,1-4.5,3.6c0,2.5,1.1,3.5,3.6,3.5c1.5,0,3.2-0.3,4.8-0.6v2.4
	C515.5,211.5,513.6,211.8,511.7,211.8"/>
<path class="st0" d="M526.8,202.1c-3.1,0-4.4,1-4.4,3.6c0,2.6,1.3,3.7,4.4,3.7s4.4-0.9,4.4-3.5C531.2,203.3,529.9,202.1,526.8,202.1
	z M532.4,210.6c-1.4,1-3.3,1.2-5.5,1.2s-4.1-0.3-5.5-1.2c-1.6-1-2.2-2.8-2.2-4.8c0-2.1,0.6-3.8,2.2-4.9c1.4-0.9,3.2-1.2,5.5-1.2
	c2.3,0,4.1,0.3,5.5,1.2c1.6,1,2.1,2.8,2.1,4.8C534.5,207.8,533.9,209.6,532.4,210.6z"/>
<path class="st0" d="M553.1,211.8c-1.9,0-4-0.3-5.6-1.6c-1.9-1.6-2.4-3.9-2.4-6.5c0-2.3,0.7-5,3.2-6.6c1.9-1.2,4.2-1.5,6.6-1.5
	c1.7,0,3.5,0.1,5.5,0.3v2.8c-1.7-0.1-3.7-0.2-5.3-0.2c-4.5,0-6.3,1.7-6.3,5.3c0,3.6,1.8,5.3,5,5.3c2.1,0,4.5-0.4,7-0.9v2.8
	C558.2,211.3,555.7,211.9,553.1,211.8"/>
<path class="st0" d="M570,201.8c-2.7,0-3.7,1-3.9,2.7h7.8C573.8,202.6,572.7,201.8,570,201.8 M569.6,211.8c-1.9,0-3.6-0.2-4.9-1.3
	c-1.4-1.1-1.8-2.8-1.8-4.8c0-1.7,0.6-3.7,2.2-4.8c1.4-1,3.2-1.2,5-1.2c1.6,0,3.6,0.2,5,1.2c1.8,1.3,2,3.3,2,5.7h-10.9
	c0.1,1.7,1,2.9,4.2,2.9c2,0,4.2-0.3,6.1-0.6v2.3C574.3,211.5,571.9,211.8,569.6,211.8"/>
<path class="st0" d="M591.4,211.5v-6.3c0-2.1-1.1-2.8-3-2.8c-1.4,0-3.2,0.4-4.7,0.7v8.5h-3.2V200h2.6l0.1,0.7c2-0.5,4.3-1,6.2-1
	c1.4,0,2.9,0.2,3.9,1.2c0.9,0.8,1.3,2,1.3,3.6v7H591.4L591.4,211.5z"/>
<path class="st0" d="M603.7,211.8c-1.6,0-3-0.4-3.7-1.6c-0.6-0.8-0.8-1.9-0.8-3.5v-4.3h-2.3V200h2.3l0.3-3.5h2.9v3.5h4.5v2.4h-4.5
	v3.7c0,0.9,0.1,1.6,0.3,2.2c0.3,0.8,1.1,1.1,2.1,1.1c0.8,0,1.7-0.1,2.3-0.2v2.3C606,211.6,604.8,211.8,603.7,211.8z"/>
<path class="st0" d="M610,211.5V200h2.6l0.1,0.7c2.1-0.6,3.7-1,5.7-1c0.1,0,0.2,0,0.4,0v2.7c-0.4,0-0.8,0-1.1,0
	c-1.6,0-2.8,0.2-4.5,0.6v8.5H610z"/>
<path class="st0" d="M630.6,206.7c-1.3-0.1-2.7-0.2-4.1-0.2c-2.3,0-3.2,0.5-3.2,1.5c0,1,0.7,1.6,2.5,1.6c1.5,0,3.3-0.3,4.8-0.7
	V206.7z M631.3,211.5l-0.1-0.7c-2,0.5-4.2,1-6.3,1c-1.2,0-2.6-0.2-3.5-0.8c-0.9-0.6-1.3-1.6-1.3-2.8c0-1.3,0.6-2.5,1.9-3.1
	c1.2-0.6,2.8-0.6,4.3-0.6c1.2,0,2.8,0.1,4.2,0.2v-0.2c0-1.8-1.2-2.4-4.4-2.4c-1.3,0-2.8,0.1-4.2,0.2v-2.3c1.6-0.1,3.4-0.2,4.9-0.2
	c2,0,4.1,0.2,5.4,1.1c1.3,0.9,1.6,2.2,1.6,3.9v6.8L631.3,211.5L631.3,211.5z"/>
<path class="st0" d="M637.9,195.2h3.2v16.3h-3.2V195.2z"/>
</svg>
