<?xml version="1.0" encoding="UTF-8" standalone="no"?>
<svg
   xmlns:dc="http://purl.org/dc/elements/1.1/"
   xmlns:cc="http://creativecommons.org/ns#"
   xmlns:rdf="http://www.w3.org/1999/02/22-rdf-syntax-ns#"
   xmlns:svg="http://www.w3.org/2000/svg"
   xmlns="http://www.w3.org/2000/svg"
   xmlns:sodipodi="http://sodipodi.sourceforge.net/DTD/sodipodi-0.dtd"
   xmlns:inkscape="http://www.inkscape.org/namespaces/inkscape"
   width="600"
   height="600"
   viewBox="0 0 158.74999 158.75"
   version="1.1"
   id="svg2364"
   inkscape:version="1.0.2 (e86c8708, 2021-01-15)"
   sodipodi:docname="IF.svg">
  <defs
     id="defs2358" />
  <sodipodi:namedview
     showborder="false"
     inkscape:snap-smooth-nodes="true"
     inkscape:snap-bbox-midpoints="true"
     inkscape:snap-bbox-edge-midpoints="true"
     inkscape:bbox-nodes="true"
     inkscape:bbox-paths="true"
     inkscape:snap-bbox="true"
     inkscape:snap-intersection-paths="true"
     inkscape:object-paths="true"
     inkscape:snap-global="true"
     id="base"
     pagecolor="#cccccc"
     bordercolor="#666666"
     borderopacity="1.0"
     inkscape:pageopacity="0"
     inkscape:pageshadow="2"
     inkscape:zoom="0.32472674"
     inkscape:cx="-120.98984"
     inkscape:cy="441.42715"
     inkscape:document-units="px"
     inkscape:current-layer="layer1"
     inkscape:document-rotation="0"
     showgrid="false"
     units="px"
     borderlayer="false"
     inkscape:showpageshadow="false"
     inkscape:window-width="1920"
     inkscape:window-height="1027"
     inkscape:window-x="0"
     inkscape:window-y="25"
     inkscape:window-maximized="1" />
  <metadata
     id="metadata2361">
    <rdf:RDF>
      <cc:Work
         rdf:about="">
        <dc:format>image/svg+xml</dc:format>
        <dc:type
           rdf:resource="http://purl.org/dc/dcmitype/StillImage" />
        <dc:title />
      </cc:Work>
    </rdf:RDF>
  </metadata>
  <g
     inkscape:label="Layer 1"
     inkscape:groupmode="layer"
     id="layer1">
    <path
       d="M 23.812498,-2e-7 H 134.93751 c 13.19212,0 23.8125,10.6203742 23.8125,23.8124952 V 134.9375 c 0,13.19212 -10.62038,23.8125 -23.8125,23.8125 H 23.812498 C 10.620375,158.75 10e-7,148.12962 10e-7,134.9375 V 23.812495 C 10e-7,10.620374 10.620375,-2e-7 23.812498,-2e-7 Z"
       style="fill:#eeac1a;fill-opacity:1;stroke:none;stroke-width:0.340479;font-variation-settings:normal;opacity:1;vector-effect:none;stroke-linecap:butt;stroke-linejoin:miter;stroke-miterlimit:4;stroke-dasharray:none;stroke-dashoffset:0;stroke-opacity:1;stop-color:#000000;stop-opacity:1"
       id="rect578" />
    <g
       transform="translate(-53.43629,25.305771)"
       id="g551" />
    <path
       id="rect1040"
       style="fill:#1a1601;fill-opacity:1;stroke:none;stroke-width:18.0002;stroke-linejoin:round;stroke-opacity:1;paint-order:stroke markers fill;stop-color:#000000"
       d="m 45.185218,36.487191 c -2.688148,0.624382 -4.970681,2.389348 -6.251396,4.833886 V 38.61018 l -6.323234,1.495888 v 17.290925 c 2.261107,-0.893051 4.831944,-0.443976 6.65639,1.162742 V 47.376492 c 0,-2.671699 1.306446,-4.807753 3.233475,-5.225816 1.430564,-0.313549 2.612902,0.195959 2.612902,2.743549 v 16.291492 l 6.662919,-1.561213 V 42.411959 c 0.01957,-4.180653 -1.587345,-7.09405 -6.591056,-5.924768 z m -5.852927,26.867245 c 0.0089,-5.787748 -8.677195,-5.787748 -8.668315,0 V 99.366877 C 30.66396,105.86071 35.928238,111.125 42.422063,111.125 H 54.689671 V 96.100717 79.345431 c 0.0025,-1.89695 -0.943856,-3.669464 -2.521456,-4.722838 L 41.220119,67.162748 v 16.866329 c 0.113188,1.349578 -1.974882,1.349578 -1.861694,0 -0.0066,-0.182907 -0.02613,-18.447144 -0.02613,-20.674641 z M 21.832299,66.633622 V 28.093225 l 7.022187,-1.620006 v 38.540406 l -7.022187,1.659199 z m 1.071287,26.07031 c -2.123431,-0.0036 -3.843915,-1.724083 -3.847509,-3.847514 -0.003,-0.744641 0.212827,-1.473756 0.620573,-2.096846 l 0.0457,-0.07182 9.145174,-2.155655 v 6.885005 l -0.143703,0.03931 c -2.175254,0.522573 -4.572592,1.064753 -5.023317,1.162744 -0.262214,0.05442 -0.529153,0.08287 -0.796947,0.08493 z m 0,-8.825102 c -3.047807,-0.0025 -4.882795,-3.379076 -3.226936,-5.937839 l 0.0457,-0.06522 h 0.07184 l 9.066795,-2.142581 v 6.885025 l -0.143714,0.03921 c -2.057664,0.489923 -4.513796,1.064753 -5.023317,1.162744 -0.260934,0.04523 -0.525653,0.06493 -0.790408,0.05882 z m 0,-8.805506 c -3.052977,-0.0054 -4.887963,-3.389315 -3.226936,-5.950893 l 0.0457,-0.05892 h 0.07184 l 9.066795,-2.142591 v 6.885015 l -0.143714,0.03271 c -2.057664,0.496466 -4.513796,1.058222 -5.023317,1.162754 -0.2602,0.05174 -0.525143,0.07581 -0.790408,0.07182 z M 104.69419,40.145268 c 0,-5.5655 3.26613,-7.322681 8.16534,-9.354222 4.40928,-1.822505 4.50727,-2.730482 4.52687,-4.317827 0,-1.306457 -0.59445,-2.475728 -2.78928,-1.913962 -1.50845,0.302676 -2.60982,1.604291 -2.65865,3.142028 -0.0352,0.410533 -0.0483,0.822667 -0.0391,1.234606 l -6.19261,1.456686 c -0.0419,-1.231565 0.10125,-2.462443 0.42461,-3.651537 0.98637,-3.32492 3.91935,-5.565498 8.9884,-6.73477 6.57801,-1.515494 8.77285,1.37178 8.78591,5.879049 v 10.641063 c 0,5.147436 0.95371,5.879049 0.95371,5.879049 l -6.07501,1.437103 c -0.33613,-0.701698 -0.60937,-1.431819 -0.81653,-2.181783 0,0 -1.30646,3.351053 -5.91824,4.428879 -4.80776,1.130081 -7.35534,-1.855167 -7.35534,-5.944362 z m 12.64649,-7.597041 c -1.02431,0.718653 -2.10576,1.352227 -3.23349,1.894367 -2.02501,0.986368 -2.93952,2.207906 -2.93952,4.089195 0,1.626546 1.00597,2.697832 2.84154,2.240569 1.95968,-0.496454 3.33147,-2.332014 3.33147,-4.879605 z m 9.42607,-2.645564 c -0.24823,-7.316142 1.64612,-13.123339 9.7984,-14.971967 5.22582,-1.182348 7.1855,0.169836 8.1784,1.476293 0.9929,1.306457 1.30646,2.932991 1.30646,5.291139 v 0.431129 l -6.38204,1.515484 v -0.888383 c 0,-2.795817 -0.77081,-3.860575 -2.80234,-3.351065 -2.41694,0.607505 -3.39024,2.900328 -3.39024,7.453327 v 2.122988 c 0,4.631388 0.65322,6.747837 3.41637,6.166465 2.41694,-0.496453 2.74355,-2.612902 2.78275,-4.474607 v -1.228067 l 6.3755,-1.508954 v 0.992907 c 0,6.075008 -3.21388,9.896392 -9.21051,11.294306 -8.198,1.927018 -9.818,-2.82195 -10.07275,-10.320995 z M 68.818932,43.947047 c 0,-4.272109 0.607506,-7.388004 1.913962,-9.798408 1.554673,-2.835007 4.102263,-4.683645 7.838718,-5.532838 7.316153,-1.665724 9.955189,2.665171 9.850676,8.491951 -0.03925,2.077271 0,3.089773 0,3.089773 L 75.501447,43.2285 v 0.228622 c 0,4.056545 0.849193,5.977035 3.422915,5.434852 2.220974,-0.470319 2.841536,-1.861695 3.011371,-3.579686 0,-0.274349 0.04571,-0.986368 0.04571,-0.986368 l 6.035818,-1.443631 v 1.051691 c -0.104534,2.279769 -0.757735,8.015104 -9.132118,9.974783 -7.95631,1.894357 -10.066232,-2.959113 -10.066232,-9.961716 z m 9.994379,-10.830505 c -2.136055,0.483388 -3.266137,2.580241 -3.305325,6.048887 l 6.480015,-1.541628 v -1.045163 c 0,-2.61943 -0.810003,-4.004277 -3.17469,-3.462096 z M 57.759797,58.23313 c 0,0 -1.01903,-1.528561 -1.01903,-6.930741 V 39.348332 l -3.226946,0.764274 v -4.925332 l 3.233474,-0.764286 v -5.369529 l 6.669446,-1.574266 v 5.369516 l 4.709768,-1.117013 V 36.6505 l -4.709768,1.117015 v 12.176161 c 0,5.539366 1.469765,6.597596 1.469765,6.597596 z M 90.806558,50.427062 V 26.407895 l 6.270989,-1.48936 v 3.148557 c 0,0 1.626535,-4.141464 5.389123,-5.101708 0.56288,-0.181921 1.16192,-0.222306 1.74413,-0.11758 v 6.127276 c -1.12043,0.0073 -2.2291,0.229061 -3.26615,0.653222 -2.318958,0.914517 -3.481701,2.913396 -3.481701,5.95744 v 13.260504 l -6.630257,1.541627 z"
       sodipodi:nodetypes="ccccccscsccccsccscccccccssccccccccccccccccccccccccccccccccccccccccccccccsccccccccscscccssccscssccccsccscccccsccccccsscccsccsccccccccccsccccccccccsccc" />
    <path
       d="m 158.75001,119.0625 0,15.875 c 0,13.19212 -10.62038,23.8125 -23.8125,23.8125 H 23.812498 C 10.620375,158.75 1e-6,148.12962 1e-6,134.9375 l 1.9e-12,-15.875 z"
       style="font-variation-settings:normal;vector-effect:none;fill:#888a85;fill-opacity:1;stroke:none;stroke-width:0.340479;stroke-linecap:butt;stroke-linejoin:miter;stroke-miterlimit:4;stroke-dasharray:none;stroke-dashoffset:0;stroke-opacity:1;stop-color:#000000"
       id="rect578-5"
       sodipodi:nodetypes="csssscc" />
    <path
       id="path313"
       style="font-style:normal;font-variant:normal;font-weight:bold;font-stretch:condensed;font-size:25.4px;line-height:1.25;font-family:'Helvetica Neue';-inkscape-font-specification:'Helvetica Neue Bold Condensed';text-align:center;text-anchor:middle;fill:#ffffff;fill-opacity:1;stroke:none;stroke-width:0.264583"
       d="m 123.22863,132.1054 v 13.6652 h 3.5052 v -8.2042 c 0,-0.4572 0.0762,-0.8382 0.2286,-1.143 0.1524,-0.32173 0.3556,-0.57573 0.6096,-0.762 0.254,-0.2032 0.5334,-0.34713 0.8382,-0.4318 0.3048,-0.0847 0.6096,-0.127 0.9144,-0.127 0.18627,0 0.36407,0.008 0.5334,0.0254 0.18627,0 0.37253,0.008 0.5588,0.0254 v -3.3528 c -0.1016,-0.0169 -0.21167,-0.0254 -0.3302,-0.0254 -0.1016,-0.0169 -0.2032,-0.0254 -0.3048,-0.0254 -0.72813,0 -1.3462,0.2032 -1.8542,0.6096 -0.508,0.38947 -0.9398,0.9144 -1.2954,1.5748 h -0.0508 v -1.8288 z m -5.17882,5.2832 h -3.5814 v -0.5334 c 0,-0.32173 0.0254,-0.64347 0.0762,-0.9652 0.0677,-0.32173 0.16933,-0.6096 0.3048,-0.8636 0.13547,-0.27093 0.31327,-0.4826 0.5334,-0.635 0.23707,-0.16933 0.5334,-0.254 0.889,-0.254 0.3556,0 0.64347,0.0762 0.8636,0.2286 0.23707,0.13547 0.41487,0.34713 0.5334,0.635 0.13547,0.27093 0.2286,0.6096 0.2794,1.016 0.0508,0.38947 0.0847,0.84667 0.1016,1.3716 z m -3.5814,2.0828 h 6.9342 v -0.7874 c 0,-1.04987 -0.0677,-1.99813 -0.2032,-2.8448 -0.13547,-0.8636 -0.38947,-1.59173 -0.762,-2.1844 -0.37253,-0.6096 -0.889,-1.07527 -1.5494,-1.397 -0.64347,-0.33867 -1.4732,-0.508 -2.4892,-0.508 -1.18533,0 -2.1336,0.19473 -2.8448,0.5842 -0.7112,0.38947 -1.26153,0.9144 -1.651,1.5748 -0.37253,0.6604 -0.62653,1.41393 -0.762,2.2606 -0.11853,0.84667 -0.1778,1.7272 -0.1778,2.6416 0,0.8636 0.0339,1.7272 0.1016,2.5908 0.0847,0.8636 0.29633,1.64253 0.635,2.3368 0.33867,0.69427 0.8636,1.25307 1.5748,1.6764 0.7112,0.42333 1.7018,0.635 2.9718,0.635 1.6764,0 2.90407,-0.41487 3.683,-1.2446 0.77893,-0.82973 1.20227,-2.04047 1.27,-3.6322 h -3.1496 c -0.1016,0.8636 -0.28787,1.50707 -0.5588,1.9304 -0.27093,0.42333 -0.70273,0.635 -1.2954,0.635 -0.32173,0 -0.59267,-0.0847 -0.8128,-0.254 -0.22013,-0.18627 -0.39793,-0.42333 -0.5334,-0.7112 -0.13547,-0.3048 -0.23707,-0.64347 -0.3048,-1.016 -0.0508,-0.38947 -0.0762,-0.7874 -0.0762,-1.1938 z m -9.77583,-4.9784 v 11.2776 h 3.5052 V 134.493 h 2.032 v -2.3876 h -2.032 v -1.1938 c 0,-0.38947 0.1016,-0.66887 0.3048,-0.8382 0.2032,-0.16933 0.55033,-0.254 1.0414,-0.254 h 0.3302 c 0.1524,0 0.27093,0.008 0.3556,0.0254 v -2.4892 c -0.62653,-0.0508 -1.25307,-0.0762 -1.8796,-0.0762 -0.5588,0 -1.0668,0.0593 -1.524,0.1778 -0.4572,0.1016 -0.84667,0.2794 -1.1684,0.5334 -0.3048,0.254 -0.54187,0.59267 -0.7112,1.016 -0.16933,0.42333 -0.45102,0.97252 -0.254,1.5494 v 1.5494 h -1.778 v 2.3876 z m -9.457919,6.8072 h -3.1496 v 0.4826 c 0,0.6604 0.0762,1.26153 0.2286,1.8034 0.1524,0.52493 0.414867,0.97367 0.7874,1.3462 0.389467,0.37253 0.905933,0.65193 1.5494,0.8382 0.6604,0.18627 1.481667,0.2794 2.4638,0.2794 0.745067,0 1.4224,-0.0762 2.032,-0.2286 0.626533,-0.1524 1.159929,-0.4064 1.600199,-0.762 0.4572,-0.3556 0.8128,-0.79587 1.0668,-1.3208 0.254,-0.54187 0.381,-1.17687 0.381,-1.905 0,-1.03293 -0.2286,-1.84573 -0.6858,-2.4384 -0.4572,-0.6096 -1.23613,-1.10067 -2.336799,-1.4732 l -2.1082,-0.7112 c -0.592667,-0.18627 -0.999067,-0.41487 -1.2192,-0.6858 -0.2032,-0.27093 -0.3048,-0.57573 -0.3048,-0.9144 0,-0.49107 0.160867,-0.85513 0.4826,-1.0922 0.338667,-0.254 0.728133,-0.381 1.1684,-0.381 0.575733,0 0.973667,0.16933 1.1938,0.508 0.237067,0.32173 0.3556,0.8382 0.3556,1.5494 h 3.149599 v -0.5588 c 0,-1.23613 -0.381,-2.19287 -1.143,-2.8702 -0.762,-0.67733 -1.938866,-1.016 -3.530599,-1.016 -0.897467,0 -1.667933,0.11007 -2.3114,0.3302 -0.626533,0.22013 -1.143,0.51647 -1.5494,0.889 -0.4064,0.37253 -0.702733,0.8128 -0.889,1.3208 -0.186267,0.49107 -0.2794,1.016 -0.2794,1.5748 0,0.9652 0.245533,1.76107 0.7366,2.3876 0.491067,0.6096 1.2192,1.08373 2.1844,1.4224 l 2.4638,0.889 c 0.338667,0.13547 0.635,0.32173 0.889,0.5588 0.254,0.22013 0.381,0.55033 0.381,0.9906 0,0.54187 -0.160867,0.94827 -0.4826,1.2192 -0.321733,0.27093 -0.753533,0.4064 -1.2954,0.4064 -0.592667,0 -1.049867,-0.1778 -1.3716,-0.5334 -0.3048,-0.37253 -0.4572,-0.85513 -0.4572,-1.4478 z M 79.96926,132.1054 v 13.6652 h 3.5052 v -9.0678 c 0,-1.50707 0.618067,-2.2606 1.8542,-2.2606 0.524933,0 0.905933,0.14393 1.143,0.4318 0.237067,0.27093 0.315726,0.76312 0.3556,1.4732 v 9.4234 h 3.5052 V 135.636 c 0,-1.3716 -0.3048,-2.3622 -0.9144,-2.9718 -0.592667,-0.6096 -1.4478,-0.9144 -2.5654,-0.9144 -0.762,0 -1.439333,0.16087 -2.032,0.4826 -0.592667,0.3048 -1.075267,0.79587 -1.4478,1.4732 h -0.0508 v -1.6002 z m -5.828507,6.8326 v 2.6924 c 0,0.37253 -0.06773,0.69427 -0.2032,0.9652 -0.135467,0.27093 -0.313267,0.49107 -0.5334,0.6604 -0.2032,0.16933 -0.4318,0.29633 -0.6858,0.381 -0.254,0.0677 -0.499533,0.1016 -0.7366,0.1016 -0.474133,0 -0.8128,-0.18627 -1.016,-0.5588 -0.2032,-0.37253 -0.3048,-0.82127 -0.3048,-1.3462 0,-0.6096 0.1524,-1.0922 0.4572,-1.4478 0.3048,-0.3556 0.8128,-0.6096 1.524,-0.762 0.220133,-0.0508 0.465667,-0.127 0.7366,-0.2286 0.270933,-0.11853 0.524933,-0.27093 0.762,-0.4572 z m -6.4008,-2.6416 h 3.1496 v -0.381 c 0,-0.54187 0.135467,-0.97367 0.4064,-1.2954 0.270933,-0.32173 0.677333,-0.4826 1.2192,-0.4826 0.592667,0 1.007533,0.1524 1.2446,0.4572 0.254,0.28787 0.381,0.69427 0.381,1.2192 0,0.4572 -0.1016,0.80433 -0.3048,1.0414 -0.2032,0.23707 -0.567267,0.42333 -1.0922,0.5588 l -1.9812,0.5334 c -0.6096,0.16933 -1.134533,0.36407 -1.5748,0.5842 -0.423333,0.22013 -0.778933,0.49953 -1.0668,0.8382 -0.270933,0.32173 -0.474133,0.71967 -0.6096,1.1938 -0.135467,0.4572 -0.2032,1.00753 -0.2032,1.651 0,0.4572 0.05927,0.92287 0.1778,1.397 0.118533,0.4572 0.3048,0.87207 0.5588,1.2446 0.254,0.37253 0.592667,0.66887 1.016,0.889 0.423333,0.2032 0.9398,0.3048 1.5494,0.3048 0.846667,0 1.532467,-0.1016 2.0574,-0.3048 0.541867,-0.22013 1.016,-0.6858 1.4224,-1.397 h 0.0508 c 0.0508,0.23707 0.1016,0.4826 0.1524,0.7366 0.06773,0.23707 0.160867,0.46567 0.2794,0.6858 h 3.3528 c -0.169333,-0.4064 -0.287867,-0.7874 -0.3556,-1.143 -0.0508,-0.3556 -0.0762,-0.85513 -0.0762,-1.4986 v -7.1882 c 0,-0.6096 -0.06773,-1.1684 -0.2032,-1.6764 -0.118533,-0.52493 -0.3556,-0.97367 -0.7112,-1.3462 -0.3556,-0.37253 -0.855133,-0.6604 -1.4986,-0.8636 -0.643467,-0.2032 -1.490133,-0.3048 -2.54,-0.3048 -0.6604,0 -1.286933,0.0762 -1.8796,0.2286 -0.575733,0.13547 -1.083733,0.37253 -1.524,0.7112 -0.423333,0.32173 -0.762,0.75353 -1.016,1.2954 -0.254,0.52493 -0.381,1.18533 -0.381,1.9812 z m -8.455044,-4.191 v 13.6652 h 3.5052 v -8.2042 c 0,-0.4572 0.0762,-0.8382 0.2286,-1.143 0.1524,-0.32173 0.3556,-0.57573 0.6096,-0.762 0.254,-0.2032 0.5334,-0.34713 0.8382,-0.4318 0.3048,-0.0847 0.6096,-0.127 0.9144,-0.127 0.186267,0 0.364067,0.008 0.5334,0.0254 0.186267,0 0.372533,0.008 0.5588,0.0254 v -3.3528 c -0.1016,-0.0169 -0.211667,-0.0254 -0.3302,-0.0254 -0.1016,-0.0169 -0.2032,-0.0254 -0.3048,-0.0254 -0.728133,0 -1.3462,0.2032 -1.8542,0.6096 -0.508,0.38947 -0.9398,0.9144 -1.2954,1.5748 h -0.0508 v -1.8288 z M 59.6822,127.635 H 48.099801 v 2.9972 H 52.0622 v 15.1384 h 3.6576 v -15.1384 h 3.9624 z m -10.866306,9.2964 h -7.162799 v 2.9972 h 7.162799 z m -12.819988,0.4572 h -3.5814 v -0.5334 c 0,-0.32173 0.0254,-0.64347 0.0762,-0.9652 0.06773,-0.32173 0.169333,-0.6096 0.3048,-0.8636 0.135467,-0.27093 0.313267,-0.4826 0.5334,-0.635 0.237067,-0.16933 0.5334,-0.254 0.889,-0.254 0.3556,0 0.643467,0.0762 0.8636,0.2286 0.237067,0.13547 0.414867,0.34713 0.5334,0.635 0.135467,0.27093 0.2286,0.6096 0.2794,1.016 0.0508,0.38947 0.08467,0.84667 0.1016,1.3716 z m -3.5814,2.0828 h 6.9342 v -0.7874 c 0,-1.04987 -0.06773,-1.99813 -0.2032,-2.8448 -0.135467,-0.8636 -0.389467,-1.59173 -0.762,-2.1844 -0.372533,-0.6096 -0.889,-1.07527 -1.5494,-1.397 -0.643467,-0.33867 -1.4732,-0.508 -2.4892,-0.508 -1.185333,0 -2.1336,0.19473 -2.8448,0.5842 -0.7112,0.38947 -1.261533,0.9144 -1.651,1.5748 -0.372533,0.6604 -0.626533,1.41393 -0.762,2.2606 -0.118533,0.84667 -0.1778,1.7272 -0.1778,2.6416 0,0.8636 0.03387,1.7272 0.1016,2.5908 0.08467,0.8636 0.296333,1.64253 0.635,2.3368 0.338667,0.69427 0.8636,1.25307 1.5748,1.6764 0.7112,0.42333 1.7018,0.635 2.9718,0.635 1.6764,0 2.904067,-0.41487 3.683,-1.2446 0.778933,-0.82973 1.202267,-2.04047 1.27,-3.6322 h -3.1496 c -0.1016,0.8636 -0.287867,1.50707 -0.5588,1.9304 -0.270933,0.42333 -0.702733,0.635 -1.2954,0.635 -0.321733,0 -0.592667,-0.0847 -0.8128,-0.254 -0.220133,-0.18627 -0.397933,-0.42333 -0.5334,-0.7112 -0.135467,-0.3048 -0.237067,-0.64347 -0.3048,-1.016 -0.0508,-0.38947 -0.0762,-0.7874 -0.0762,-1.1938 z"
       sodipodi:nodetypes="cccsccssccccscccccccscccsccccccscccssccscssssccsscccsccccccccssssccsccssccccccscccscccsccccscscccssscscsccccssscsccccsscsccscsccccccssccsssscccccssscsscccccscscscccccccsscssscccsccccsccssccccscccccccccccccccccccccscccsccccccscccssccscssssccsscccsc" />
  </g>
</svg>
