<?xml version="1.0" encoding="UTF-8" standalone="no"?>
<svg
   xmlns:dc="http://purl.org/dc/elements/1.1/"
   xmlns:cc="http://creativecommons.org/ns#"
   xmlns:rdf="http://www.w3.org/1999/02/22-rdf-syntax-ns#"
   xmlns:svg="http://www.w3.org/2000/svg"
   xmlns="http://www.w3.org/2000/svg"
   xmlns:sodipodi="http://sodipodi.sourceforge.net/DTD/sodipodi-0.dtd"
   xmlns:inkscape="http://www.inkscape.org/namespaces/inkscape"
   width="600"
   height="600"
   viewBox="0 0 158.74999 158.75"
   version="1.1"
   id="svg2364"
   inkscape:version="1.0 (4035a4f, 2020-05-01)"
   sodipodi:docname="Interac.svg">
  <defs
     id="defs2358" />
  <sodipodi:namedview
     showborder="false"
     inkscape:snap-smooth-nodes="true"
     inkscape:snap-bbox-midpoints="true"
     inkscape:snap-bbox-edge-midpoints="true"
     inkscape:bbox-nodes="true"
     inkscape:bbox-paths="true"
     inkscape:snap-bbox="true"
     inkscape:snap-intersection-paths="true"
     inkscape:object-paths="true"
     inkscape:snap-global="true"
     id="base"
     pagecolor="#cccccc"
     bordercolor="#666666"
     borderopacity="1.0"
     inkscape:pageopacity="0"
     inkscape:pageshadow="2"
     inkscape:zoom="0.45923296"
     inkscape:cx="143.25563"
     inkscape:cy="271.98868"
     inkscape:document-units="px"
     inkscape:current-layer="layer1"
     inkscape:document-rotation="0"
     showgrid="false"
     units="px"
     borderlayer="false"
     inkscape:showpageshadow="false"
     inkscape:window-width="1393"
     inkscape:window-height="847"
     inkscape:window-x="0"
     inkscape:window-y="25"
     inkscape:window-maximized="1" />
  <metadata
     id="metadata2361">
    <rdf:RDF>
      <cc:Work
         rdf:about="">
        <dc:format>image/svg+xml</dc:format>
        <dc:type
           rdf:resource="http://purl.org/dc/dcmitype/StillImage" />
        <dc:title></dc:title>
      </cc:Work>
    </rdf:RDF>
  </metadata>
  <g
     inkscape:label="Layer 1"
     inkscape:groupmode="layer"
     id="layer1">
    <path
       d="M 23.812498,-2e-7 H 134.93751 c 13.19212,0 23.8125,10.6203742 23.8125,23.8124952 V 134.9375 c 0,13.19212 -10.62038,23.8125 -23.8125,23.8125 H 23.812498 C 10.620375,158.75 10e-7,148.12962 10e-7,134.9375 V 23.812495 C 10e-7,10.620374 10.620375,-2e-7 23.812498,-2e-7 Z"
       style="fill:#eeac1a;fill-opacity:1;stroke:none;stroke-width:0.340479;font-variation-settings:normal;opacity:1;vector-effect:none;stroke-linecap:butt;stroke-linejoin:miter;stroke-miterlimit:4;stroke-dasharray:none;stroke-dashoffset:0;stroke-opacity:1;stop-color:#000000;stop-opacity:1"
       id="rect578" />
    <g
       transform="translate(-53.43629,25.305771)"
       id="g551" />
    <path
       id="rect1040"
       style="fill:#1a1601;fill-opacity:1;stroke:none;stroke-width:18.0002;stroke-linejoin:round;stroke-opacity:1;paint-order:stroke markers fill;stop-color:#000000"
       d="m 145.10019,29.409059 h 2.03104 a 1.3291392,1.3291392 0 0 1 1.49342,1.493418 c 0,0.746714 -0.32856,1.321675 -0.9558,1.418745 v 0 c 0.5675,0.05975 0.86619,0.373358 0.89606,1.179795 0,0.365895 0,0.813912 0,1.16487 a 0.58989884,0.58989884 0 0 0 0.26881,0.500289 h -1.03792 a 0.95578549,0.95578549 0 0 1 -0.15681,-0.507764 c 0,-0.343483 0,-0.664568 -0.0374,-1.082724 0,-0.627233 -0.20908,-0.903507 -0.83631,-0.903507 h -0.74672 v 2.493995 h -0.91844 z m 1.65022,2.591078 a 0.84377937,0.84377937 0 0 0 0.91844,-0.933381 c 0,-0.612296 -0.26133,-0.933381 -0.86617,-0.933381 h -0.74671 v 1.866762 z m 0.0673,4.913332 a 4.7042567,4.7042567 0 1 1 4.70426,-4.704254 4.7117236,4.7117236 0 0 1 -4.70426,4.704254 z m 0,-8.81861 a 4.114358,4.114358 0 1 0 4.11437,4.114356 4.1218249,4.1218249 0 0 0 -4.11437,-4.114356 z M 36.170512,65.10168 a 10.834724,10.834724 0 0 0 -7.146002,5.52564 v -3.098841 l -7.228122,1.709957 v 19.765345 a 7.3998703,7.3998703 0 0 1 7.608954,1.329137 V 77.549295 c 0,-3.054032 1.493405,-5.495767 3.696201,-5.973657 1.635286,-0.35842 2.986822,0.224002 2.986822,3.136165 V 93.33469 l 7.616417,-1.784629 V 71.874312 c 0.02237,-4.778926 -1.814502,-8.109244 -7.53427,-6.772632 z m -6.690511,30.712081 a 4.9544036,4.9544036 0 1 0 -9.908796,0 v 41.165979 a 13.440734,13.440734 0 0 0 13.44073,13.44073 h 14.023166 v -17.17428 c 0,-9.3861 0,-18.93649 0,-19.15304 a 6.4814203,6.4814203 0 0 0 -2.88229,-5.3987 l -12.514824,-8.52739 c 0,0 0,18.42874 0,19.27999 a 1.0677916,1.0677916 0 1 1 -2.128112,0 c -0.0075,-0.20908 -0.02987,-21.087022 -0.02987,-23.633289 z M 9.4757174,99.562222 V 55.506494 l 8.0270976,-1.851838 v 44.05574 L 9.4757174,99.607032 Z M 10.70031,129.36332 a 4.4055738,4.4055738 0 0 1 -4.3981058,-4.39811 4.3458369,4.3458369 0 0 1 0.7093791,-2.39692 l 0.052248,-0.0821 10.4538957,-2.46413 v 7.87028 l -0.164268,0.0449 c -2.486545,0.59736 -5.226954,1.21713 -5.74218,1.32914 a 4.6594543,4.6594543 0 0 1 -0.910994,0.0971 z m 0,-10.08802 a 4.3981066,4.3981066 0 0 1 -3.6887267,-6.78757 l 0.052248,-0.0746 h 0.082121 l 10.3642997,-2.44919 v 7.8703 l -0.16428,0.0448 c -2.352127,0.56004 -5.159745,1.21713 -5.74218,1.32914 a 4.6594543,4.6594543 0 0 1 -0.90352,0.0672 z m 0,-10.06562 a 4.4055738,4.4055738 0 0 1 -3.6887267,-6.80249 l 0.052248,-0.0673 h 0.082121 L 17.510252,99.890681 v 7.870289 l -0.16428,0.0374 c -2.352127,0.56751 -5.159745,1.20966 -5.74218,1.32915 a 4.3010348,4.3010348 0 0 1 -0.90352,0.0821 z m 93.49524,-39.926434 c 0,-6.361951 3.73354,-8.370594 9.33385,-10.692859 5.04027,-2.083315 5.15228,-3.121229 5.17468,-4.935731 0,-1.493417 -0.67951,-2.830017 -3.18844,-2.187859 a 3.7858065,3.7858065 0 0 0 -3.03911,3.591668 13.097248,13.097248 0 0 0 -0.0447,1.411284 l -7.0788,1.665146 a 14.082903,14.082903 0 0 1 0.48537,-4.174091 c 1.12752,-3.800733 4.48024,-6.36195 10.27469,-7.69855 7.51935,-1.732368 10.02828,1.568089 10.04322,6.720371 v 12.163853 c 0,5.884061 1.09019,6.720372 1.09019,6.720372 l -6.94438,1.64276 a 15.046155,15.046155 0 0 1 -0.93338,-2.494008 c 0,0 -1.49342,3.830607 -6.76517,5.062674 -5.49577,1.291802 -8.40793,-2.12065 -8.40793,-6.79503 z m 14.45626,-8.684216 a 26.201964,26.201964 0 0 1 -3.6962,2.16546 c -2.3148,1.127522 -3.36018,2.523869 -3.36018,4.67438 0,1.859313 1.14992,3.083905 3.24817,2.561205 2.24012,-0.567498 3.80821,-2.665737 3.80821,-5.5779 z m 10.77499,-3.024158 c -0.28375,-8.363119 1.8817,-15.001357 11.20061,-17.114533 5.97366,-1.351548 8.21378,0.194141 9.34877,1.687559 1.135,1.493417 1.49342,3.352717 1.49342,6.048328 v 0.492826 l -7.29533,1.732356 c 0,0 0,-0.985653 0,-1.015514 0,-3.195913 -0.88112,-4.413043 -3.20338,-3.83062 -2.76282,0.694442 -3.87541,3.315381 -3.87541,8.519937 0,1.851837 0,2.180384 0,2.426798 0,5.294163 0.74671,7.713487 3.90528,7.048918 2.76282,-0.567498 3.13617,-2.986822 3.18097,-5.114947 0,-0.336021 0,-1.403809 0,-1.403809 l 7.28787,-1.724893 c 0,0 0,0.537624 0,1.134996 0,6.944374 -3.6738,11.312618 -10.52858,12.91058 -9.37117,2.202784 -11.22301,-3.225785 -11.51422,-11.797982 z M 63.186378,73.629079 c 0,-4.88347 0.694443,-8.445265 2.18786,-11.20061 1.777154,-3.240711 4.689317,-5.353899 8.960478,-6.324615 8.363132,-1.904098 11.379827,3.046569 11.260358,9.707193 -0.04487,2.374538 0,3.531934 0,3.531934 l -14.76988,3.464724 v 0.261338 c 0,4.637057 0.970717,6.832379 3.912753,6.212608 2.538806,-0.537625 3.248173,-2.128113 3.442313,-4.091958 0,-0.31361 0.05225,-1.127522 0.05225,-1.127522 l 6.899575,-1.650222 c 0,0 0,0.567498 0,1.202193 -0.119494,2.606015 -0.866171,9.162107 -10.438971,11.402226 C 65.598215,87.181817 63.186353,81.63379 63.186353,73.629079 Z M 74.611003,61.248674 c -2.441735,0.552562 -3.733537,2.949486 -3.778334,6.914512 l 7.407339,-1.762242 c 0,-0.179204 0,-0.57496 0,-1.194731 0,-2.994284 -0.925919,-4.57731 -3.629005,-3.957539 z m -24.06638,28.710899 c 0,0 -1.164858,-1.747305 -1.164858,-7.922564 V 68.372264 l -3.688739,0.873646 v -5.630172 l 3.696201,-0.873659 v -6.137936 l 7.623879,-1.799553 v 6.137923 l 5.383759,-1.276865 v 5.622711 l -5.383759,1.276865 c 0,0 0,11.200611 0,13.918633 0,6.332077 1.680096,7.541745 1.680096,7.541745 z M 88.320546,81.036418 V 53.579985 l 7.1684,-1.702495 v 3.599131 c 0,0 1.8593,-4.734128 6.160334,-5.831789 a 4.114358,4.114358 0 0 1 1.99371,-0.134406 v 7.004121 a 10.035748,10.035748 0 0 0 -3.733539,0.746702 c -2.650813,1.045388 -3.979951,3.330318 -3.979951,6.80998 v 15.158149 l -7.579081,1.762242 z" />
  </g>
</svg>
