<?xml version="1.0" encoding="UTF-8"?>
<svg width="230px" height="230px" viewBox="0 0 230 230" version="1.1" xmlns="http://www.w3.org/2000/svg" xmlns:xlink="http://www.w3.org/1999/xlink">
    <!-- Generator: Sketch 46.2 (44496) - http://www.bohemiancoding.com/sketch -->
    <title>OX</title>
    <desc>Created with Sketch.</desc>
    <defs></defs>
    <g id="Page-1" stroke="none" stroke-width="1" fill="none" fill-rule="evenodd">
        <g id="OX">
            <g id="Group-2">
                <rect id="Rectangle" fill="#C81C1F" x="0" y="0" width="230" height="230" rx="5"></rect>
                <rect id="Rectangle" fill="#FFFFFF" x="8" y="66" width="213" height="103" rx="9"></rect>
                <path d="M13,76.3500654 C13,72.8570653 15.8577574,70 19.3527645,70 L210.647236,70 C214.141082,70 217,72.8570653 217,76.3500654 L217,157.648774 C217,161.142935 214.141082,164 210.647236,164 L19.3527645,164 C15.8589181,164 13,161.142935 13,157.648774 L13,76.3500654 Z" id="Shape" fill="#DBA33C" fill-rule="nonzero"></path>
                <polygon id="Shape" fill="#FFFFFF" fill-rule="nonzero" points="11 79 218 79 218 154 11 154"></polygon>
                <path d="M185.111056,98 C175.805588,98 168.219798,105.636052 168.219798,115.001747 C168.219798,124.362783 175.805588,132 185.111056,132 C194.414209,132 202,124.362783 202,115.001747 C202,105.636052 194.414209,98 185.111056,98 Z M45.8924156,98 C36.5857905,98 29,105.636052 29,115.001747 C29,124.362783 36.5869478,132 45.8924156,132 C55.1944117,132 62.7813595,124.362783 62.7813595,115.001747 C62.7813595,105.636052 55.1944117,98 45.8924156,98 Z" id="Shape" fill="#CC2229" fill-rule="nonzero"></path>
                <path d="M184.556772,84.0094024 C168.87259,83.6492031 161.500606,93.6849812 150.797243,106.061476 L140.704439,117.734945 L156.689258,136.828982 C160.495388,142.695251 153.227873,148.518666 148.718322,143.150422 L133.939532,125.559724 L119.53915,142.218074 C114.951828,147.5203 107.766727,141.59728 111.656432,135.784288 L127.290702,117.644605 L117.04816,105.453422 L123.636631,97.3112964 L134.054448,109.796661 L143.034083,99.3740455 C147.439165,94.2640798 151.932465,87.4932594 157.757157,84.0105606 L13,84.0105606 L13,150 L46.8442648,150 C62.5296079,150 69.6497067,140.641767 80.0617194,128.02321 L89.8852271,116.116943 L73.4593194,97.397003 C69.5197016,91.6187575 76.6502472,85.6320366 81.2839992,90.8948843 L96.4644119,108.142756 L110.481744,91.1566369 C114.942542,85.7478563 122.262292,91.5075706 118.510717,97.4074268 L103.295482,115.903835 L113.817766,127.856429 L107.187508,135.690475 L96.7139752,123.903502 L87.97926,134.527645 C83.6914144,139.737215 79.3513346,146.381792 73.6090573,149.997684 L217,149.997684 L217,84.0094024 L184.556772,84.0094024 L184.556772,84.0094024 Z M73.0089447,115.792648 C73.0089447,130.50291 60.9869585,142.499515 46.2441521,142.499515 C31.4978634,142.499515 19.4758773,130.504068 19.4758773,115.792648 C19.4758773,101.078912 31.4967026,89.083464 46.2441521,89.083464 C60.9869585,89.083464 73.0089447,101.078912 73.0089447,115.792648 Z M185.884681,142.499515 C171.141874,142.499515 159.116406,130.504068 159.116406,115.792648 C159.116406,101.078912 171.140714,89.083464 185.884681,89.083464 C200.629809,89.083464 212.650634,101.078912 212.650634,115.792648 C212.650634,130.50291 200.629809,142.499515 185.884681,142.499515 Z" id="Shape" fill="#CC2229" fill-rule="nonzero"></path>
            </g>
        </g>
    </g>
</svg>