<?xml version="1.0" encoding="utf-8"?>
<!-- Generator: Adobe Illustrator 22.1.0, SVG Export Plug-In . SVG Version: 6.00 Build 0)  -->
<svg version="1.1" id="Capa_1" xmlns="http://www.w3.org/2000/svg" xmlns:xlink="http://www.w3.org/1999/xlink" x="0px" y="0px"
	 viewBox="0 0 200 200" style="enable-background:new 0 0 200 200;" xml:space="preserve">
<style type="text/css">
	.st0{fill:#2D3153;}
	.st1{fill:#C4AD71;}
</style>
<path class="st0" d="M188,200H12c-6.6,0-12-5.4-12-12V12C0,5.4,5.4,0,12,0h176c6.6,0,12,5.4,12,12v176C200,194.6,194.6,200,188,200z
	"/>
<g>
	<g>
		<path class="st1" d="M110.3,16.6c-4.2-1.4-7.3-3.2-9.5-5.3c-2.3,2.2-5.6,3.9-10.1,5.3l-12.3,3.2c-2.2,0.7-4.6,1.5-7,2.6
			c-1.7,0.8-3.8,1.8-6.4,3.2l-2.4,1.3c-1.1,0.6-1.8,1.2-2.1,1.6c-0.4,0.5-0.5,1-0.3,1.5l0.9,1.8c0.7,1.4,1,2.5,0.9,3
			c-0.1,0.2-0.4,0.5-1,1l-1.3,0.9c-2,1.5-3.4,2.7-4.3,3.6c-1.7,1.7-2.7,3.3-3,4.8c-0.2,1.4,0.1,3.1,0.9,5.3c0.5,1.4,1.5,3.4,2.9,5.9
			c1.5,2.8,2.5,4.6,2.9,5.6c0.8,1.8,1,3.2,0.8,4.1c-0.1,0.4-0.6,1-1.5,1.7l-1.8,1.6c-1.6,2.1-3,4.3-4.1,6.6c-1.4,2.8-2.2,5.5-2.5,8
			c-0.3,2.7-0.2,5.6,0.4,8.7c0.4,2,1,4.3,2,7.1c1.9,5.5,4.7,10.2,8.3,14.4c3,3.3,7,6.6,11.8,9.7l13.5,7.9c5.6,3.2,10.2,6.2,13.5,8.8
			c1.4-1.3,3.2-2.5,5.4-3.7l6.1-3.1l11.9-6.7c4.4-2.5,8-5,10.8-7.3c3.6-3,6.5-6.1,8.8-9.5c2.6-3.8,4.5-8.1,5.8-12.9
			c1.4-4.9,1.6-9.6,0.7-14.2c-0.8-4.2-2.4-8-4.9-11.7l-2.1-2.2c-1.1-1-1.6-1.8-1.6-2.4c-0.1-0.5,0.3-1.5,1.1-3.1l2.6-4.9
			c2.6-5,3.9-8.7,4.2-11.2c0.1-1.9-1.4-4.3-4.6-7.2l-3.4-2.9c-1-0.9-1.5-1.4-1.5-1.5c-0.1-0.7,0.7-2.7,2.1-5.8
			C136.4,26,130,22.5,121.7,20l-5.8-1.6C113.5,17.6,111.7,17.1,110.3,16.6z M108.1,19.5c1.5,0.5,3.7,1.2,6.6,2l6.4,1.9
			c3.9,1.3,7.7,3,11.5,5.1l2.5,1.3c1.2,0.7,1.7,1.2,1.7,1.8c0,0.5-0.3,1.4-0.9,2.6l-1.3,2.8l6.2,5.2c2.8,2.5,4.2,4.2,4.2,5.1
			c0,1.6-1.3,5-3.9,10.3L136,67.7c2.5,2.4,4.4,4.4,5.7,6.2c2,2.6,3.3,5.2,3.9,7.9c1.8,7,1,14-2.3,21.1c-1.3,2.9-3.1,5.7-5.1,8.3
			c-1.9,2.3-3.8,4.3-5.9,6c-2.6,2.1-5.9,4.2-9.8,6.4l-13.2,7l-3.9,2.4c-3.6,2-5.6,3.1-6,3c-0.6-0.1-1.5-0.6-2.7-1.8
			c-1.5-1.3-2.4-2-2.7-2.2c-1.5-0.9-4.2-2.2-7.8-4.1c-3.5-1.8-6.1-3.2-7.9-4.2c-6-3.4-10.5-6.9-13.6-10.5c-1.9-2.2-3.6-4.7-5.1-7.3
			c-1.8-3.1-3.1-6.2-4.1-9.4c-2.4-7.8-1.9-14.8,1.5-20.8c0.8-1.5,2.1-3.1,3.6-4.8l4.3-4.1c-0.5-1.6-1.2-3.5-2.2-5.5L58,51.9
			c-0.9-1.7-1.4-3.1-1.6-4.3c-0.3-2.2,0.8-4.4,3.5-6.5l3.4-2.3c1.3-0.8,2.2-1.5,2.7-2c0.8-0.8,0.9-1.7,0.4-2.8
			c-0.2-0.4-0.4-0.9-0.8-1.4l-0.9-1.2c-0.2-0.4-0.2-0.9,0-1.6c5.7-3.6,11.6-6.1,17.7-7.8l9.7-2.6c3.6-1,6.4-2.4,8.4-3.8l3.7,2.1
			C105.6,18.5,106.9,19.1,108.1,19.5z"/>
		<g>
			<path class="st1" d="M106.9,40.4c0.9-0.5,2-1,3.2-1.5l2.3-0.9c0.5-0.2,0.8-0.3,0.9-0.4c0.3-0.3,0.4-0.5,0.3-0.7l-2.2-0.1
				c-0.7,0.1-2.1,0.5-4.4,1.4c-2.1,0.7-3.7,1.1-4.9,1.1c-2,0-4.4-0.3-7.1-1l-3.7-1c-0.2,0.1-0.4,0.2-0.5,0.4
				c-0.1,0.3-0.1,0.5,0.3,0.8l1.8,0.7c1.2,0.5,2.2,1.1,3,1.9l0.9,0.8l0.7,0.7l0.3,0.5c0.1,0.3,0.1,0.4-0.1,0.5L95.8,44
				c-1.1,0.5-1.9,1.3-2.6,2.2l-0.3,0.2l-0.4-0.1L91,44.8c-0.7-0.6-1.4-0.9-2.2-1.1c-1-0.2-1.9-0.1-2.7,0.4c-0.9,0.5-1.5,1.3-1.8,2.4
				c-0.2,0.6-0.1,1.3,0.1,1.9c0.3,0.7,0.5,1.1,0.9,1.4c0.3,0.2,0.9,0.4,1.8,0.4c0.2-0.1,0.3-0.3,0.2-0.5l-0.5-1.3
				c-0.1-0.3,0-0.5,0.2-0.8c0.2-0.4,0.5-0.6,1-0.7l1.3,0.2c0.5,0.2,0.9,0.5,1.3,0.9c0.3,0.4,0.5,0.8,0.7,1.3c0.1,0.4,0,0.7-0.2,0.9
				s-0.7,0.5-1.5,1L88,52.6c-1.6,1.4-2.5,3.7-2.6,6.8c0,1.5,0.4,2.9,1.3,4.3c0.7,1.2,1.7,2.2,2.8,3l1.3,0.5c0.6,0.3,0.9,0.5,0.9,0.8
				v19.6c-1.5-0.8-2.8-2.1-3.9-3.9l-1.3-2.5c-0.5-1.1-1-2-1.4-2.6c-0.4-0.7-0.9-1.3-1.4-1.8s-0.9-0.8-1.2-0.7L82,76.3
				c-0.1,0.2-0.1,0.4,0.1,0.7c0.5,0.7,0.8,1.5,1.1,2.5c0.3,1,0.4,1.9,0.3,2.7c-0.1,1.2-0.4,2.5-1.2,3.8c-0.6,1.2-1.3,2.1-2.1,2.8
				c0,0.2,0.1,0.3,0.2,0.4l0.4,0.1l1.8-0.9c0.7-0.4,1.3-0.6,1.8-0.6c1.4,0.1,2.6,0.3,3.5,0.8c1,0.5,1.9,1.5,2.7,2.8
				c0.2,0.5,0.3,1,0.2,1.7c-0.1,0.7-0.4,1.2-0.8,1.3c-1.3,0.4-2.1,0.3-2.7-0.4c-0.2-0.2-0.3-0.5-0.3-0.8s0.1-0.6,0.3-0.8
				c0.3-0.4,0.4-0.6,0.4-0.7l-0.2-0.2c0-0.2-0.2-0.2-0.5-0.1l-0.7,0.2c-0.8,0.4-1.3,1-1.4,1.9c-0.2,0.9-0.1,1.6,0.4,2.4
				s1.3,1.3,2.4,1.5c1.2,0.2,2.6,0,4.3-0.7c0.7,1.2,1.5,2.1,2.2,2.8c0.8,0.7,1.9,1.3,3.3,1.9c0.3,0.3,0.3,0.7,0.1,1.3
				c-0.5,1.3-1.4,2.2-2.4,2.9c-0.9,0.6-1.9,0.9-2.9,0.9c-1,0.1-1.8-0.2-2.4-0.7s-0.9-1.2-0.8-2l0.2-0.9c0.2-0.4,0.4-0.6,0.8-0.7
				c1-0.4,1.1-0.8,0.3-1.4c-1.4-0.5-2.5-0.1-3.3,1c-0.5,0.6-0.8,1.4-0.8,2.4c-0.1,1,0.2,1.9,0.7,2.6c0.7,1.2,1.9,1.9,3.5,2.2
				l3.8-0.1c1.2-0.3,2.2-1,3.3-2l1-1c0.4-0.4,0.7-0.6,0.9-0.7l3.5,3c1.3,1,2.5,1.5,3.6,1.6c0.4,0,0.8-0.1,1.1-0.3l-3.6-3.3
				c-1.2-1.5-1.8-3.2-1.8-5.1c0.7-0.3,1.3-0.5,1.9-0.7l1.5-0.4l1.3-0.8l1.2-0.9c1.2-1,2.2-2.2,2.9-3.8c0.4-1,0.9-2.4,1.4-4.1l2-2
				c1.4-1.4,2.2-2.6,2.6-3.7c0.9-2.5,1.1-4.9,0.8-7.1c-0.3-2.1-1-4-2.3-5.6c-1.5-1.9-3.5-3.4-6.2-4.7l1.9-5.4
				c0.2-0.8,0.3-1.6,0.4-2.6l0.2-2.9c0.4,0.1,0.9,0.3,1.3,0.6l1,0.8c0.3,0.2,0.5,0.2,0.7,0.2l0.4-0.1l-1.6-2.6
				c-0.4-0.8-0.7-1.4-0.8-2.1c-0.3-1.2-0.3-3.2,0.1-5.9c-0.1,0.1-0.2,0.1-0.3,0l-0.3-0.1l-1.2,1.3c-0.4,0.4-0.9,0.6-1.3,0.5
				c-0.3-0.1-0.7-0.4-1.2-1.1l-1.3-1.8l-3.3-2.2C103,43.1,103.9,42,106.9,40.4z M104,47.1l0.8,0.7c0.2,0.1,0.2,0.4,0,0.8h-0.4
				l-1.5-0.3c-0.1-0.1-0.1-0.3-0.2-0.6c0-0.4,0.1-0.7,0.2-0.8C103.1,46.6,103.4,46.7,104,47.1z M104.2,51.6c0.3,0,0.8,0.2,1.5,0.6
				l1.6,1.2c0.7,0.6,1,1.6,1.2,3c0.2,1.3,0.1,2.6-0.2,4.2c-0.2,1.5-0.7,2.7-1.2,3.8c-0.5,1.2-1.2,1.8-1.9,2l-1.5-0.1l-1.3-0.4v-14
				C102.5,51.7,103,51.6,104.2,51.6z M102.2,74.7c0.8-0.2,1.8,0.2,2.7,1c1,0.9,1.9,2,2.6,3.5c0.8,1.5,1.3,3,1.5,4.5
				c0.2,1.7,0.1,3.1-0.5,4.3c-0.3,0.7-1.1,1.2-2.2,1.6c-1.2,0.3-2.6,0.5-4.3,0.3L102.2,74.7z M105.3,71.7c0.2-0.6,0.4-1,0.5-1.1
				l0.9-0.4c1.9,0.5,3.6,1.5,4.9,2.7c1.4,1.4,2.4,3,2.8,4.8c0.4,1.5,0.4,3.1-0.1,4.5c-0.4,1.5-1,2.3-1.8,2.4c-0.3-0.9-0.6-2-0.8-3
				l-0.5-2.4c-0.4-1.3-1.3-2.7-2.4-4.1C107.8,73.6,106.6,72.4,105.3,71.7z M95.7,48c-0.1-0.3,0.2-0.7,0.6-1.2c0.5-0.4,1-0.7,1.5-0.7
				h0.7c0.2,0.1,0.2,0.1,0.3,0.3c0.1,0.4,0.2,0.7,0.2,1c-0.1,0.4-0.2,0.6-0.5,0.6L95.7,48z M90.7,54.7c0.4-0.1,0.7,0,0.8,0.3
				c0.2,1,0.2,3.2,0.1,6.5l-0.1,1.3c-0.1,0.2-0.2,0.3-0.5,0.3c-0.7-0.1-1.2-0.4-1.6-1c-0.5-0.8-0.8-1.9-0.8-3.2c0-1.1,0.3-2.1,1-3
				C90.1,55.2,90.5,54.8,90.7,54.7z M95.2,68.8l1.8,0.1c0.8,0,1.3,0.1,1.5,0.3c0.2,0.2,0.2,0.5,0.1,0.7L97.4,70h-2.2
				C95.2,69.8,95.3,69.4,95.2,68.8z M96.7,73.2c0.7,0,1.4,0.2,2,0.7V90c0,0.2-0.2,0.3-0.6,0.3l-1.3-0.2c-1.3-0.4-1.9-0.9-1.9-1.4
				V73.3L96.7,73.2z M98.6,94.7c0.1,0.3,0.2,0.8,0.2,1.2c0,1.1-0.3,1.7-0.8,1.7c-0.5,0.1-1.1-0.2-1.8-0.8c-0.8-0.8-1.2-1.9-1-3.3
				c1.4,0.1,2.4,0.3,3.2,0.7C98.5,94.1,98.6,94.3,98.6,94.7z M95.1,52.4c0-0.3,0.7-0.6,2-0.7l1.9,0.1l0.1,10c0,1.3-0.1,2.4-0.2,3.3
				l-1.4,0.2c-0.8-0.1-1.5-0.3-2.2-0.6L95.1,52.4z M107.4,93.7c-0.1,0.4-0.5,0.9-1,1.5l-1.8,1.5c-0.8,0.5-1.3,0.8-1.8,0.8
				s-0.8-0.4-0.8-1.3c0-0.4,0.1-1.3,0.2-2.4l4.5-0.7C107.3,93.1,107.6,93.3,107.4,93.7z"/>
		</g>
		<g>
			<path class="st1" d="M139.8,95.2c-0.2,0.1-0.2,0.2,0.1,0.2L139.8,95.2z"/>
			<path class="st1" d="M126.9,31.7c-0.7-0.7-1.3-0.9-1.9-0.9c-0.5,0.1-0.9,0.3-1.3,0.6l-1.3,2c-0.2,0.1-0.5-0.3-1.1-1l-1.8-2.1
				c-0.8-0.8-1.9-1.8-3.3-2.7l-3.7-2.4c-2.7-1.5-5.3-2-7.7-1.6l-1.1,0.4c-0.5,0.2-0.9,0.3-1.2,0.2c-0.2-0.1-0.5-0.4-0.9-1.3
				l-0.7-1.5l-0.4,1.2c-0.4,0.8-0.7,1.4-1,1.6l-2.7-0.7L94,23.3c-2.1,0.2-4.4,1-7.2,2.6c-1.6,1-3.4,2.4-5.3,4.2l-1.6,1.6
				c-0.5,0.4-0.8,0.7-0.9,0.6l-0.6-0.5L77.7,31c-0.4-0.5-1-0.7-1.6-0.7c-1.2,0-1.9,0.4-2.1,1.2c-0.3,0.7-0.3,1.4,0,2.1
				c0.2,0.2,0.5,0.3,0.9,0.4c0.4,0.1,0.7,0,0.7-0.2c0.1-0.3,0.1-0.5-0.2-0.7c-0.4-0.4-0.5-0.7-0.4-1c0.2-0.4,0.5-0.6,1-0.7
				c0.4,0,0.8,0.2,1.2,0.5c0.2,0.2,0.4,0.7,0.3,1.3c0,0.8-0.2,1.4-0.6,2.1c-1.2,2-2.5,3.8-3.9,5.4c-1,1.1-1.8,1.7-2.4,1.7
				c-0.2-0.1-0.3-0.4-0.5-0.9c-0.2-0.4-0.4-0.7-0.6-0.9l-0.7-0.2h-0.5c-0.3-0.1-0.6,0.1-0.9,0.4c-0.4,0.3-0.5,0.8-0.5,1.2
				c0,0.2,0.1,0.3,0.2,0.4c0.2,0.1,0.3,0.2,0.6,0.2c0.1-0.7,0.3-0.9,0.8-0.8c0.5,0.1,0.7,0.5,0.6,1.1c-0.1,0.7-0.4,1.3-1,1.7
				c-0.5,0.4-1.4,0.8-2.5,1.1l-2.8,0.8c-0.1-0.1-0.2,0-0.1,0.2c0,0.2,0.1,0.3,0.3,0.4c5.6,2.1,7.7,4.4,6.4,7.1
				c-0.3,0.7-0.9,1-1.8,1.1c-0.8,0.1-1.3,0.1-1.5-0.2c-0.2-0.1-0.2-0.4-0.2-0.7l0.3-0.8c0.1-0.1,0.2-0.2,0.5-0.2
				c0.3,0.1,0.4,0,0.5-0.1c0.2-0.3,0.2-0.7,0.1-0.9c-0.2-0.3-0.5-0.4-1.1-0.4c-0.6,0.1-1,0.3-1.3,0.8c-0.2,0.4-0.2,0.9-0.1,1.5
				c0.2,0.6,0.5,1.1,0.9,1.6s1,0.8,1.6,1c3,0.8,4.8,1.3,5.4,1.7c1.2,0.8,2.4,2.2,3.5,4.2c1.3,2.2,2,4.8,1.9,7.7c0,3-0.7,5.5-2,7.5
				c-0.9,1.4-2.1,2.4-3.5,3.1c-1.5,0.8-3.1,1.1-4.7,1c-1.3-0.2-2.2-0.7-2.9-1.5c-0.6-0.8-0.9-1.7-0.8-2.6c0.1-1,0.5-1.8,1.4-2.2
				c0.8-0.4,1.4-0.5,1.9-0.3c0.4,0.2,0.7,0.5,0.8,1c0,0.2,0,0.4-0.1,0.7c-0.1,0.3-0.3,0.4-0.5,0.4c-0.3,0.1-0.3,0.3,0.1,0.7l0.2,0.2
				c0.2,0.1,0.4,0.1,0.7-0.2c0.4-0.2,0.6-0.7,0.6-1.3c0-0.7-0.3-1.5-0.8-2.4c-0.2-0.4-0.3-1-0.2-1.6c0.1-0.8,0.1-1.4-0.1-1.8
				l-0.4-0.3L67,71.2c-0.2,0.2-0.1,0.5,0.2,0.9c0.2,0.3,0.3,0.6,0.2,1c0,0.4-0.2,0.7-0.5,0.8c-0.9,0.2-1.8,0.6-2.6,1.2
				c-0.4,0.3-0.7,0.6-0.9,1L63,77.3l-0.2,1.9l0.3,1.4c0.2,0.4,0.2,0.9,0.1,1.4c0,0.3-0.2,0.7-0.3,0.9c-0.3,0.4-0.7,0.7-1.2,0.8
				c-0.5,0.1-0.7,0-0.7-0.2l0.1-0.3c0-0.2-0.1-0.2-0.2-0.3c-0.1-0.1-0.2-0.1-0.4-0.1l-0.3,0.1c-0.2,0.2-0.3,0.3-0.3,0.5V84
				c0,0.3,0.2,0.5,0.5,0.7s0.7,0.2,1,0.2c0.5,0,1.1-0.3,1.6-0.9l1.2-1.1l0.9,0.1l2.3,0.7c0.5,0.2,0.6,0.4,0.3,0.8l-1,1l-1.5,2.1
				c-0.8,1.3-1.6,2.6-2.3,4.2l-1-0.4L61,91.3c-0.3,0-0.7,0.1-1,0.4c-0.5,0.3-0.7,0.6-0.8,1l0.1,0.9c0.1,0.4,0.1,0.6,0.2,0.7l0.7,0.3
				h0.7c0.1-0.1,0.1-0.1,0-0.2L60.6,94c-0.3-0.4-0.4-0.8-0.3-1.2c0.2-0.4,0.6-0.5,1.2-0.4c0.5,0.1,0.9,0.4,1.2,0.9s0.4,1.5,0.4,2.8
				c0.1,1.6,0.1,2.5,0.2,3c0.3,1.5,0.9,3,1.9,4.3c0.8,1.2,1.8,2.1,2.8,2.7c0.9,0.5,1.9,0.8,2.9,0.9l4.1,0.1c0.3,0.2,0.7,0.6,0.9,1.2
				c0.3,0.7,0.3,1.3,0,1.8l-1.6,1.7c-0.7,0.9-0.8,1.9-0.2,3c0.2,0.4,0.5,0.7,1.1,0.9l1.5,0.1c0.4-0.1,0.7-0.4,1-0.9s0.1-0.9-0.5-1.1
				l-0.4,0.3c-0.2,0.2-0.5,0.3-0.8,0.3s-0.5-0.2-0.7-0.5s-0.2-0.5-0.1-0.8c0.2-1,0.9-1.5,2-1.5l1.1,0.1c0.4,0.1,1,0.4,1.5,0.9
				c1,0.9,2,2.7,3.2,5.3l1.3,3c0.5,1,1.1,1.9,1.6,2.5c0.8,0.9,1.8,1.8,3,2.5s2.3,1.1,3.5,1.4l3.1,0.2c0.7,0.2,1.5,1,2.5,2.5l1.9,3.2
				l1.5-2.8c0.7-1.3,1.3-2,1.9-2.4c0.3-0.2,0.8-0.3,1.5-0.3l1.3,0.1c1.7-0.2,3.3-0.7,4.9-1.5s2.7-1.8,3.6-3c0.5-0.6,1-1.4,1.4-2.4
				l1.2-2.6c1-2.2,2-3.7,3-4.7l0.5-0.5c0.2-0.1,0.5-0.3,0.9-0.4l2.4,0.1c0.3,0.3,0.7,1,0.9,2.2c-1.3,0.3-2,0.5-2.2,0.7
				c-0.2,0.3,0.5,0.6,2.2,0.9c1-1.3,1.2-2.7,0.3-4l-0.5-0.8l-0.4-0.9c-0.2-0.7-0.1-1.6,0.4-2.7l4.7-0.7c1.6-0.3,2.8-0.8,3.9-1.3
				c2.4-1.3,3.7-3.4,4.2-6.6l0.2-3c0-1.1,0.1-2,0.3-2.6l1.5-0.3l0.8,1.2l-0.1,0.4l0.2-0.1c0.6-0.1,0.7-0.1,0.4-0.1l0.1-1.7
				c-0.1-0.3-0.2-0.5-0.4-0.6l-2.4,0.2c-0.7,0.1-1.2-0.3-1.5-0.9l-0.6-1.7c-0.8-1.6-1.6-3-2.6-4.2l-0.6-0.7
				c-0.2-0.3-0.3-0.4-0.2-0.6s0.2-0.3,0.5-0.4l2.8-0.9c0.2-0.1,0.4,0.1,0.6,0.4l0.5,1l0.7,0.7l1,0.4h0.9l0.6-0.4
				c0.2-0.1,0.3-0.3,0.3-0.7c0-0.4-0.1-0.7-0.2-0.9l-0.8,0.1l-0.2,0.5c-0.1,0.3-0.2,0.4-0.4,0.3c-0.7-0.1-1.1-0.3-1.3-0.7l-0.3-1.1
				c-0.1-0.3-0.1-0.7,0.1-1.3l0.3-1.1c0.3-1.5,0.2-2.7-0.2-3.5c-0.2-0.3-0.5-0.6-0.9-0.9l-1.1-0.8c-1.2-0.9-1.8-1.5-1.9-1.8
				c-0.3-0.4-0.3-0.8-0.2-1.2c0.1-0.3,0.3-0.5,0.5-0.5c0.3-0.1,0.4-0.2,0.3-0.4c-0.2-0.2-0.4-0.3-0.7-0.3L133,72l-0.4,0.4
				c-0.2,0.3-0.3,0.7-0.2,1.1c0,0.4,0.2,1.1,0.5,2c0.1,0.1-0.1,0.2-0.5,0.4c-0.5,0.2-0.8,0.5-1,0.9c-0.1,0.2-0.2,0.5-0.2,0.9
				c-0.1,0.5,0.1,0.9,0.3,1.3c0.2,0.3,0.5,0.4,0.8,0.5c0.3,0,0.5-0.1,0.7-0.2c0.2-0.2,0.1-0.4-0.2-0.8s-0.4-0.8-0.4-1
				c0.1-0.3,0.4-0.6,0.8-0.8c0.4-0.2,0.8-0.2,1.2-0.2c0.4,0.1,0.8,0.2,1.2,0.5c0.4,0.4,0.7,0.7,0.9,1.2c0.7,2.6-0.5,4.3-3.9,5h-1.4
				c-0.8-0.1-1.3-0.2-1.7-0.4c-1.4-0.6-2.5-1.4-3.2-2.1s-1.4-1.8-2.2-3.1c-0.7-1.3-1-2.2-1.2-2.8c-0.2-0.9-0.3-2.2-0.2-3.9l0.7-4.7
				c0.6-2,1.6-3.7,3.1-5.1c1.4-1.4,3.1-2.4,5.1-3l2.3-0.5c0.9-0.2,1.5-0.4,2-0.8c0.4-0.3,0.6-0.8,0.8-1.4c0.1-0.7,0-1.2-0.4-1.6
				c-0.2-0.3-0.7-0.4-1.3-0.4s-0.9,0.2-0.9,0.5c-0.1,0.3,0.1,0.4,0.3,0.5l0.7,0.1l0.2,0.5c0,0.4-0.1,0.7-0.2,0.9
				c-0.1,0.1-0.3,0.2-0.6,0.3l-0.6,0.2c0.5,0,0.4,0.1-0.3,0.1l-1-0.1c-0.5-0.2-0.8-0.8-1-1.8c-0.2-1.2,0-2.1,0.6-3
				c0.6-0.8,1.4-1.4,2.4-1.9l3-1.4c0.7-0.3,1.1-0.6,1.2-0.7l-0.3-0.3l-1.8-0.6c-0.9-0.3-1.9-0.7-3.2-1.4c-0.5-0.2-0.9-0.7-1.2-1.3
				c-0.4-0.8-0.3-1.3,0.3-1.6c0.2-0.1,0.4-0.1,0.9,0.2c0.4,0.2,0.7,0.3,0.7,0.2c0.2-0.4,0.1-0.8-0.3-1.2c-0.4-0.3-0.7-0.5-1-0.5
				c-0.4,0-0.8,0.2-1.2,0.4c-0.2,0.2-0.4,0.4-0.5,0.9l-0.3,0.7c-0.2,0.2-1.2-0.7-2.6-2.5c-1.5-1.8-2.6-3.3-3.3-4.5
				c-0.8-1.6-1-2.6-0.8-3.1c0.5-0.9,1-1.2,1.6-0.9l0.5,0.3l0.2,0.1L126,34l-0.3,0.5c-0.1,0.1,0,0.2,0.3,0.2h0.7
				c0.3-0.1,0.5-0.3,0.7-0.5c0.2-0.3,0.3-0.8,0.3-1.3C127.4,32.5,127.2,32.1,126.9,31.7z M100.1,30.1c0.3-0.3,0.5-0.4,0.7-0.4
				c0.3,0,0.5,0.2,0.7,0.5s0.3,0.5,0.3,0.7c-0.1,0.3-0.4,0.4-1,0.4c-0.6-0.1-0.9-0.2-0.9-0.5C99.8,30.6,99.9,30.4,100.1,30.1z
				 M122.7,35.9l3.2,4.4c1.3,1.7,2.6,3.1,3.7,4.1c0.4,0.3,1.3,0.9,2.8,1.9c1.3,0.8,2,1.3,2.1,1.6c0.1,0.2,0,0.3-0.2,0.5l-0.9,0.4
				l-0.7,0.4c-0.3,0.2-0.5,0.3-0.7,0.3s-0.4-0.2-0.7-0.5l-0.7-0.8l-0.5-0.5c-0.4-0.2-1-0.4-1.8-0.4c-0.7-0.1-1.5,0.3-2.3,1l-1.9,1.5
				c-0.2,0.1-0.5,0.1-0.9,0l-1-0.4c-0.1,0-0.2,0.2-0.1,0.5c0.1,0.4,0.2,0.7,0.3,0.8l1.6,0.1l0.3,0.3l0.3,0.4l1.1,1.1
				c0.3,0.3,0.9,0.3,1.6,0.1c0.2-0.1,0.4-0.3,0.7-0.8c0.2-0.4,0.1-0.7-0.3-0.5l-1.1,0.3l-0.5-0.4c-0.3-0.3-0.4-0.7-0.3-1.2
				s0.3-1,0.8-1.4c0.8-0.7,1.5-0.9,2.3-0.7c0.7,0.2,1.3,0.8,1.6,1.6c0.1,0.2,0.1,0.8-0.1,1.7c-0.3,1.2-0.4,1.9-0.4,2.3
				c0,0.6,0.2,1.4,0.6,2.5l0.2,0.7c0.1,0.2-0.1,0.2-0.3,0.2c-0.3-0.1-1.2,0.4-2.7,1.4c-1.7,1.1-2.8,2.1-3.5,3
				c-0.9,1.3-1.6,3-2.2,4.9c-0.7,2.3-0.9,4.5-0.8,6.8c0.1,1.5,0.5,3,1.3,4.5c0.7,1.4,1.5,2.7,2.5,3.7c0.5,0.5,1.3,1.1,2.3,1.6
				l2.5,1.5c2.7,2.2,4.6,4.3,5.6,6.3c1.3,2.8,1.4,6.2,0.3,10.2c-0.4,1.3-1.1,2.5-2.2,3.6c-1.2,1.2-2.4,1.9-3.7,2.1
				c-2.6,0.4-4.8-0.1-6.8-1.6c-1.5-1.1-2.2-2.6-2.4-4.4c-0.1-1.5,0.4-3.1,1.3-4.5s1.9-2.2,3-2.4c1.2-0.2,2,0.4,2.6,2l0.7-1.6
				l-1.4-1.1c-0.4-0.2-1.1-0.4-1.9-0.5l-0.2-1.9l-0.5-1.4c-1.1,0.2-1.6,0.4-1.7,1c1.4,0.6,1.7,1.5,0.9,2.7l-2.3,2.9
				c-1,1.6-1.5,3.2-1.5,4.5c0.1,1,0.4,2.1,1.2,3.1l1.9,2.4c0.7,0.9,0.9,1.7,0.9,2.4c-0.1,0.7-0.4,1.3-0.9,1.9
				c-0.3,0.4-0.9,0.9-1.6,1.4l-1.9,1.2c-0.6,0.5-1.1,1-1.3,1.4l-0.9,1.6l-0.5,0.8l-0.8,0.1l-1.5-0.6l-2.4-0.1
				c-0.5,0.3-0.9,1-1.3,2.1c1,0.8,1.5,0.8,1.4,0c0.7-1.2,1.3-1.6,1.9-1.4s0.9,0.9,0.9,2c0.1,1.3-0.3,2.5-1,3.6
				c-0.9,1.5-2.2,2.5-4.1,3.2c-1.7,0.7-3.4,0.8-5.2,0.3c-1.9-0.5-3-1.5-3.2-2.9c-0.3-1.1-0.1-2,0.3-2.8c0.5-0.7,1.1-1.1,2-1.2
				l0.6,0.1c0.3,0.1,0.4,0.1,0.3,0.2l0.7,0.9c0.3,0.4,0.4,0.9,0.5,1.4c0.4-0.4,0.7-0.9,0.8-1.4c0.1-0.4,0-0.9-0.2-1.3
				c-0.5-0.9-1.4-1.3-2.7-1.2c-0.5,0-0.9,0.3-1.4,0.7l-1.2,0.9l-1.6,0.1l-1.4-1c-0.9-0.5-1.7-0.7-2.4-0.4c-0.6,0.2-1.2,0.8-1.8,1.6
				c0.2,1.7,0.4,1.8,0.9,0.5l0.4-0.7c1.7-0.3,2.8,0.1,3.5,1c0.2,0.4,0.4,0.9,0.3,1.5c0,0.5-0.2,1.1-0.5,1.6c-0.7,1.2-1.9,2-3.4,2.2
				c-1.8,0.2-3.9-0.4-6.2-1.9c-0.9-0.7-1.6-1.3-2.2-2c-1-1.3-1.4-2.6-1.3-3.9c0.1-0.6,0.2-1,0.5-1.4c0.3-0.3,0.7-0.4,1.2-0.4
				c0.5,0.1,0.9,0.3,1,0.8c0.1,0.2,0.1,0.3,0.1,0.4c0,0.2,0,0.2-0.1,0.3l-0.6,0.2c-0.2,0.7,0.3,1,1.4,0.7c0.3-0.1,0.4-0.4,0.5-0.9
				c0.2-0.5,0.2-1,0.1-1.4c-0.1-0.2-0.4-0.4-0.9-0.8c-0.6-0.4-1-0.6-1.3-0.7c-0.7-0.1-1.4,0.1-1.9,0.5l-1.3,1.2l-1.5-2.7
				c-0.7-1.2-1.3-2-1.8-2.5c-0.3-0.3-1-0.7-2.1-1.3l-1.5-0.8c-0.4-1.3-0.4-2.4,0-3.3c0.1-0.3,0.5-0.7,0.9-1l1-1
				c0.8-1.5,1.2-2.8,1.4-3.9c0.2-1.8-0.3-3.7-1.4-5.5l-1.4-1.5c-0.7-0.6-1-1.2-1.1-1.7c-0.2-1.3-0.1-1.9,0.6-1.9l0.7-0.1
				c0.2-0.1,0.3-0.2,0.3-0.6c-0.1-0.4-0.3-0.7-0.9-0.7c-0.5,0-0.8,0.1-1.2,0.3c-0.2,0.2-0.4,0.4-0.5,0.9l-0.2,0.9l0.1,0.2l0.1,0.5
				c0,0.5-0.1,0.9-0.4,1L74.2,92l-0.9,0.2c-0.4,0.2-0.7,0.4-0.9,0.8L72,93.7c-0.2,0.5-0.1,0.9,0.1,1.2c0.3,0.3,0.4,0.4,0.7,0.4H73
				l0.2,0.1c0.1-0.1,0.1-0.3,0.1-0.9c-0.1-0.4,0.1-0.7,0.4-0.9c0.2-0.2,0.5-0.3,0.9-0.3c0.9,0,1.7,0.3,2.3,0.8c0.4,0.4,0.9,1,1.4,2
				c0.6,1.3,0.9,2.6,0.9,4.1c0,1.7-0.6,3.1-1.8,4.2c-1.2,1-2.6,1.5-4.3,1.6c-1.7,0.1-3.3-0.3-4.8-1.2c-1.6-1-2.8-2.5-3.5-4.4
				c-0.4-1.1-0.6-2.2-0.6-3.3l0.1-2.8c0.1-2.2,0.8-4.3,2.2-6.2c1-1.3,2.6-2.8,4.8-4.5c2.6-2.1,4.2-3.5,4.9-4.2
				c1.6-1.6,2.6-3.4,3-5.1c0.4-2.3,0.4-4.5-0.1-6.7C78.8,66,78,64.1,77,62c-0.7-1.4-1.9-2.7-3.5-3.7l-2.4-1.2L70.8,57l-0.4-0.2
				c-0.3-0.2-0.4-0.5-0.3-1l0.4-1c0.2-0.4,0.4-0.8,0.4-1c0-0.5-0.1-1-0.2-1.8l-0.3-1.5c-0.2-1,0.3-1.8,1.3-2.4
				c1.2-0.6,2.2-0.4,3,0.5c0.4,0.5,0.6,0.9,0.7,1.5c0,0.4-0.1,0.8-0.4,1L73.4,51c-0.2,0.2-0.3,0.4-0.1,0.6c0.1,0.3,0.4,0.4,0.7,0.4
				c0.7,0.1,1.2-0.1,1.6-0.3c0.1-0.1,0.2-0.3,0.4-0.7l0.5-0.5l1-0.1c0.4,0.1,0.7,0,0.9-0.2c0.6-0.4,0.8-0.9,0.7-1.3
				c-0.1-0.4-0.3-0.5-0.7-0.5l-0.2,0.3c-0.1,0.3-0.2,0.4-0.3,0.4L76.6,49L76,48c-0.2-0.4-0.5-0.8-0.8-1c-0.7-0.4-1.4-0.7-2.2-0.8
				c-0.9-0.1-1.7,0.1-2.4,0.5c-0.2,0.1-0.5,0.5-0.8,1.1c-0.2,0.5-0.5,0.7-0.9,0.6c-0.8-0.2-1.4-0.5-1.9-1s-0.7-0.9-0.3-1l2.7-1.6
				c1.6-1,2.7-2,3.5-2.8s1.9-2.1,3.2-3.9l3.3-4.3c2.2-2.6,4.3-4.7,6.5-6.1c2.6-1.8,5.4-2.9,8.2-3.2l1.9-0.1c1.4,0.1,2.4,0.5,2.9,1.1
				c0.3,0.3,0.4,0.9,0.5,1.6c0.1,0.6,0,1.1-0.1,1.5c-0.2,0.4-0.5,0.4-0.9,0.2l-0.1-0.6c0.1-0.3-0.1-0.5-0.4-0.5
				c-0.3-0.1-0.5,0.1-0.6,0.3l-0.1,0.7l-0.1,1.9c-0.1,0.1-0.3,0.2-0.4,0.3h-0.6c-0.5,0-0.8-0.3-0.8-0.8l0.2-0.4
				c0.1-0.3,0.1-0.4,0.1-0.7c-0.2-0.5-0.5-0.5-1.1-0.2C94.2,29.1,94,29.5,94,30c0.1,0.5,0.3,1,0.6,1.4c0.4,0.5,1.1,0.7,2,0.7
				l1.5-0.4l1.3,0.5c0.6,0.3,1,0.4,1.4,0.4c1-0.1,1.8-0.4,2.5-0.9l2.6,0.3c0.6-0.2,1-0.3,1.3-0.6c0.2-0.2,0.3-0.5,0.4-0.9
				c0.2,0,0.2-0.3,0.1-0.8c-0.1-0.4-0.3-0.6-0.5-0.7s-0.4,0.1-0.6,0.2l-0.1,0.6c0,0.3-0.1,0.6-0.2,0.7c-0.2,0.2-0.4,0.2-0.8,0.2
				s-0.8-0.2-0.9-0.5v-1.5l-0.1-0.7c-0.1-0.2-0.4-0.3-0.7-0.2c-0.1,0.1-0.2,0.2-0.2,0.4l-0.1,0.8l-0.3,0.3h-0.5
				c-0.3-0.1-0.5-0.4-0.6-1.1c-0.1-1.1,0.1-1.9,0.7-2.5c0.3-0.3,0.8-0.6,1.6-0.9c1.1-0.5,2.6-0.4,4.5,0.2c0.7,0.2,1.8,0.7,3.2,1.3
				c2.3,1,4.4,2.4,6.1,4.1C119.5,31.7,121,33.5,122.7,35.9z M101.1,125c0.7,0.5,1,1,1.1,1.4c0.4,1.6-0.6,2.9-3.1,3.8
				c-0.7-1.1-1.3-2.3-1.9-3.5l2.4-2.8L101.1,125z"/>
		</g>
	</g>
</g>
<g>
	<g>
		<path class="st1" d="M146.6,176.1l0.1-6.3c0-2.3-0.3-3.9-0.7-4.8c-0.5-0.9-1.3-1.6-2.5-2.1c-1.2-0.6-3-0.9-5.4-0.9
			c-2.7,0-4.7,0.4-6,1.4c-1.4,1-2.3,2.4-2.9,4.4l4.9,0.9c0.3-1,0.7-1.6,1.2-2c0.6-0.4,1.3-0.6,2.2-0.6c1.4,0,2.4,0.2,2.9,0.7
			c0.5,0.4,0.7,1.1,0.7,2.2v0.6c-0.9,0.4-2.7,0.8-5.2,1.3c-1.9,0.3-3.3,0.8-4.2,1.3c-1,0.4-1.8,1.1-2.4,2c-0.5,0.9-0.8,1.9-0.8,3.1
			c0,1.7,0.6,3.1,1.8,4.3c1.2,1.1,2.9,1.7,5,1.7c1.2,0,2.3-0.2,3.4-0.6c1-0.5,2-1.1,2.9-2.1c0.1,0.1,0.1,0.3,0.2,0.6
			c0.2,0.7,0.4,1.2,0.5,1.6h5.4c-0.5-1-0.8-1.9-0.9-2.7C146.7,179.3,146.6,178,146.6,176.1z M134.1,176.8c0-0.8,0.3-1.4,1.1-1.9
			c0.4-0.3,1.4-0.6,2.9-0.9c1.5-0.3,2.6-0.6,3.2-0.8v1.1c0,1.3-0.1,2.2-0.2,2.6c-0.2,0.7-0.6,1.3-1.3,1.8c-0.9,0.6-1.8,0.9-2.7,0.9
			s-1.6-0.2-2.2-0.8C134.3,178.2,134.1,177.5,134.1,176.8z"/>
		<path class="st1" d="M124.2,162c-0.9,0-1.6,0.2-2.3,0.7c-0.7,0.4-1.5,1.3-2.3,2.7v-2.9h-5.1v20.4h5.4v-6.3c0-3.4,0.1-5.7,0.4-6.9
			c0.3-1.1,0.7-1.8,1.2-2.2s1.1-0.6,1.9-0.6c0.7,0,1.6,0.3,2.5,0.9l1.7-4.7C126.7,162.4,125.5,162,124.2,162z"/>
		<path class="st1" d="M111.7,162.5h-4V161c0-1.1,0.1-1.7,0.5-2.1c0.3-0.3,0.9-0.5,1.7-0.5c0.7,0,1.6,0.1,2.4,0.3l0.7-3.7
			c-1.4-0.4-3-0.7-4.5-0.7s-2.7,0.3-3.7,0.8c-0.9,0.6-1.6,1.2-2,2.1c-0.4,0.8-0.6,2.1-0.6,3.8v1.6h-3v4.2h3V183h5.4v-16.2h4
			L111.7,162.5L111.7,162.5z"/>
		<path class="st1" d="M96.3,176.1l0.1-6.3c0-2.3-0.2-3.9-0.7-4.8c-0.4-0.9-1.3-1.6-2.5-2.1c-1.2-0.6-2.9-0.9-5.4-0.9
			c-2.6,0-4.6,0.4-6,1.4c-1.3,1-2.3,2.4-2.8,4.4l4.9,0.9c0.4-1,0.7-1.6,1.3-2c0.5-0.4,1.2-0.6,2.2-0.6c1.4,0,2.4,0.2,2.9,0.7
			c0.6,0.4,0.8,1.1,0.8,2.2v0.6c-1,0.4-2.7,0.8-5.2,1.3c-1.9,0.3-3.3,0.8-4.3,1.3c-1,0.4-1.7,1.1-2.3,2c-0.6,0.9-0.8,1.9-0.8,3.1
			c0,1.7,0.6,3.1,1.8,4.3c1.2,1.1,2.9,1.7,4.9,1.7c1.2,0,2.3-0.2,3.4-0.6c1.1-0.5,2.1-1.1,3-2.1c0,0.1,0.1,0.3,0.2,0.6
			c0.2,0.7,0.3,1.2,0.5,1.6h5.3c-0.4-1-0.7-1.9-0.9-2.7C96.4,179.3,96.3,178,96.3,176.1z M83.8,176.8c0-0.8,0.3-1.4,1.1-1.9
			c0.5-0.3,1.4-0.6,2.9-0.9c1.5-0.3,2.6-0.6,3.3-0.8v1.1c0,1.3-0.1,2.2-0.2,2.6c-0.2,0.7-0.6,1.3-1.2,1.8c-0.9,0.6-1.8,0.9-2.8,0.9
			c-0.9,0-1.6-0.2-2.1-0.8C84.1,178.2,83.8,177.5,83.8,176.8z"/>
		<path class="st1" d="M75.1,174.6c0-1.7-0.4-3.2-1.1-4.4s-1.8-2.2-3.1-2.9c-1.3-0.7-3.4-1.4-6.1-2.1c-2.8-0.6-4.6-1.2-5.2-1.9
			c-0.6-0.4-0.9-1-0.9-1.7s0.3-1.3,0.9-1.7c0.9-0.7,2.2-1.1,3.9-1.1c1.6,0,2.8,0.3,3.6,1c0.7,0.6,1.3,1.6,1.6,3.1l5.7-0.3
			c-0.1-2.6-1.1-4.7-2.8-6.2c-1.8-1.5-4.5-2.3-8-2.3c-2.2,0-4,0.3-5.6,1c-1.5,0.6-2.7,1.6-3.5,2.9c-0.8,1.2-1.2,2.6-1.2,4
			c0,2.2,0.9,4.1,2.6,5.7c1.2,1.1,3.4,2,6.4,2.7c2.3,0.6,3.9,1,4.5,1.2c1,0.3,1.7,0.7,2.1,1.2c0.4,0.4,0.6,1,0.6,1.7
			c0,1-0.5,1.9-1.4,2.7s-2.2,1.2-4.1,1.2c-1.7,0-3.1-0.4-4.1-1.3c-1-0.9-1.7-2.2-2-4.1l-5.6,0.6c0.4,3.1,1.5,5.5,3.4,7.1
			c1.9,1.7,4.6,2.5,8.2,2.5c2.4,0,4.5-0.4,6.1-1.1c1.7-0.7,2.9-1.7,3.8-3.1C74.7,177.8,75.1,176.3,75.1,174.6z"/>
	</g>
</g>
</svg>
