<?xml version="1.0" encoding="utf-8"?>
<!-- Generator: Adobe Illustrator 16.0.0, SVG Export Plug-In . SVG Version: 6.00 Build 0)  -->
<!DOCTYPE svg PUBLIC "-//W3C//DTD SVG 1.0//EN" "http://www.w3.org/TR/2001/REC-SVG-20010904/DTD/svg10.dtd">
<svg version="1.0" id="Capa_1" xmlns="http://www.w3.org/2000/svg" xmlns:xlink="http://www.w3.org/1999/xlink" x="0px" y="0px"
	 width="100px" height="100px" viewBox="0 0 100 100" enable-background="new 0 0 100 100" xml:space="preserve">
<path fill="#C2303C" d="M100,97c0,1.657-1.343,3-3,3H3c-1.657,0-3-1.343-3-3V3c0-1.657,1.343-3,3-3h94c1.657,0,3,1.343,3,3V97z"/>
<g>
	<path fill="#FFFFFF" d="M50.986,20.521c0,7.462,12.518,15.751,12.518,24.274c0,0,0,0.823-0.35,1.7
		c11.705,2.471,19.99,8.292,19.99,15.115c0,9.168-14.777,16.752-33.089,16.752c-18.704,0-33.2-7.459-33.2-16.402
		c0-6.816,8.978-12.348,19.819-15.282c0,3.76,12.334,15.696,12.63,20.514c0.036,0.551,0.144,1.016,0,1.586
		c2.664-1.408,2.664-5.82,2.664-5.82c0-10.463-11.994-15.107-11.994-25.394c0-3.999,1.858-6.936,3.536-7.754v2.875
		c0,7.468,12.976,15.814,12.976,22.635v2.236c3.02-1.174,3.02-6.766,3.02-6.766c0-9.403-12.054-14.637-12.054-25.394
		c0-3.995,1.853-6.933,3.534-7.757V20.521z"/>
</g>
</svg>
