<svg width="40" height="40" viewBox="0 0 40 40" fill="none" xmlns="http://www.w3.org/2000/svg">
    <rect width="40" height="40" rx="20" fill="url(#paint0_linear_4501_503)" />
    <path
        d="M10.8803 25.692C11.0458 25.5244 11.2696 25.4303 11.5028 25.4303H33.0708C33.1587 25.429 33.2449 25.4546 33.3183 25.5038C33.3917 25.553 33.449 25.6235 33.4828 25.7063C33.5166 25.7891 33.5253 25.8803 33.5078 25.9682C33.4903 26.0561 33.4474 26.1366 33.3847 26.1993L29.1265 30.5465C28.9602 30.7169 28.7344 30.8129 28.4988 30.8135H6.93076C6.84297 30.8133 6.75721 30.7865 6.68428 30.7366C6.61136 30.6867 6.55453 30.6159 6.52097 30.5331C6.48741 30.4503 6.4786 30.3592 6.49567 30.2713C6.51273 30.1834 6.55492 30.1026 6.61688 30.0391L10.8803 25.692Z"
        fill="white" />
    <path
        d="M10.8803 9.45167C11.0468 9.2855 11.2699 9.19169 11.5028 9.18999H33.0708C33.1587 9.18869 33.2449 9.21429 33.3183 9.26349C33.3917 9.31269 33.449 9.38323 33.4828 9.466C33.5166 9.54878 33.5253 9.64 33.5078 9.72788C33.4903 9.81576 33.4474 9.89627 33.3847 9.95902L29.1265 14.3062C28.9602 14.4766 28.7344 14.5726 28.4988 14.5732H6.93076C6.84297 14.573 6.75721 14.5462 6.68428 14.4963C6.61136 14.4464 6.55453 14.3756 6.52097 14.2928C6.48741 14.21 6.4786 14.1189 6.49567 14.031C6.51273 13.9431 6.55492 13.8623 6.61688 13.7988L10.8803 9.45167Z"
        fill="white" />
    <path
        d="M29.1265 17.5222C28.9602 17.3518 28.7344 17.2557 28.4988 17.2551H6.93076C6.84297 17.2554 6.75721 17.2821 6.68428 17.332C6.61136 17.3819 6.55453 17.4527 6.52097 17.5355C6.48741 17.6183 6.4786 17.7094 6.49567 17.7973C6.51273 17.8852 6.55492 17.966 6.61688 18.0295L10.8803 22.3767C11.0458 22.5443 11.2696 22.6383 11.5028 22.6383H33.0708C33.1587 22.6396 33.2449 22.614 33.3183 22.5648C33.3917 22.5156 33.449 22.4451 33.4828 22.3623C33.5166 22.2795 33.5253 22.1883 33.5078 22.1004C33.4903 22.0126 33.4474 21.9321 33.3847 21.8693L29.1265 17.5222Z"
        fill="white" />
    <defs>
        <linearGradient id="paint0_linear_4501_503" x1="37.5339" y1="2.12385" x2="5.01901"
            y2="35.2797" gradientUnits="userSpaceOnUse">
            <stop stop-color="#00FFA3" />
            <stop offset="1" stop-color="#DC1FFF" />
        </linearGradient>
    </defs>
</svg>