<?xml version="1.0" encoding="utf-8"?>
<!-- Generator: Adobe Illustrator 22.1.0, SVG Export Plug-In . SVG Version: 6.00 Build 0)  -->
<svg version="1.1" id="Capa_1" xmlns="http://www.w3.org/2000/svg" xmlns:xlink="http://www.w3.org/1999/xlink" x="0px" y="0px"
	 viewBox="0 0 200 200" style="enable-background:new 0 0 200 200;" xml:space="preserve">
<style type="text/css">
	.st0{fill:#0031BE;}
	.st1{fill:#6CB544;}
	.st2{fill:#00A0FF;}
</style>
<path class="st0" d="M188,200H12c-6.6,0-12-5.4-12-12V12C0,5.4,5.4,0,12,0h176c6.6,0,12,5.4,12,12v176C200,194.6,194.6,200,188,200z
	"/>
<g>
	<g>
		<g>
			<path class="st1" d="M101.6,142.9l42.9-42.9l-42.9-42.9l13.3-13.3L171,100l-56.2,56.2L101.6,142.9L101.6,142.9z M101.6,57.1
				L101.6,57.1L101.6,57.1L101.6,57.1L101.6,57.1z"/>
		</g>
	</g>
	<g>
		<path class="st2" d="M98.4,142.9l-13.3,13.3L29,100l56.2-56.2l13.3,13.3L55.6,100L98.4,142.9L98.4,142.9z M98.4,57.1L98.4,57.1
			L98.4,57.1L98.4,57.1L98.4,57.1z"/>
	</g>
</g>
</svg>
