<?xml version="1.0" encoding="utf-8"?>
<!-- Generator: Adobe Illustrator 16.0.0, SVG Export Plug-In . SVG Version: 6.00 Build 0)  -->
<!DOCTYPE svg PUBLIC "-//W3C//DTD SVG 1.0//EN" "http://www.w3.org/TR/2001/REC-SVG-20010904/DTD/svg10.dtd">
<svg version="1.0" id="Capa_1" xmlns="http://www.w3.org/2000/svg" xmlns:xlink="http://www.w3.org/1999/xlink" x="0px" y="0px"
	 width="300px" height="300px" viewBox="0 0 300 300" enable-background="new 0 0 300 300" xml:space="preserve">
<path fill="#E4E4E4" stroke="#FFFFFF" stroke-miterlimit="10" d="M299.5,292.523c0,3.854-3.123,6.977-6.977,6.977H7.477
	c-3.853,0-6.977-3.123-6.977-6.977V7.477C0.5,3.624,3.624,0.5,7.477,0.5h285.047c3.854,0,6.977,3.124,6.977,6.977V292.523z"/>
<g>
	<g>
		<path fill="#FFFFFF" d="M270.766,118.012c-8.82,0-15.971,7.15-15.971,15.971c0,2.4,0.532,4.675,1.48,6.717
			c-1.157-0.29-2.422-0.436-3.791-0.436c-0.718,0-1.432,0.064-2.138,0.193l0.897-4.328c0.214-1.038-0.049-2.117-0.72-2.94
			c-0.669-0.821-1.674-1.299-2.732-1.299h-9.111c-1.672,0-3.114,1.176-3.452,2.813l-1.896,9.206
			c-1.134-1.354-2.639-2.41-4.487-3.122c0.069-0.899-0.209-1.798-0.786-2.506c-0.671-0.819-1.673-1.292-2.73-1.292h-1.674
			c-1.684,0-3.133,1.188-3.457,2.841l-0.017,0.075c-2.414,0.322-4.6,1.155-6.522,2.488c-1.583,1.089-2.79,2.417-3.599,3.937
			c-1.424-3.066-5.155-6.065-14.313-6.065c-3.916,0-6.99,0.636-9.422,1.951c-1.383,0.757-2.558,1.727-3.52,2.898
			c-0.553-4.481-2.392-7.99-5.5-10.452c-3.017-2.357-7.013-3.553-11.879-3.553c-6.473,0-11.78,2.345-15.777,6.97
			c-2.759,3.192-4.499,7.016-5.2,11.409c-0.607-1.538-1.504-2.968-2.689-4.274c-2.508-2.769-6.31-4.17-11.303-4.17
			c-3.51,0-6.623,0.747-9.25,2.216c-0.159,0.089-0.312,0.188-0.467,0.283c-0.118-0.244-0.263-0.477-0.436-0.69
			c-0.669-0.826-1.676-1.307-2.74-1.307h-0.056l0.846-3.96c0.283-1.324-0.218-2.692-1.288-3.522
			c-1.071-0.83-2.521-0.972-3.733-0.367l-8.031,4.007l0.08-0.39c0.215-1.039-0.048-2.118-0.718-2.941
			c-0.669-0.822-1.673-1.299-2.733-1.299h-8.534c-0.549,0-1.072,0.129-1.54,0.357c-0.475-0.23-1-0.357-1.542-0.357h-8.534
			c-1.665,0-3.103,1.166-3.448,2.793l-1.271,5.982c-1.439-0.56-3.04-0.847-4.776-0.847c-3.305,0-6.249,1.227-8.649,3.567H60.12
			c-2.498-2.338-6.076-3.525-10.662-3.525c-3.512,0-6.624,0.747-9.251,2.216c-0.16,0.089-0.311,0.188-0.467,0.283
			c-0.116-0.244-0.262-0.477-0.435-0.69c-0.669-0.826-1.675-1.307-2.739-1.307H36.51l0.846-3.958
			c0.282-1.326-0.217-2.694-1.288-3.524c-1.07-0.829-2.522-0.972-3.732-0.367l-9.518,4.746c-0.963,0.482-1.652,1.375-1.875,2.428
			l-0.142,0.675h-0.259c-1.672,0-3.114,1.174-3.451,2.813l-1.255,6.088c-0.213,1.036,0.05,2.115,0.719,2.938
			c0.4,0.489,0.918,0.855,1.495,1.072l-0.748,3.572c-0.629,3.013-0.681,3.797-0.681,4.298c0,2.19,0.818,4.286,2.365,6.061
			c1.69,1.939,4.292,2.924,7.729,2.924c1.368,0,3.37-0.182,6.121-0.555c1.478-0.201,2.669-1.31,2.977-2.771l0.088-0.422
			c2.531,2.485,6.209,3.748,10.943,3.748c3.693,0,6.904-0.792,9.545-2.353c1.371-0.811,2.573-1.78,3.603-2.896
			c0.288,0.5,0.6,0.979,0.956,1.426c1.395,1.743,4.002,3.823,8.516,3.823c1.786,0,3.393-0.282,4.779-0.841
			c0.025-0.01,0.049-0.021,0.074-0.029c0.471,0.227,0.992,0.349,1.527,0.349h7.885c0.559,0,1.089-0.135,1.562-0.37
			c0.481,0.238,1.013,0.368,1.561,0.368h8.556c1.662,0,3.098-1.159,3.446-2.783l0.191-0.886c0.276,0.437,0.587,0.864,0.941,1.269
			c1.691,1.94,4.292,2.924,7.728,2.924c1.368,0,3.37-0.182,6.121-0.555c1.478-0.201,2.671-1.31,2.976-2.771l0.089-0.422
			c2.531,2.485,6.208,3.748,10.944,3.748c3.693,0,6.903-0.792,9.543-2.353c2.687-1.589,4.735-3.781,6.084-6.516
			c0.484-0.984,0.879-1.975,1.183-2.965c0.671,3.033,1.946,5.618,3.816,7.709c3.143,3.571,7.608,5.384,13.277,5.384
			c6.786,0,12.086-2.136,15.768-6.335c0.627,1.614,1.686,2.976,3.156,4.02c0.354,0.257,0.729,0.486,1.12,0.696
			c0.053,0.028,0.11,0.058,0.174,0.093c0.392,0.201,0.798,0.382,1.223,0.537h-0.03c0.998,0.368,2.525,0.739,4.949,0.806
			c2.256,0,4.246-0.369,5.958-1.104c0.396,0.24,0.843,0.4,1.315,0.469c0.034,0.002,0.067,0.007,0.104,0.009
			c0.012,0.001,0.024,0.001,0.035,0.003c0.197,0.015,0.424,0.022,0.682,0.024h0.129c0,0.001,0,0.001-0.001,0.001
			c2.063,0.015,5.992,0.02,7.413,0.002c-0.002-0.001-0.003-0.002-0.005-0.003h0.208c0.287-0.005,0.9-0.045,1.679-0.097
			c0.76-0.179,1.446-0.607,1.942-1.229c0.657-0.826,0.908-1.903,0.686-2.934c0.31,0.402,0.64,0.793,1.012,1.156
			c1.257,1.229,2.776,2.153,4.54,2.765c2.284,0.467,1.078,2.54,3.919,2.54c2.809,0,2.714-1.789,4.801-1.789
			c2.42-0.298,4.568-0.982,6.421-2.042c0.074,0.114,0.152,0.225,0.24,0.333c0.671,0.821,1.674,1.297,2.733,1.297h9.109
			c0.786,0,1.515-0.264,2.109-0.708h2.354c0.604,0.454,1.345,0.708,2.114,0.708h9.109c1.662,0,3.098-1.159,3.447-2.781l2.899-13.479
			c0.485-2.261,0.723-3.995,0.723-5.299c0-0.706-0.062-1.356-0.165-1.963c2.15,1.078,4.576,1.689,7.146,1.689
			c8.821,0,15.971-7.151,15.971-15.972S279.587,118.012,270.766,118.012 M30.812,151.156l-1.63,7.846
			c-0.113,0.334-0.167,0.689-0.167,1.067c0,1.003,0.662,1.505,1.987,1.505c0.417,0,1.296-0.133,2.635-0.397l-1.275,6.088
			c-2.566,0.349-4.448,0.521-5.647,0.521c-2.384,0-4.076-0.571-5.074-1.715c-0.995-1.143-1.495-2.393-1.495-3.744
			c0-0.445,0.202-1.637,0.606-3.577l1.59-7.594h-3.053l1.253-6.086h3.117l0.733-3.473l9.518-4.748l-1.757,8.22h4.413l-1.297,6.086
			H30.812z M59.31,160.884c-1.045,2.121-2.619,3.8-4.717,5.041c-2.099,1.24-4.683,1.861-7.75,1.861c-3.89,0-6.763-0.959-8.617-2.876
			c-1.855-1.919-2.782-4.305-2.782-7.162c0-2.246,0.554-4.414,1.663-6.508c1.109-2.092,2.716-3.727,4.821-4.904
			c2.106-1.179,4.616-1.768,7.531-1.768c3.973,0,6.87,1.004,8.691,3.011c1.819,2.009,2.73,4.36,2.73,7.049
			C60.879,156.68,60.355,158.766,59.31,160.884 M93.398,136.599h8.534l-1.212,5.856h-8.514L93.398,136.599z M83.727,167.265h-7.885
			l0.418-2.218l-0.083-0.105c-1.199,1.116-2.283,1.869-3.252,2.259c-0.969,0.392-2.124,0.586-3.462,0.586
			c-2.51,0-4.431-0.833-5.762-2.5c-1.332-1.665-1.997-3.907-1.997-6.726c0-3.763,1-7.043,3.001-9.84
			c2-2.795,4.528-4.193,7.583-4.193c3.122,0,5.479,1.164,7.069,3.493l2.427-11.421h8.534L83.727,167.265z M95.406,167.263H86.85
			l4.749-22.192h8.577L95.406,167.263z M111.813,151.156l-1.631,7.846c-0.112,0.334-0.167,0.689-0.167,1.067
			c0,1.003,0.662,1.505,1.985,1.505c0.42,0,1.298-0.133,2.637-0.397l-1.275,6.088c-2.567,0.349-4.45,0.521-5.649,0.521
			c-2.384,0-4.075-0.571-5.072-1.715c-0.998-1.143-1.497-2.393-1.497-3.744c0-0.445,0.204-1.637,0.608-3.577l1.59-7.594h-3.054
			l1.254-6.086h3.118l0.732-3.473l9.517-4.748l-1.757,8.22h4.414l-1.296,6.086H111.813z M140.311,160.884
			c-1.046,2.121-2.618,3.8-4.716,5.041c-2.101,1.24-4.683,1.861-7.75,1.861c-3.891,0-6.763-0.959-8.619-2.876
			c-1.854-1.919-2.782-4.305-2.782-7.162c0-2.246,0.555-4.414,1.663-6.508c1.108-2.092,2.715-3.727,4.821-4.904
			c2.106-1.179,4.615-1.768,7.529-1.768c3.975,0,6.871,1.004,8.692,3.011c1.819,2.009,2.729,4.36,2.729,7.049
			C141.878,156.68,141.356,158.766,140.311,160.884 M163.034,160.857c3.007,0,4.877-1.686,5.612-5.06h9.939
			c-0.552,3.128-1.719,5.75-3.496,7.866c-3.008,3.589-7.454,5.383-13.342,5.383c-4.633,0-8.177-1.396-10.63-4.187
			c-2.331-2.606-3.495-6.195-3.495-10.767c0-5.52,1.564-10.091,4.693-13.711c3.312-3.832,7.683-5.75,13.11-5.75
			c4.079,0,7.316,0.937,9.708,2.808c2.792,2.208,4.233,5.612,4.324,10.213h-9.567c0.091-3.221-1.412-4.831-4.51-4.831
			c-2.546,0-4.523,1.273-5.937,3.82c-1.136,2.054-1.701,4.477-1.701,7.267C157.744,158.541,159.509,160.857,163.034,160.857
			 M205.891,158.949c-0.965,4.463-1.449,6.862-1.449,7.199c0,0.338,0.122,1.044,0.368,2.116h-8.927
			c-0.246-0.827-0.354-1.594-0.32-2.301h-0.091c-1.598,1.933-4.051,2.898-7.364,2.898c-2.236,0-4.034-0.49-5.383-1.472
			c-1.563-1.104-2.346-2.729-2.346-4.876c0-2.946,1.074-5.092,3.222-6.441c1.748-1.104,4.523-1.794,8.327-2.071
			c2.729-0.184,4.156-0.307,4.279-0.369c1.593-0.336,2.393-1.131,2.393-2.392c0-1.38-0.952-2.069-2.853-2.069
			c-1.965,0-3.175,0.812-3.636,2.439h-8.559c0.677-2.947,2.164-5.046,4.464-6.305c1.87-1.012,4.448-1.517,7.73-1.517
			c7.728,0,11.593,2.115,11.593,6.347C207.34,151.549,206.856,154.484,205.891,158.949 M223.621,148.853l-0.786,4.067l2.427,0.684
			c3.872,1.092,5.809,3.348,5.809,6.766c0,2.965-1.252,5.186-3.758,6.666c-2.051,1.208-4.614,1.812-7.689,1.812l-0.685,3.28h-1.675
			l0.685-3.384c-2.644-0.251-4.719-1.11-6.221-2.581c-1.504-1.469-2.256-3.445-2.256-5.929h7.52
			c0.046,1.709,0.751,2.712,2.119,3.007l0.889-4.578l-1.332-0.41c-2.075-0.639-3.51-1.301-4.308-1.983
			c-1.321-1.094-1.98-2.733-1.98-4.922c0-2.528,1.091-4.545,3.28-6.049c1.935-1.344,4.214-2.016,6.835-2.016h0.614l0.547-2.768
			h1.674l-0.581,2.869c5.013,0.662,7.52,3.306,7.52,7.93h-6.938C225.397,149.992,224.829,149.172,223.621,148.853 M259.615,154.785
			l-2.899,13.479h-9.109l2.347-10.95c0.491-2.301,0.735-3.619,0.735-3.955c0-1.536-0.857-2.301-2.578-2.301
			c-2.298,0-3.771,1.518-4.413,4.555l-2.669,12.651h-9.109l6.762-32.85h9.111l-2.484,12.009h0.091
			c0.797-1.135,1.87-2.04,3.222-2.715c1.257-0.612,2.544-0.918,3.864-0.918c2.299,0,4.125,0.489,5.475,1.471
			c1.533,1.104,2.301,2.761,2.301,4.968C260.26,151.273,260.043,152.791,259.615,154.785"/>
		<path fill="#FFFFFF" d="M132.507,151.168c-0.711-0.579-1.499-0.869-2.364-0.869c-1.797,0-3.147,0.816-4.047,2.449
			c-0.899,1.631-1.35,3.297-1.35,5c0,1.227,0.353,2.246,1.057,3.062c0.705,0.816,1.565,1.223,2.583,1.223
			c1.59,0,2.853-0.812,3.787-2.436c0.934-1.625,1.402-3.427,1.402-5.408C133.575,152.753,133.219,151.747,132.507,151.168"/>
		<path fill="#FFFFFF" d="M189.49,161.408c0,1.382,0.965,2.071,2.896,2.071c2.638,0,4.263-1.932,4.879-5.796
			c-1.045,0.521-2.654,0.873-4.832,1.058C190.47,158.926,189.49,159.814,189.49,161.408"/>
		<path fill="#FFFFFF" d="M221.946,148.682c-1.64,0.045-2.46,0.742-2.46,2.085c0,0.706,0.58,1.265,1.743,1.675L221.946,148.682z"/>
		<path fill="#FFFFFF" d="M220.751,163.445c2.141,0.047,3.213-0.626,3.213-2.016c0-0.958-0.801-1.709-2.395-2.256L220.751,163.445z"
			/>
		<path fill="#FFFFFF" d="M74.545,150.258c-1.241,0-2.308,0.792-3.201,2.375c-0.893,1.582-1.338,3.489-1.338,5.72
			c0,1.255,0.269,2.21,0.806,2.866c0.535,0.654,1.237,0.983,2.101,0.983c1.577,0,2.786-0.883,3.628-2.646
			c0.844-1.764,1.266-3.565,1.266-5.407c0-1.297-0.332-2.271-0.993-2.918C76.152,150.582,75.396,150.258,74.545,150.258"/>
		<path fill="#FFFFFF" d="M51.508,151.168c-0.712-0.579-1.498-0.869-2.364-0.869c-1.799,0-3.149,0.816-4.047,2.449
			c-0.9,1.631-1.35,3.297-1.35,5c0,1.227,0.353,2.246,1.056,3.062c0.704,0.816,1.566,1.223,2.585,1.223
			c1.589,0,2.851-0.812,3.785-2.436c0.934-1.625,1.402-3.427,1.402-5.408C52.575,152.753,52.219,151.747,51.508,151.168"/>
		<path fill="#3BAF29" d="M283.842,133.983c0,7.223-5.854,13.076-13.076,13.076c-7.221,0-13.076-5.853-13.076-13.076
			c0-7.222,5.855-13.075,13.076-13.075C277.988,120.908,283.842,126.761,283.842,133.983"/>
	</g>
	<g>
		<defs>
			<path id="SVGID_1_" d="M257.689,133.983c0,7.222,5.855,13.077,13.076,13.077c7.222,0,13.075-5.854,13.075-13.077
				c0-7.222-5.854-13.075-13.075-13.075C263.545,120.908,257.689,126.761,257.689,133.983"/>
		</defs>
		<clipPath id="SVGID_2_">
			<use xlink:href="#SVGID_1_"  overflow="visible"/>
		</clipPath>
		<g opacity="0.4" clip-path="url(#SVGID_2_)">
			<g>
				<defs>
					<rect id="SVGID_3_" x="260.764" y="124.326" width="26.536" height="26.026"/>
				</defs>
				<clipPath id="SVGID_4_">
					<use xlink:href="#SVGID_3_"  overflow="visible"/>
				</clipPath>
				<polygon clip-path="url(#SVGID_4_)" fill="#386639" points="260.764,136.431 272.31,150.354 287.3,138.22 275.87,124.326 
					268.628,130.638 				"/>
			</g>
		</g>
	</g>
	<g>
		<polygon fill="#FFFFFF" points="274.473,130.638 281.041,130.638 279.853,136.431 273.229,136.431 271.837,142.792 
			265.991,142.792 267.385,136.431 260.765,136.431 262.007,130.638 268.628,130.638 270.024,124.326 275.869,124.326 		"/>
		<path fill="#FFFFFF" d="M181.966,171.045c-0.063-0.035-0.121-0.064-0.174-0.093C181.848,170.982,181.905,171.015,181.966,171.045"
			/>
		<path fill="#312E2A" d="M32.152,145.07l1.756-8.22l-9.518,4.748l-0.732,3.472h-3.117l-1.254,6.086h3.053l-1.59,7.595
			c-0.404,1.939-0.606,3.131-0.606,3.576c0,1.352,0.499,2.602,1.495,3.744c0.996,1.144,2.689,1.715,5.074,1.715
			c1.198,0,3.081-0.173,5.646-0.521l1.275-6.088c-1.338,0.265-2.217,0.397-2.635,0.397c-1.324,0-1.987-0.503-1.987-1.505
			c0-0.379,0.055-0.733,0.167-1.067l1.631-7.846h4.456l1.297-6.086H32.152z"/>
		<path fill="#312E2A" d="M49.458,144.568c-2.915,0-5.425,0.59-7.531,1.768c-2.105,1.177-3.712,2.812-4.821,4.904
			c-1.109,2.094-1.663,4.262-1.663,6.508c0,2.857,0.927,5.244,2.782,7.162c1.854,1.918,4.727,2.876,8.617,2.876
			c3.067,0,5.651-0.621,7.75-1.861c2.098-1.242,3.671-2.921,4.717-5.041c1.046-2.118,1.569-4.204,1.569-6.255
			c0-2.689-0.911-5.04-2.73-7.048C56.328,145.573,53.431,144.568,49.458,144.568 M51.173,159.598
			c-0.935,1.624-2.196,2.436-3.785,2.436c-1.019,0-1.881-0.406-2.584-1.223c-0.704-0.816-1.055-1.836-1.055-3.062
			c0-1.703,0.449-3.369,1.348-5c0.899-1.633,2.249-2.449,4.048-2.449c0.865,0,1.651,0.29,2.363,0.867
			c0.711,0.581,1.066,1.588,1.066,3.023C52.574,156.171,52.107,157.973,51.173,159.598"/>
		<path fill="#312E2A" d="M81.783,136.599l-2.427,11.42c-1.59-2.329-3.946-3.492-7.069-3.492c-3.055,0-5.582,1.398-7.583,4.193
			c-2.001,2.797-3.001,6.077-3.001,9.84c0,2.818,0.665,5.061,1.998,6.726c1.332,1.667,3.251,2.5,5.762,2.5
			c1.339,0,2.494-0.195,3.462-0.586c0.969-0.39,2.053-1.143,3.252-2.259l0.084,0.105l-0.418,2.218h7.885l6.589-30.666H81.783z
			 M76.542,159.556c-0.843,1.764-2.052,2.646-3.628,2.646c-0.864,0-1.566-0.329-2.102-0.983c-0.537-0.656-0.805-1.61-0.805-2.865
			c0-2.231,0.445-4.139,1.338-5.721s1.959-2.375,3.201-2.375c0.851,0,1.607,0.324,2.27,0.973c0.662,0.646,0.994,1.621,0.994,2.918
			C77.808,155.99,77.386,157.792,76.542,159.556"/>
		<polygon fill="#312E2A" points="86.851,167.263 95.406,167.263 100.176,145.07 91.599,145.07 		"/>
		<polygon fill="#312E2A" points="101.933,136.599 93.398,136.599 92.207,142.455 100.72,142.455 		"/>
		<path fill="#312E2A" d="M113.152,145.07l1.757-8.22l-9.517,4.748l-0.732,3.472h-3.117l-1.255,6.086h3.053l-1.589,7.595
			c-0.404,1.939-0.608,3.131-0.608,3.576c0,1.352,0.5,2.602,1.498,3.744c0.997,1.144,2.687,1.715,5.072,1.715
			c1.197,0,3.081-0.173,5.648-0.521l1.275-6.088c-1.338,0.265-2.217,0.397-2.637,0.397c-1.323,0-1.985-0.503-1.985-1.505
			c0-0.379,0.056-0.733,0.167-1.067l1.631-7.846h4.456l1.296-6.086H113.152z"/>
		<path fill="#312E2A" d="M130.457,144.568c-2.914,0-5.423,0.59-7.53,1.768c-2.105,1.177-3.713,2.812-4.821,4.904
			c-1.109,2.094-1.663,4.262-1.663,6.508c0,2.857,0.929,5.244,2.782,7.162c1.855,1.918,4.728,2.876,8.618,2.876
			c3.067,0,5.65-0.621,7.75-1.861c2.099-1.242,3.67-2.921,4.716-5.041c1.046-2.118,1.568-4.204,1.568-6.255
			c0-2.689-0.91-5.04-2.729-7.048C137.328,145.573,134.432,144.568,130.457,144.568 M132.173,159.598
			c-0.935,1.624-2.196,2.436-3.787,2.436c-1.017,0-1.878-0.406-2.583-1.223c-0.704-0.816-1.057-1.836-1.057-3.062
			c0-1.703,0.45-3.369,1.349-5c0.9-1.633,2.25-2.449,4.047-2.449c0.865,0,1.653,0.29,2.364,0.867
			c0.712,0.581,1.067,1.588,1.067,3.023C133.575,156.171,133.106,157.973,132.173,159.598"/>
		<path fill="#3BAF29" d="M165.382,142.822c3.098,0,4.601,1.61,4.51,4.832h9.567c-0.091-4.601-1.532-8.005-4.323-10.214
			c-2.393-1.871-5.63-2.808-9.709-2.808c-5.428,0-9.799,1.918-13.111,5.751c-3.128,3.62-4.693,8.191-4.693,13.711
			c0,4.572,1.164,8.16,3.496,10.767c2.453,2.79,5.997,4.187,10.629,4.187c5.89,0,10.335-1.794,13.344-5.383
			c1.775-2.116,2.942-4.738,3.495-7.867h-9.939c-0.735,3.373-2.606,5.059-5.612,5.059c-3.525,0-5.29-2.314-5.29-6.945
			c0-2.791,0.565-5.213,1.701-7.268C160.857,144.096,162.836,142.822,165.382,142.822"/>
		<path fill="#3BAF29" d="M195.747,143.79c-3.283,0-5.86,0.505-7.73,1.517c-2.299,1.259-3.787,3.358-4.464,6.305h8.559
			c0.461-1.627,1.671-2.44,3.636-2.44c1.9,0,2.853,0.69,2.853,2.07c0,1.26-0.8,2.056-2.392,2.392
			c-0.124,0.062-1.552,0.186-4.281,0.369c-3.803,0.277-6.578,0.967-8.326,2.071c-2.148,1.35-3.222,3.495-3.222,6.441
			c0,2.146,0.782,3.772,2.346,4.876c1.349,0.981,3.146,1.472,5.385,1.472c3.312,0,5.765-0.966,7.362-2.898h0.091
			c-0.032,0.706,0.075,1.474,0.32,2.301h8.927c-0.247-1.072-0.367-1.778-0.367-2.116s0.483-2.736,1.448-7.199
			c0.966-4.465,1.449-7.4,1.449-8.812C207.34,145.905,203.475,143.79,195.747,143.79 M192.387,163.479
			c-1.931,0-2.896-0.689-2.896-2.071c0-1.593,0.979-2.482,2.943-2.668c2.178-0.184,3.787-0.535,4.832-1.058
			C196.649,161.548,195.024,163.479,192.387,163.479"/>
		<path fill="#3BAF29" d="M225.33,151.312h6.938c0-4.625-2.506-7.268-7.519-7.93l0.581-2.869h-1.675l-0.547,2.769h-0.614
			c-2.621,0-4.898,0.672-6.835,2.016c-2.188,1.504-3.28,3.521-3.28,6.049c0,2.188,0.659,3.827,1.98,4.922
			c0.798,0.683,2.232,1.345,4.307,1.983l1.333,0.41l-0.888,4.579c-1.369-0.296-2.074-1.299-2.12-3.008h-7.519
			c0,2.483,0.751,4.46,2.255,5.929c1.502,1.471,3.577,2.33,6.221,2.58l-0.685,3.385h1.675l0.684-3.28
			c3.076,0,5.641-0.604,7.69-1.812c2.506-1.48,3.759-3.701,3.759-6.666c0-3.418-1.938-5.674-5.809-6.767l-2.428-0.683l0.786-4.068
			C224.829,149.171,225.397,149.992,225.33,151.312 M219.485,150.767c0-1.345,0.821-2.04,2.461-2.085l-0.717,3.76
			C220.066,152.031,219.485,151.473,219.485,150.767 M223.964,161.43c0,1.39-1.072,2.062-3.213,2.015l0.818-4.271
			C223.165,159.721,223.964,160.472,223.964,161.43"/>
		<path fill="#3BAF29" d="M257.959,145.261c-1.35-0.982-3.176-1.471-5.475-1.471c-1.32,0-2.607,0.306-3.864,0.919
			c-1.352,0.674-2.425,1.58-3.222,2.714h-0.091l2.485-12.008h-9.111l-6.762,32.85h9.108l2.668-12.651
			c0.645-3.036,2.116-4.555,4.415-4.555c1.72,0,2.577,0.765,2.577,2.301c0,0.338-0.244,1.654-0.735,3.955l-2.347,10.95h9.11
			l2.898-13.479c0.429-1.994,0.645-3.512,0.645-4.557C260.26,148.021,259.491,146.365,257.959,145.261"/>
	</g>
</g>
</svg>
