<svg width="94" height="30" viewBox="0 0 94 30" fill="none" xmlns="http://www.w3.org/2000/svg">
<path d="M40.7999 29.5672H33.2662L37.9783 0.526367H45.5116L40.7999 29.5672Z" fill="#00579F"/>
<path d="M68.1101 1.2364C66.6241 0.648801 64.2672 0 61.353 0C53.9133 0 48.6743 3.9543 48.6421 9.6077C48.5803 13.7788 52.3931 16.0955 55.2447 17.4863C58.1594 18.9075 59.1502 19.8351 59.1502 21.1018C59.1205 23.0474 56.795 23.9442 54.626 23.9442C51.6182 23.9442 50.0066 23.4818 47.5574 22.3994L46.5654 21.9354L45.5112 28.4544C47.2781 29.2568 50.5335 29.9688 53.9132 30C61.8181 30 66.9644 26.1069 67.0254 20.0823C67.0554 16.7764 65.0421 14.2432 60.7016 12.1733C58.0667 10.8445 56.453 9.9485 56.453 8.589C56.4839 7.353 57.8179 6.0871 60.7923 6.0871C63.2414 6.025 65.0409 6.6118 66.4041 7.199L67.0855 7.5074L68.1101 1.2364Z" fill="#00579F"/>
<path d="M78.1229 19.2791C78.743 17.6107 81.1309 11.1537 81.1309 11.1537C81.0989 11.2157 81.7499 9.45457 82.1219 8.37337L82.6479 10.8757C82.6479 10.8757 84.075 17.8271 84.3849 19.2791C83.2069 19.2791 79.6109 19.2791 78.1229 19.2791ZM87.4219 0.526367H81.5949C79.798 0.526367 78.4329 1.05117 77.6569 2.93597L66.4671 29.5668H74.3719C74.3719 29.5668 75.673 25.9825 75.9529 25.2105C76.8199 25.2105 84.5099 25.2105 85.6259 25.2105C85.8419 26.2301 86.5249 29.5668 86.5249 29.5668H93.4999L87.4219 0.526367Z" fill="#00579F"/>
<path d="M26.9739 0.526367L19.596 20.3295L18.7897 16.3132C17.4257 11.6789 13.1478 6.64387 8.37396 4.14027L15.1319 29.5364H23.0985L34.9401 0.526367H26.9739Z" fill="#00579F"/>
<path d="M12.7449 0.526428H0.62397L0.499969 1.11323C9.95507 3.52313 16.217 9.33223 18.7897 16.3144L16.1548 2.96763C15.721 1.11283 14.3878 0.587628 12.7449 0.526428Z" fill="#FAA61A"/>
</svg>
