<svg width="512" height="236" viewBox="0 0 512 236" fill="none" xmlns="http://www.w3.org/2000/svg">
    <path d="M442.673 170.803H357.849L349.825 136.537L440.667 28.4746H489.722V134.532H512V170.803H489.722V204.823H442.673V170.803ZM442.673 134.784V84.5078L400.874 134.784H442.673Z"
          fill="url(#paint0_linear_7861_29500)"/>
    <path d="M185.938 175.66C146.231 203.448 171.707 239.764 233.267 233.561C294.828 227.357 336.586 252.183 361.65 214.956C386.713 177.728 331.153 163.493 274.149 163.631C217.145 163.768 202.186 164.295 185.938 175.66Z"
          fill="#1B1C27"/>
    <path d="M206.581 214.085L202.77 208.357C203.411 207.927 218.817 197.863 243.325 200.847L242.494 207.669C220.628 205.012 206.707 213.993 206.581 214.085Z"
          fill="white"/>
    <path d="M206.582 214.085L202.765 208.357C202.833 208.317 203.435 207.916 204.518 207.326L207.814 213.358C207.012 213.799 206.587 214.079 206.582 214.085ZM212.628 211.141L210.112 204.742C210.651 204.53 211.218 204.318 211.832 204.101L214.159 210.574C213.616 210.765 213.106 210.954 212.628 211.141ZM219.317 209.01L217.643 202.342C218.216 202.199 218.79 202.056 219.409 201.924L220.899 208.632C220.348 208.75 219.821 208.876 219.317 209.01ZM226.24 207.698L225.352 200.882C225.925 200.801 226.544 200.733 227.152 200.67L227.857 207.509C227.295 207.566 226.75 207.629 226.223 207.698H226.24ZM241.99 207.612C241.417 207.549 240.895 207.498 240.357 207.446L240.976 200.601C241.549 200.652 242.162 200.715 242.764 200.784L241.99 207.612ZM233.284 207.188L233.164 200.314C233.565 200.314 233.972 200.314 234.379 200.314H234.952L234.889 207.188H234.356C233.995 207.177 233.645 207.177 233.267 207.188H233.284Z"
          fill="black" fill-opacity="0.4"/>
    <path d="M204.381 218.771C208.008 218.771 210.949 215.832 210.949 212.206C210.949 208.581 208.008 205.642 204.381 205.642C200.753 205.642 197.812 208.581 197.812 212.206C197.812 215.832 200.753 218.771 204.381 218.771Z"
          fill="white"/>
    <path d="M230.263 191.482L230.229 190.336C235.627 190.187 237.353 185.146 237.37 185.095L238.453 185.456C238.436 185.513 236.459 191.321 230.263 191.482Z"
          fill="white"/>
    <path d="M312.583 216.245C312.549 216.078 309.116 199.891 291.824 186.263L296.083 180.867C315.483 196.156 319.18 214.159 319.329 214.916L312.577 216.233L315.953 215.574L312.583 216.245Z"
          fill="white"/>
    <path d="M312.583 216.245C312.583 216.245 312.48 215.741 312.222 214.859L318.831 212.951C319.175 214.137 319.318 214.841 319.329 214.916L312.578 216.233L315.953 215.575L312.583 216.245ZM310.411 209.881C310.205 209.411 309.987 208.918 309.746 208.409L315.976 205.493C316.246 206.066 316.492 206.639 316.727 207.16L310.411 209.881ZM307.219 203.643C306.95 203.19 306.646 202.726 306.371 202.262L312.165 198.591C312.494 199.114 312.809 199.629 313.111 200.137L307.219 203.643ZM303.276 197.817C302.949 197.388 302.611 196.964 302.267 196.534L307.62 192.215C308.004 192.691 308.377 193.166 308.738 193.636L303.276 197.817ZM298.691 192.461C298.318 192.072 297.934 191.682 297.544 191.316L302.387 186.43C302.817 186.859 303.241 187.289 303.648 187.718L298.691 192.461ZM293.532 187.627C293.12 187.283 292.701 186.934 292.271 186.59L296.564 181.223C297.04 181.601 297.504 181.985 297.963 182.368L293.532 187.627Z"
          fill="black" fill-opacity="0.4"/>
    <path d="M315.46 223.044C319.087 223.044 322.028 220.105 322.028 216.48C322.028 212.854 319.087 209.915 315.46 209.915C311.832 209.915 308.892 212.854 308.892 216.48C308.892 220.105 311.832 223.044 315.46 223.044Z"
          fill="white"/>
    <path d="M268.4 206.215H261.775L258.462 211.657L261.775 217.098H268.4L271.713 211.657L268.4 206.215ZM265.047 213.215C264.594 213.215 264.151 213.08 263.774 212.829C263.397 212.577 263.103 212.219 262.929 211.8C262.756 211.382 262.71 210.921 262.799 210.476C262.887 210.032 263.106 209.624 263.426 209.303C263.747 208.983 264.155 208.765 264.6 208.676C265.045 208.588 265.506 208.633 265.925 208.807C266.343 208.98 266.702 209.274 266.953 209.65C267.205 210.027 267.34 210.47 267.34 210.923C267.34 211.531 267.098 212.114 266.668 212.544C266.238 212.973 265.655 213.215 265.047 213.215Z"
          fill="white"/>
    <path d="M313.815 233.3L307.783 220.494L341.83 204.474C344.395 203.267 347.335 203.128 350.002 204.087C352.67 205.046 354.847 207.025 356.054 209.589L357.541 212.745L313.822 233.315L313.815 233.3Z"
          fill="url(#paint1_linear_7861_29500)"/>
    <path d="M339.039 200.761C340.483 200.761 341.653 199.592 341.653 198.149C341.653 196.707 340.483 195.537 339.039 195.537C337.596 195.537 336.426 196.707 336.426 198.149C336.426 199.592 337.596 200.761 339.039 200.761Z"
          fill="url(#paint2_linear_7861_29500)"/>
    <path d="M325.003 185.496H317.071C316.453 185.496 315.953 185.996 315.953 186.613V189.563C315.953 190.18 316.453 190.68 317.071 190.68H325.003C325.62 190.68 326.121 190.18 326.121 189.563V186.613C326.121 185.996 325.62 185.496 325.003 185.496Z"
          fill="#818EFF"/>
    <path d="M238.729 184.448C238.678 184.448 233.542 182.506 231.571 181.944C230.952 181.773 230.424 182.076 229.588 182.592C228.539 183.245 227.232 184.052 225.323 183.388C222.08 182.242 221.312 178.233 221.312 178.055L222.458 177.854C222.458 177.895 223.117 181.395 225.725 182.305C227.117 182.792 228.017 182.219 229.009 181.618C229.874 181.079 230.768 180.524 231.903 180.845C233.926 181.417 238.941 183.296 239.153 183.376L238.729 184.448Z"
          fill="white"/>
    <path d="M291.933 192.908C297.156 192.908 301.39 188.676 301.39 183.456C301.39 178.236 297.156 174.005 291.933 174.005C286.71 174.005 282.477 178.236 282.477 183.456C282.477 188.676 286.71 192.908 291.933 192.908Z"
          fill="white"/>
    <path d="M241.193 192.908C246.416 192.908 250.65 188.676 250.65 183.456C250.65 178.236 246.416 174.005 241.193 174.005C235.97 174.005 231.736 178.236 231.736 183.456C231.736 188.676 235.97 192.908 241.193 192.908Z"
          fill="white"/>
    <path d="M277.931 164.761H256.536C254.525 164.761 252.596 163.962 251.174 162.541C249.752 161.12 248.953 159.192 248.953 157.182V154.284H285.514V157.182C285.514 159.192 284.715 161.12 283.293 162.541C281.871 163.962 279.942 164.761 277.931 164.761Z"
          fill="white"/>
    <path d="M275.559 164.761H260.078V174.046H275.559V164.761Z" fill="#818EFF"/>
    <path d="M283.439 195.486H251.028C249.544 195.485 248.103 194.99 246.932 194.08C245.761 193.169 244.927 191.894 244.563 190.456L241.342 177.694C241.093 176.711 241.072 175.684 241.281 174.691C241.49 173.699 241.922 172.767 242.546 171.967C243.169 171.167 243.967 170.52 244.879 170.075C245.791 169.63 246.792 169.399 247.807 169.399H286.666C287.68 169.399 288.682 169.63 289.593 170.075C290.505 170.52 291.303 171.167 291.927 171.967C292.55 172.767 292.983 173.699 293.191 174.691C293.4 175.684 293.379 176.711 293.131 177.694L289.904 190.456C289.54 191.894 288.707 193.17 287.536 194.081C286.365 194.992 284.923 195.486 283.439 195.486Z"
          fill="url(#paint3_linear_7861_29500)"/>
    <path d="M436.535 153.012L437.561 153.585C437.634 153.625 437.695 153.683 437.737 153.755C437.779 153.827 437.802 153.908 437.802 153.991C437.802 154.074 437.779 154.156 437.737 154.228C437.695 154.299 437.634 154.358 437.561 154.398L436.535 154.971C436.455 155.012 436.389 155.075 436.346 155.154L435.773 156.18C435.733 156.252 435.674 156.313 435.602 156.355C435.531 156.398 435.449 156.42 435.366 156.42C435.283 156.42 435.201 156.398 435.129 156.355C435.058 156.313 434.999 156.252 434.959 156.18L434.386 155.154C434.346 155.075 434.282 155.01 434.202 154.971L433.176 154.398C433.103 154.358 433.043 154.299 433 154.228C432.958 154.156 432.936 154.074 432.936 153.991C432.936 153.908 432.958 153.827 433 153.755C433.043 153.683 433.103 153.625 433.176 153.585L434.202 153.012C434.282 152.972 434.346 152.908 434.386 152.829L434.959 151.803C434.999 151.73 435.058 151.67 435.129 151.627C435.201 151.585 435.283 151.562 435.366 151.562C435.449 151.563 435.531 151.585 435.602 151.627C435.674 151.67 435.733 151.73 435.773 151.803L436.346 152.829C436.389 152.907 436.455 152.971 436.535 153.012Z"
          fill="white"/>
    <path d="M92.8481 170.803H8.02391L0 136.537L90.8479 28.4746H139.903V134.532H162.175V170.803H139.903V204.823H92.8481V170.803ZM92.8481 134.784V84.5078L51.055 134.784H92.8481Z"
          fill="url(#paint4_linear_7861_29500)"/>
    <path d="M41.4611 128.191L43.3926 129.251C43.5301 129.326 43.6449 129.436 43.725 129.571C43.805 129.706 43.8472 129.859 43.8472 130.016C43.8472 130.172 43.805 130.326 43.725 130.461C43.6449 130.595 43.5301 130.706 43.3926 130.781L41.4611 131.834C41.3126 131.914 41.191 132.036 41.1115 132.184L40.0569 134.114C39.982 134.252 39.8714 134.367 39.7368 134.447C39.6021 134.526 39.4484 134.569 39.2918 134.569C39.1351 134.569 38.9814 134.526 38.8467 134.447C38.7121 134.367 38.6015 134.252 38.5266 134.114L37.4663 132.184C37.3873 132.037 37.268 131.916 37.1224 131.834L35.191 130.781C35.0534 130.706 34.9386 130.595 34.8586 130.461C34.7786 130.326 34.7363 130.172 34.7363 130.016C34.7363 129.859 34.7786 129.706 34.8586 129.571C34.9386 129.436 35.0534 129.326 35.191 129.251L37.1224 128.191C37.2665 128.111 37.3854 127.992 37.4663 127.848L38.5266 125.917C38.6015 125.78 38.7121 125.665 38.8467 125.585C38.9814 125.505 39.1351 125.463 39.2918 125.463C39.4484 125.463 39.6021 125.505 39.7368 125.585C39.8714 125.665 39.982 125.78 40.0569 125.917L41.1115 127.848C41.1929 127.993 41.3142 128.112 41.4611 128.191Z"
          fill="white"/>
    <path d="M211.63 154.575C211.281 154.478 202.988 152.175 198.924 144.975C196.505 140.69 196.087 135.701 197.686 130.15C202.81 112.347 222.795 109.683 223.643 109.58L224.474 116.402C223.81 116.488 208.134 118.654 204.277 132.046C203.211 135.764 203.417 138.977 204.896 141.601C207.515 146.241 213.344 147.902 213.407 147.936L211.63 154.575Z"
          fill="white"/>
    <path d="M204.868 151.321C204.295 150.949 203.802 150.554 203.315 150.176L207.699 144.877C208.037 145.152 208.398 145.45 208.777 145.69L204.868 151.321ZM198.976 145.066C198.634 144.468 198.328 143.85 198.059 143.216L204.415 140.558C204.573 140.933 204.753 141.298 204.954 141.652L198.976 145.066ZM196.964 136.583V136.468C196.964 135.855 196.884 135.219 196.964 134.583L203.756 135.225C203.716 135.643 203.756 136.061 203.756 136.462L196.964 136.583ZM204.719 130.751L198.254 128.403C198.472 127.83 198.707 127.223 198.965 126.65L205.24 129.457C205.051 129.886 204.874 130.316 204.719 130.751ZM207.642 125.516L202.249 121.248C202.633 120.761 203.045 120.274 203.469 119.81L208.547 124.45C208.232 124.794 207.928 125.155 207.642 125.516ZM212.112 121.34L208.152 115.709C208.645 115.36 209.161 115.016 209.688 114.689L213.316 120.532C212.903 120.796 212.496 121.065 212.112 121.34ZM217.689 118.327L215.093 111.963C215.666 111.739 216.21 111.522 216.778 111.321L219.07 117.8C218.629 117.96 218.17 118.138 217.689 118.327Z"
          fill="black" fill-opacity="0.4"/>
    <path d="M211.636 154.575C211.562 154.575 211.166 154.449 210.559 154.232L212.851 147.753C213.166 147.867 213.373 147.931 213.424 147.942L211.636 154.575Z"
          fill="black" fill-opacity="0.4"/>
    <path d="M224.141 143.245L217.871 140.505L204.674 170.667L210.944 173.407L224.141 143.245Z"
          fill="url(#paint5_linear_7861_29500)"/>
    <path d="M208.33 170.911C207.323 170.472 206.209 170.341 205.128 170.534C204.046 170.728 203.047 171.237 202.256 171.998C201.464 172.76 200.916 173.738 200.681 174.811C200.446 175.883 200.535 177.001 200.936 178.023C201.336 179.045 202.031 179.926 202.933 180.553C203.834 181.18 204.901 181.526 205.999 181.547C207.098 181.569 208.177 181.264 209.102 180.672C210.027 180.08 210.756 179.227 211.195 178.221C211.784 176.871 211.812 175.344 211.275 173.974C210.738 172.603 209.679 171.502 208.33 170.911ZM204.988 178.582C204.477 178.358 204.044 177.989 203.743 177.519C203.443 177.05 203.288 176.502 203.299 175.945C203.309 175.388 203.485 174.846 203.804 174.389C204.122 173.931 204.57 173.579 205.089 173.375C205.608 173.172 206.176 173.127 206.721 173.246C207.265 173.365 207.762 173.643 208.149 174.045C208.536 174.446 208.795 174.953 208.893 175.502C208.992 176.05 208.925 176.616 208.702 177.127C208.554 177.466 208.34 177.773 208.074 178.029C207.807 178.286 207.492 178.488 207.147 178.623C206.802 178.758 206.434 178.824 206.063 178.817C205.693 178.81 205.328 178.73 204.988 178.582Z"
          fill="url(#paint6_linear_7861_29500)"/>
    <path d="M177.432 179.776L180.72 178.607C183.391 177.657 186.33 177.806 188.89 179.022C191.451 180.238 193.424 182.42 194.374 185.09L206.992 220.524L193.633 225.275L177.434 179.782L177.432 179.776Z"
          fill="url(#paint7_linear_7861_29500)"/>
    <path d="M331.645 118.001H325.845L319.266 114.043L319.856 113.063L326.166 116.856H331.645V118.001Z" fill="white"/>
    <path d="M223.839 116.511L222.601 109.746C223.265 109.626 223.644 109.58 223.644 109.58L224.475 116.402C224.475 116.408 224.223 116.437 223.839 116.511Z"
          fill="black" fill-opacity="0.4"/>
    <path d="M224.062 122.44C229.285 122.44 233.519 118.209 233.519 112.989C233.519 107.769 229.285 103.537 224.062 103.537C218.839 103.537 214.605 107.769 214.605 112.989C214.605 118.209 218.839 122.44 224.062 122.44Z"
          fill="white"/>
    <path d="M318.795 108.04L318.331 106.992C318.331 106.992 321.455 105.6 322.727 104.804C323.036 104.609 323.329 103.658 323.564 102.856C323.971 101.51 324.389 100.118 325.421 99.6543C325.686 99.546 325.972 99.4975 326.259 99.5124C326.545 99.5272 326.824 99.605 327.077 99.7403C327.764 100.07 328.414 100.473 329.014 100.943C330.075 101.734 330.734 102.215 333.347 101.711L333.559 102.856C330.585 103.429 329.633 102.856 328.332 101.883C327.8 101.46 327.224 101.097 326.613 100.8C326.177 100.599 325.977 100.691 325.908 100.72C325.335 100.966 324.979 102.209 324.681 103.206C324.332 104.351 324.028 105.371 323.352 105.795C321.993 106.614 318.927 107.977 318.795 108.04Z"
          fill="white"/>
    <path d="M312.359 122.44C317.582 122.44 321.816 118.209 321.816 112.989C321.816 107.769 317.582 103.537 312.359 103.537C307.136 103.537 302.902 107.769 302.902 112.989C302.902 118.209 307.136 122.44 312.359 122.44Z"
          fill="white"/>
    <path d="M285.514 107.513H248.953V104.614C248.953 102.604 249.752 100.677 251.174 99.2555C252.596 97.8343 254.525 97.0358 256.536 97.0358H277.931C279.942 97.0358 281.871 97.8343 283.293 99.2555C284.715 100.677 285.514 102.604 285.514 104.614V107.513Z"
          fill="white"/>
    <path d="M296.81 100.261H237.656C230.803 100.261 225.248 105.813 225.248 112.662V146.946C225.248 153.795 230.803 159.347 237.656 159.347H296.81C303.663 159.347 309.218 153.795 309.218 146.946V112.662C309.218 105.813 303.663 100.261 296.81 100.261Z"
          fill="url(#paint8_linear_7861_29500)"/>
    <path d="M216.124 162.314C221.164 162.314 225.249 158.231 225.249 153.194C225.249 148.158 221.164 144.075 216.124 144.075C211.085 144.075 207 148.158 207 153.194C207 158.231 211.085 162.314 216.124 162.314Z"
          fill="url(#paint9_linear_7861_29500)"/>
    <path d="M292.002 114.759H242.46C240.814 114.759 239.479 116.092 239.479 117.737V146.356C239.479 148.001 240.814 149.334 242.46 149.334H292.002C293.648 149.334 294.982 148.001 294.982 146.356V117.737C294.982 116.092 293.648 114.759 292.002 114.759Z"
          fill="white"/>
    <path d="M292.008 114.759H242.466C240.82 114.759 239.485 116.092 239.485 117.737V146.356C239.485 148.001 240.82 149.334 242.466 149.334H292.008C293.654 149.334 294.988 148.001 294.988 146.356V117.737C294.988 116.092 293.654 114.759 292.008 114.759Z"
          fill="#2F303E"/>
    <path d="M277.588 151.305L275.868 151.27L275.977 145.92C276.002 144.97 276.397 144.066 277.077 143.401C277.758 142.736 278.671 142.362 279.622 142.357H296.69V144.076H279.622C279.12 144.077 278.638 144.274 278.278 144.625C277.919 144.976 277.71 145.453 277.696 145.955L277.588 151.305Z"
          fill="#1B1C27"/>
    <path d="M280.574 154.295L278.854 154.255L278.998 147.461C279.011 146.896 279.244 146.359 279.648 145.963C280.051 145.568 280.593 145.345 281.159 145.342H299.648V147.06H281.159C281.042 147.06 280.931 147.106 280.848 147.187C280.766 147.269 280.719 147.38 280.717 147.496L280.574 154.295Z"
          fill="#1B1C27"/>
    <path d="M264.904 112.846H296.427V130.603C296.427 131.842 296.183 133.069 295.708 134.213C295.234 135.358 294.539 136.398 293.662 137.274C292.785 138.15 291.745 138.845 290.6 139.319C289.454 139.793 288.227 140.037 286.987 140.037H274.344C271.84 140.037 269.439 139.043 267.669 137.274C265.899 135.505 264.904 133.105 264.904 130.603V112.846Z"
          fill="#1B1C27"/>
    <path d="M287.429 128.529C287.426 127.912 287.355 127.297 287.217 126.696L289.011 125.098L287.079 121.752L284.787 122.514C283.872 121.709 282.786 121.122 281.612 120.796L281.13 118.573H277.267L276.786 120.796C275.606 121.142 274.521 121.751 273.611 122.577L271.318 121.787L269.387 125.115L271.181 126.702C270.898 127.905 270.898 129.158 271.181 130.362L269.387 131.954L271.318 135.3L273.611 134.538C274.506 135.451 275.589 136.159 276.786 136.611L277.267 139.195H281.13L281.612 136.611C282.802 136.203 283.886 135.536 284.787 134.658L287.079 135.357L289.011 131.983L287.217 130.373C287.355 129.768 287.426 129.15 287.429 128.529ZM279.21 133.192C278.286 133.192 277.383 132.918 276.615 132.404C275.846 131.891 275.248 131.162 274.894 130.308C274.541 129.455 274.449 128.516 274.629 127.61C274.81 126.704 275.256 125.873 275.909 125.22C276.563 124.567 277.396 124.123 278.303 123.944C279.209 123.764 280.148 123.857 281.002 124.212C281.855 124.566 282.584 125.165 283.097 125.934C283.609 126.702 283.882 127.605 283.881 128.529C283.881 129.142 283.76 129.748 283.526 130.315C283.291 130.881 282.947 131.395 282.513 131.828C282.079 132.261 281.564 132.604 280.997 132.838C280.431 133.072 279.823 133.192 279.21 133.192Z"
          fill="url(#paint10_linear_7861_29500)"/>
    <path d="M275.329 145.244C275.563 144.898 275.756 144.525 275.902 144.133L277.53 143.927L277.737 141.303L276.155 140.845C275.959 140.034 275.581 139.277 275.048 138.634L275.656 137.173L273.484 135.684L272.338 136.772C271.538 136.512 270.688 136.439 269.856 136.561L268.87 135.237L266.497 136.383L266.893 137.975C266.584 138.259 266.307 138.576 266.067 138.921C265.838 139.27 265.646 139.642 265.494 140.032L263.872 140.238L263.666 142.862L265.242 143.32C265.422 144.153 265.787 144.936 266.308 145.611L265.666 147.123L267.844 148.618L269.025 147.473C269.833 147.721 270.688 147.784 271.524 147.656L272.521 148.962L274.899 147.816L274.504 146.224C274.816 145.931 275.093 145.602 275.329 145.244ZM268.904 144.7C268.385 144.344 267.982 143.842 267.748 143.257C267.514 142.672 267.459 142.031 267.589 141.415C267.72 140.798 268.03 140.235 268.481 139.795C268.932 139.355 269.504 139.058 270.123 138.943C270.743 138.827 271.383 138.898 271.962 139.147C272.542 139.395 273.034 139.809 273.378 140.337C273.722 140.865 273.901 141.483 273.893 142.113C273.886 142.743 273.691 143.356 273.335 143.875C272.856 144.571 272.121 145.048 271.29 145.203C270.46 145.357 269.602 145.177 268.904 144.7Z"
          fill="url(#paint11_linear_7861_29500)"/>
    <path d="M248.954 112.33H267.524V121.919C267.524 122.907 267.131 123.854 266.433 124.552C265.734 125.25 264.786 125.642 263.798 125.642H252.679C251.691 125.642 250.744 125.25 250.045 124.552C249.347 123.854 248.954 122.907 248.954 121.919V112.33Z"
          fill="url(#paint12_linear_7861_29500)"/>
    <path d="M253.143 123.34C253.802 123.34 254.335 122.807 254.335 122.148C254.335 121.49 253.802 120.957 253.143 120.957C252.485 120.957 251.951 121.49 251.951 122.148C251.951 122.807 252.485 123.34 253.143 123.34Z"
          fill="url(#paint13_linear_7861_29500)"/>
    <path d="M249.619 133.466H248.473V131.49C248.473 130.73 248.775 130.002 249.312 129.465C249.849 128.928 250.578 128.626 251.338 128.626C251.794 128.626 252.232 128.445 252.554 128.122C252.877 127.8 253.058 127.363 253.058 126.907V125.59H254.204V126.907C254.204 127.667 253.902 128.395 253.365 128.933C252.827 129.47 252.098 129.771 251.338 129.771C250.882 129.771 250.445 129.952 250.123 130.275C249.8 130.597 249.619 131.034 249.619 131.49V133.466Z"
          fill="#1B1C27"/>
    <path d="M255.998 126.021H254.852V134.04H255.998V126.021Z" fill="#1B1C27"/>
    <path d="M257.758 123.34C258.416 123.34 258.95 122.807 258.95 122.148C258.95 121.49 258.416 120.957 257.758 120.957C257.099 120.957 256.565 121.49 256.565 122.148C256.565 122.807 257.099 123.34 257.758 123.34Z"
          fill="#1B1C27"/>
    <path d="M258.64 133.192H247.125C245.131 133.192 243.515 134.808 243.515 136.801V150.388C243.515 152.381 245.131 153.997 247.125 153.997H258.64C260.634 153.997 262.25 152.381 262.25 150.388V136.801C262.25 134.808 260.634 133.192 258.64 133.192Z"
          fill="url(#paint14_linear_7861_29500)"/>
    <path d="M243.515 137.368H251.539C251.89 137.368 252.226 137.508 252.475 137.756C252.723 138.004 252.863 138.34 252.863 138.691C252.863 139.042 252.723 139.379 252.475 139.627C252.226 139.875 251.89 140.015 251.539 140.015H243.515V137.368Z"
          fill="#1B1C27"/>
    <path d="M243.515 143.451H251.539C251.89 143.451 252.226 143.591 252.475 143.839C252.723 144.087 252.863 144.423 252.863 144.774C252.863 145.125 252.723 145.462 252.475 145.71C252.226 145.958 251.89 146.098 251.539 146.098H243.515V143.451Z"
          fill="#1B1C27"/>
    <path d="M279.21 131.462C280.834 131.462 282.15 130.146 282.15 128.524C282.15 126.901 280.834 125.585 279.21 125.585C277.586 125.585 276.27 126.901 276.27 128.524C276.27 130.146 277.586 131.462 279.21 131.462Z"
          fill="#1B1C27"/>
    <path opacity="0.2" d="M300.851 112.33H238.23V117.199H300.851V112.33Z" fill="#1B1C27"/>
    <path d="M297.142 139.276C297.142 138.222 296.289 137.368 295.237 137.368C294.184 137.368 293.331 138.222 293.331 139.276V144.19C293.331 145.244 294.184 146.098 295.237 146.098C296.289 146.098 297.142 145.244 297.142 144.19V139.276Z"
          fill="#818EFF"/>
    <path d="M222.182 124.983C222.182 124.983 221.288 124.525 220.463 125.607C219.637 126.69 214.857 130.9 217.769 135.053C220.68 139.206 228.211 139.75 231.197 136.812C233.851 134.2 233.284 131.422 231.771 128.008C231.008 126.289 230.596 126.289 229.782 126.18L229.277 130.23C229.161 131.143 228.69 131.973 227.966 132.541C227.242 133.109 226.323 133.37 225.409 133.266L224.75 133.192C224.29 133.14 223.846 132.999 223.442 132.775C223.037 132.551 222.682 132.249 222.395 131.887C222.108 131.525 221.896 131.109 221.771 130.665C221.646 130.22 221.61 129.755 221.666 129.296L222.182 124.983Z"
          fill="url(#paint15_linear_7861_29500)"/>
    <path d="M217.425 134.458C217.951 135.478 218.241 136.602 218.276 137.749C218.311 138.896 218.089 140.036 217.625 141.086L223.901 143.824C223.901 143.824 225.764 139.361 230.252 137.557L217.425 134.458Z"
          fill="url(#paint16_linear_7861_29500)"/>
    <path d="M297.142 120.745C297.142 119.692 296.289 118.838 295.237 118.838C294.184 118.838 293.331 119.692 293.331 120.745V125.66C293.331 126.714 294.184 127.568 295.237 127.568C296.289 127.568 297.142 126.714 297.142 125.66V120.745Z"
          fill="#818EFF"/>
    <path d="M132.64 90.3966L134.486 91.4048C134.618 91.476 134.728 91.5815 134.804 91.71C134.881 91.8386 134.921 91.9855 134.921 92.1351C134.921 92.2847 134.881 92.4316 134.804 92.5601C134.728 92.6887 134.618 92.7942 134.486 92.8654L132.64 93.8736C132.503 93.9524 132.39 94.0673 132.314 94.2058L131.299 96.0503C131.228 96.1819 131.123 96.2918 130.994 96.3683C130.865 96.4449 130.718 96.4853 130.569 96.4853C130.419 96.4853 130.272 96.4449 130.143 96.3683C130.015 96.2918 129.909 96.1819 129.838 96.0503L128.829 94.2058C128.753 94.0673 128.64 93.9524 128.502 93.8736L126.657 92.8654C126.525 92.7942 126.415 92.6887 126.339 92.5601C126.262 92.4316 126.222 92.2847 126.222 92.1351C126.222 91.9855 126.262 91.8386 126.339 91.71C126.415 91.5815 126.525 91.476 126.657 91.4048L128.502 90.3966C128.642 90.3209 128.756 90.2052 128.829 90.0644L129.838 88.2199C129.91 88.0899 130.016 87.9816 130.145 87.9062C130.273 87.8308 130.42 87.791 130.569 87.791C130.718 87.791 130.864 87.8308 130.992 87.9062C131.121 87.9816 131.227 88.0899 131.299 88.2199L132.314 90.0644C132.387 90.2052 132.501 90.3209 132.64 90.3966Z"
          fill="white"/>
    <path d="M275.559 87.75H260.078V97.0354H275.559V87.75Z" fill="#818EFF"/>
    <path d="M240.93 80.7676H293.538V82.1538C293.538 84.5648 292.58 86.877 290.874 88.5819C289.168 90.2867 286.855 91.2444 284.442 91.2444H250.025C247.613 91.2444 245.3 90.2867 243.594 88.5819C241.888 86.877 240.93 84.5648 240.93 82.1538V80.7676Z"
          fill="white"/>
    <path d="M482.014 54.8073L483.945 55.8613C484.083 55.9361 484.198 56.0467 484.278 56.1813C484.358 56.3158 484.4 56.4695 484.4 56.626C484.4 56.7826 484.358 56.9362 484.278 57.0708C484.198 57.2054 484.083 57.3159 483.945 57.3907L482.014 58.4275C481.865 58.5018 481.744 58.6225 481.67 58.7712L480.61 60.7188C480.535 60.8563 480.424 60.9711 480.289 61.051C480.155 61.131 480.001 61.1732 479.844 61.1732C479.688 61.1732 479.534 61.131 479.399 61.051C479.265 60.9711 479.154 60.8563 479.079 60.7188L478.025 58.7884C477.947 58.6404 477.825 58.5203 477.675 58.4447L475.744 57.385C475.606 57.3102 475.491 57.1996 475.411 57.065C475.331 56.9305 475.289 56.7768 475.289 56.6203C475.289 56.4637 475.331 56.3101 475.411 56.1755C475.491 56.0409 475.606 55.9304 475.744 55.8556L477.675 54.8016C477.824 54.7221 477.945 54.6005 478.025 54.4522L479.079 52.5218C479.154 52.3843 479.265 52.2695 479.399 52.1895C479.534 52.1096 479.688 52.0674 479.844 52.0674C480.001 52.0674 480.155 52.1096 480.289 52.1895C480.424 52.2695 480.535 52.3843 480.61 52.5218L481.67 54.4522C481.745 54.6036 481.865 54.7277 482.014 54.8073Z"
          fill="white"/>
    <path d="M319.713 66.458H313.614V50.3732H319.713C321.218 50.3732 322.661 50.9707 323.725 52.0342C324.789 53.0977 325.387 54.5401 325.387 56.0442V60.81C325.381 62.3101 324.78 63.7466 323.717 64.8052C322.653 65.8637 321.214 66.458 319.713 66.458Z"
          fill="url(#paint17_linear_7861_29500)"/>
    <path d="M214.572 50.3564H220.652V66.4469H214.572C213.067 66.4469 211.623 65.8495 210.559 64.786C209.495 63.7225 208.897 62.28 208.897 60.776V56.0274C208.897 54.5233 209.495 53.0809 210.559 52.0174C211.623 50.9539 213.067 50.3564 214.572 50.3564Z"
          fill="url(#paint18_linear_7861_29500)"/>
    <path d="M316.498 71.8711H307.735V44.9486H316.498C317.294 44.9486 318.058 45.2648 318.621 45.8277C319.185 46.3906 319.501 47.1541 319.501 47.9501V68.8695C319.501 69.6656 319.185 70.429 318.621 70.992C318.058 71.5549 317.294 71.8711 316.498 71.8711Z"
          fill="white"/>
    <path d="M217.786 44.9443H226.555V71.8669H217.786C216.99 71.8669 216.226 71.5506 215.663 70.9877C215.1 70.4248 214.783 69.6613 214.783 68.8653V47.9516C214.782 47.557 214.86 47.1661 215.01 46.8012C215.161 46.4364 215.382 46.1048 215.661 45.8255C215.94 45.5462 216.271 45.3246 216.636 45.1734C217.001 45.0222 217.392 44.9443 217.786 44.9443Z"
          fill="white"/>
    <path d="M301.155 32.4102C304.665 32.4102 307.511 29.5661 307.511 26.0576C307.511 22.5492 304.665 19.7051 301.155 19.7051C297.645 19.7051 294.799 22.5492 294.799 26.0576C294.799 29.5661 297.645 32.4102 301.155 32.4102Z"
          fill="white"/>
    <path d="M234.602 32.4102C238.113 32.4102 240.958 29.5661 240.958 26.0576C240.958 22.5492 238.113 19.7051 234.602 19.7051C231.092 19.7051 228.246 22.5492 228.246 26.0576C228.246 29.5661 231.092 32.4102 234.602 32.4102Z"
          fill="white"/>
    <path d="M296.81 26.3838H237.656C230.803 26.3838 225.248 31.9361 225.248 38.7853V73.0686C225.248 79.9178 230.803 85.4701 237.656 85.4701H296.81C303.663 85.4701 309.218 79.9178 309.218 73.0686V38.7853C309.218 31.9361 303.663 26.3838 296.81 26.3838Z"
          fill="url(#paint19_linear_7861_29500)"/>
    <path d="M277.828 71.877H257.241V78.6763H277.828V71.877Z" fill="white"/>
    <path d="M248.455 66.4636C253.678 66.4636 257.912 62.232 257.912 57.0121C257.912 51.7921 253.678 47.5605 248.455 47.5605C243.232 47.5605 238.998 51.7921 238.998 57.0121C238.998 62.232 243.232 66.4636 248.455 66.4636Z"
          fill="white"/>
    <path d="M248.455 63.228C251.889 63.228 254.673 60.4454 254.673 57.0129C254.673 53.5804 251.889 50.7979 248.455 50.7979C245.02 50.7979 242.236 53.5804 242.236 57.0129C242.236 60.4454 245.02 63.228 248.455 63.228Z"
          fill="url(#paint20_linear_7861_29500)"/>
    <path d="M292.608 60.4886L282.679 50.565C281.73 49.6166 280.192 49.6166 279.243 50.565C278.294 51.5135 278.294 53.0513 279.243 53.9998L289.172 63.9234C290.121 64.8719 291.659 64.8719 292.608 63.9234C293.557 62.9749 293.557 61.4371 292.608 60.4886Z"
          fill="white"/>
    <path d="M282.684 63.9203L292.613 53.9967C293.562 53.0482 293.562 51.5104 292.613 50.5619C291.664 49.6134 290.125 49.6134 289.176 50.5619L279.247 60.4855C278.298 61.434 278.298 62.9718 279.247 63.9203C280.196 64.8688 281.735 64.8688 282.684 63.9203Z"
          fill="white"/>
    <path d="M233.805 22.4314L232.143 21.9788C232.195 21.807 233.289 17.6769 230.263 16.8234C228.948 16.5242 227.594 16.4334 226.251 16.5542C224.131 16.6344 221.729 16.7318 220.973 14.0682C220.342 11.8628 222.497 10.6313 224.228 9.60592C226.417 8.33426 227.122 7.70989 226.704 6.74182C226.016 5.12647 224.904 4.82288 223.724 4.50783C222.663 4.21569 221.431 3.88919 220.921 2.53733L222.52 1.90723C222.721 2.41131 223.133 2.56598 224.176 2.84666C225.483 3.20181 227.271 3.6887 228.286 6.0659C229.375 8.61495 226.899 10.0756 225.093 11.101C223.374 12.0862 222.377 12.745 222.623 13.5985C222.984 14.8529 223.838 14.9331 226.182 14.8415C227.698 14.7111 229.225 14.8252 230.704 15.1795C234.441 16.222 234.367 20.3807 233.805 22.4314Z"
          fill="white"/>
    <path d="M221.426 4.70858C222.727 4.70858 223.781 3.65453 223.781 2.35429C223.781 1.05405 222.727 0 221.426 0C220.125 0 219.07 1.05405 219.07 2.35429C219.07 3.65453 220.125 4.70858 221.426 4.70858Z"
          fill="url(#paint21_linear_7861_29500)"/>
    <defs>
        <linearGradient id="paint0_linear_7861_29500" x1="430.913" y1="28.4746" x2="430.913" y2="204.823"
                        gradientUnits="userSpaceOnUse">
            <stop stop-color="#707EFF"/>
            <stop offset="1" stop-color="#707EFF"/>
        </linearGradient>
        <linearGradient id="paint1_linear_7861_29500" x1="310.803" y1="226.905" x2="354.512" y2="206.316"
                        gradientUnits="userSpaceOnUse">
            <stop stop-color="#707EFF"/>
            <stop offset="1" stop-color="#707EFF"/>
        </linearGradient>
        <linearGradient id="paint2_linear_7861_29500" x1="339.039" y1="195.537" x2="339.039" y2="200.761"
                        gradientUnits="userSpaceOnUse">
            <stop stop-color="#707EFF"/>
            <stop offset="1" stop-color="#707EFF"/>
        </linearGradient>
        <linearGradient id="paint3_linear_7861_29500" x1="267.236" y1="169.399" x2="267.236" y2="195.486"
                        gradientUnits="userSpaceOnUse">
            <stop stop-color="#707EFF"/>
            <stop offset="1" stop-color="#707EFF"/>
        </linearGradient>
        <linearGradient id="paint4_linear_7861_29500" x1="81.0873" y1="28.4746" x2="81.0873" y2="204.823"
                        gradientUnits="userSpaceOnUse">
            <stop stop-color="#707EFF"/>
            <stop offset="1" stop-color="#707EFF"/>
        </linearGradient>
        <linearGradient id="paint5_linear_7861_29500" x1="221.006" y1="141.875" x2="207.821" y2="172.042"
                        gradientUnits="userSpaceOnUse">
            <stop stop-color="#707EFF"/>
            <stop offset="1" stop-color="#707EFF"/>
        </linearGradient>
        <linearGradient id="paint6_linear_7861_29500" x1="206.106" y1="170.447" x2="206.106" y2="181.549"
                        gradientUnits="userSpaceOnUse">
            <stop stop-color="#707EFF"/>
            <stop offset="1" stop-color="#707EFF"/>
        </linearGradient>
        <linearGradient id="paint7_linear_7861_29500" x1="184.111" y1="177.401" x2="200.297" y2="222.905"
                        gradientUnits="userSpaceOnUse">
            <stop stop-color="#707EFF"/>
            <stop offset="1" stop-color="#707EFF"/>
        </linearGradient>
        <linearGradient id="paint8_linear_7861_29500" x1="267.233" y1="100.261" x2="267.233" y2="159.347"
                        gradientUnits="userSpaceOnUse">
            <stop stop-color="#707EFF"/>
            <stop offset="1" stop-color="#707EFF"/>
        </linearGradient>
        <linearGradient id="paint9_linear_7861_29500" x1="216.124" y1="144.075" x2="216.124" y2="162.314"
                        gradientUnits="userSpaceOnUse">
            <stop stop-color="#707EFF"/>
            <stop offset="1" stop-color="#707EFF"/>
        </linearGradient>
        <linearGradient id="paint10_linear_7861_29500" x1="279.199" y1="118.573" x2="279.199" y2="139.195"
                        gradientUnits="userSpaceOnUse">
            <stop stop-color="#707EFF"/>
            <stop offset="1" stop-color="#707EFF"/>
        </linearGradient>
        <linearGradient id="paint11_linear_7861_29500" x1="270.701" y1="135.237" x2="270.701" y2="148.962"
                        gradientUnits="userSpaceOnUse">
            <stop stop-color="#707EFF"/>
            <stop offset="1" stop-color="#707EFF"/>
        </linearGradient>
        <linearGradient id="paint12_linear_7861_29500" x1="258.239" y1="112.33" x2="258.239" y2="125.642"
                        gradientUnits="userSpaceOnUse">
            <stop stop-color="#707EFF"/>
            <stop offset="1" stop-color="#707EFF"/>
        </linearGradient>
        <linearGradient id="paint13_linear_7861_29500" x1="253.143" y1="120.957" x2="253.143" y2="123.34"
                        gradientUnits="userSpaceOnUse">
            <stop stop-color="#707EFF"/>
            <stop offset="1" stop-color="#707EFF"/>
        </linearGradient>
        <linearGradient id="paint14_linear_7861_29500" x1="252.883" y1="133.192" x2="252.883" y2="153.997"
                        gradientUnits="userSpaceOnUse">
            <stop stop-color="#707EFF"/>
            <stop offset="1" stop-color="#707EFF"/>
        </linearGradient>
        <linearGradient id="paint15_linear_7861_29500" x1="224.943" y1="124.887" x2="224.943" y2="138.662"
                        gradientUnits="userSpaceOnUse">
            <stop stop-color="#707EFF"/>
            <stop offset="1" stop-color="#707EFF"/>
        </linearGradient>
        <linearGradient id="paint16_linear_7861_29500" x1="223.838" y1="134.458" x2="223.838" y2="143.824"
                        gradientUnits="userSpaceOnUse">
            <stop stop-color="#707EFF"/>
            <stop offset="1" stop-color="#707EFF"/>
        </linearGradient>
        <linearGradient id="paint17_linear_7861_29500" x1="319.501" y1="66.458" x2="319.501" y2="50.3732"
                        gradientUnits="userSpaceOnUse">
            <stop stop-color="#707EFF"/>
            <stop offset="1" stop-color="#707EFF"/>
        </linearGradient>
        <linearGradient id="paint18_linear_7861_29500" x1="214.775" y1="50.3564" x2="214.775" y2="66.4469"
                        gradientUnits="userSpaceOnUse">
            <stop stop-color="#707EFF"/>
            <stop offset="1" stop-color="#707EFF"/>
        </linearGradient>
        <linearGradient id="paint19_linear_7861_29500" x1="267.233" y1="26.3838" x2="267.233" y2="85.4701"
                        gradientUnits="userSpaceOnUse">
            <stop stop-color="#707EFF"/>
            <stop offset="1" stop-color="#707EFF"/>
        </linearGradient>
        <linearGradient id="paint20_linear_7861_29500" x1="248.455" y1="50.7979" x2="248.455" y2="63.228"
                        gradientUnits="userSpaceOnUse">
            <stop stop-color="#707EFF"/>
            <stop offset="1" stop-color="#707EFF"/>
        </linearGradient>
        <linearGradient id="paint21_linear_7861_29500" x1="221.426" y1="0" x2="221.426" y2="4.70858"
                        gradientUnits="userSpaceOnUse">
            <stop stop-color="#707EFF"/>
            <stop offset="1" stop-color="#707EFF"/>
        </linearGradient>
    </defs>
</svg>
