<svg xmlns="http://www.w3.org/2000/svg" width="48" height="69" viewBox="0 0 48 69" fill="none">
  <path fill-rule="evenodd" clip-rule="evenodd" d="M15.8879 34.4096C11.233 30.596 9.88205 23.8328 12.7245 18.5269C15.5689 13.2175 21.9535 10.5867 27.7151 12.3322C36.6601 15.0421 39.7817 26.8467 33.0411 33.5714C28.4993 38.127 20.8961 38.5127 15.8879 34.4096ZM15.4863 17.8081L34.0976 28.5533C36.2614 23.124 33.5109 16.7313 28.1609 14.5199C23.7578 12.7 18.4634 14.0594 15.4863 17.8081ZM32.6118 31.1596L13.9634 20.3929C12.1178 24.8379 13.5606 29.9342 17.0907 32.8944C21.6744 36.7382 28.9378 35.9238 32.6118 31.1596Z" fill="url(#paint0_linear_25255_12204)"/>
  <path fill-rule="evenodd" clip-rule="evenodd" d="M24 68.0295C23.5207 68.0301 23.2088 67.7295 22.9577 67.3626L22.9547 67.358C17.8427 59.2151 12.4955 51.1968 7.3249 43.4443C3.5929 37.8495 0.250008 31.574 0.250008 24.675C0.239639 11.8867 11.0986 0.96029 24 0.970711C36.7759 0.960908 47.7599 11.7604 47.75 24.675C47.75 31.5731 44.4065 37.8474 40.6751 43.4414C35.3945 51.3675 30.1093 59.2918 25.0453 67.3589C24.8021 67.7311 24.4748 68.0303 24 68.0295ZM24 2.88668C12.1411 2.87652 2.15955 12.9202 2.16966 24.675C2.16966 31.357 5.5833 37.3741 8.92254 42.3819C14.0135 50.0168 19.1057 57.6525 24 65.4157C28.8952 57.6535 33.9851 50.0169 39.0751 42.3819C42.4167 37.3741 45.8303 31.357 45.8303 24.675C45.8405 12.8038 35.7436 2.87661 24 2.88668Z" fill="url(#paint1_linear_25255_12204)"/>
  <defs>
  <linearGradient id="paint0_linear_25255_12204" x1="24" y1="0.970703" x2="24" y2="68.0295" gradientUnits="userSpaceOnUse">
  <stop stop-color="#FCA701"/>
  <stop offset="1" stop-color="#F06D01"/>
  </linearGradient>
  <linearGradient id="paint1_linear_25255_12204" x1="24" y1="0.970703" x2="24" y2="68.0295" gradientUnits="userSpaceOnUse">
  <stop stop-color="#FCA701"/>
  <stop offset="1" stop-color="#F06D01"/>
  </linearGradient>
  </defs>
  </svg>