<svg width="44" height="44" viewBox="0 0 44 44" fill="none" xmlns="http://www.w3.org/2000/svg">
  <circle cx="22" cy="22" r="22" fill="#12131B" />
  <path
    d="M22 22C24.7615 22 27 19.7614 27 17C27 14.2386 24.7615 12 22 12C19.2385 12 17 14.2386 17 17C17 19.7614 19.2385 22 22 22Z"
    fill="#9097A5" />
  <path
    d="M12 28C12 26.6057 13.0083 23.1579 16.4573 21.2758C17.7375 22.9329 19.7441 24 22 24C24.2559 24 26.2625 22.9329 27.5427 21.2758C30.9917 23.1579 32 26.6057 32 28C32 30.2091 27.5229 32 22 32C16.4771 32 12 30.2091 12 28Z"
    fill="#9097A5" />
</svg>