<svg width="256" height="262" viewBox="0 0 256 262" fill="none" xmlns="http://www.w3.org/2000/svg">
    <path fill-rule="evenodd" clip-rule="evenodd"
          d="M44.7944 0.999134C54.4504 -0.861887 64.4286 -0.113884 73.6986 3.1659C82.9686 6.44569 91.1943 12.1384 97.5263 19.656C103.858 27.1737 108.067 36.2439 109.718 45.9299C111.368 55.6159 110.401 65.5666 106.917 74.7544L181.173 148.931C190.37 145.449 200.33 144.484 210.025 146.133C219.721 147.783 228.8 151.989 236.324 158.316C243.849 164.643 249.548 172.862 252.831 182.124C256.114 191.387 256.863 201.357 255 211.006C254.817 211.949 254.38 212.825 253.736 213.539C253.093 214.253 252.268 214.78 251.348 215.061C250.429 215.343 249.45 215.37 248.516 215.139C247.583 214.908 246.729 214.427 246.048 213.749L212.441 180.172C199.3 188.073 188.294 199.069 180.386 212.199L213.993 245.776C214.668 246.46 215.145 247.315 215.371 248.248C215.598 249.182 215.567 250.16 215.28 251.077C214.994 251.994 214.463 252.816 213.745 253.455C213.027 254.095 212.149 254.527 211.204 254.706C201.548 256.569 191.569 255.822 182.298 252.543C173.026 249.263 164.8 243.571 158.467 236.053C152.134 228.535 147.924 219.464 146.273 209.777C144.622 200.091 145.59 190.139 149.075 180.951L74.8544 106.781C65.6585 110.263 55.6991 111.229 46.0045 109.58C36.31 107.93 27.2319 103.726 19.7076 97.3992C12.1833 91.0728 6.48558 82.8543 3.20291 73.5925C-0.0797687 64.3306 -0.82843 54.3612 1.03423 44.7136C1.21466 43.7683 1.64958 42.8901 2.29221 42.1733C2.93484 41.4565 3.76088 40.9282 4.6815 40.6454C5.60212 40.3625 6.58249 40.3358 7.5172 40.5679C8.45191 40.8001 9.3056 41.2825 9.98646 41.9631L43.5931 75.5402C56.7374 67.6371 67.7452 56.639 75.6552 43.5063L42.0486 9.9292C41.3674 9.24893 40.8846 8.39601 40.6522 7.46212C40.4198 6.52824 40.4466 5.54872 40.7297 4.62891C41.0128 3.7091 41.5415 2.88379 42.2589 2.24172C42.9764 1.59965 43.8554 1.16512 44.8015 0.984848"
          fill="#2F303E"/>
    <path fill-rule="evenodd" clip-rule="evenodd"
          d="M160.366 131.614L147.295 118.562L208.359 57.5514C210.753 58.1881 213.272 58.1875 215.665 57.5495C218.059 56.9116 220.243 55.6585 222.002 53.915L242.28 33.6545L222.259 13.6511L212.248 23.6528L202.016 33.9117C200.259 35.6653 198.994 37.8496 198.347 40.2457C197.701 42.6418 197.696 45.1655 198.334 47.564L137.277 108.574L124.206 95.5149L111.1 108.667C113.911 111.589 115.463 115.496 115.422 119.548C115.382 123.601 113.753 127.476 110.885 130.342C108.017 133.208 104.138 134.835 100.082 134.875C96.0256 134.916 92.1155 133.365 89.191 130.556L21.2627 198.425C16.4715 203.212 13.7798 209.705 13.7798 216.474C13.7798 223.244 16.4715 229.737 21.2627 234.524C26.0539 239.311 32.5522 242 39.328 242C46.1039 242 52.6022 239.311 57.3934 234.524L125.322 166.655C122.511 163.733 120.959 159.827 120.999 155.774C121.039 151.722 122.668 147.846 125.536 144.981C128.405 142.115 132.283 140.487 136.34 140.447C140.396 140.407 144.306 141.958 147.23 144.766L160.366 131.614Z"
          fill="url(#paint0_linear_7861_29683)"/>
    <path fill-rule="evenodd" clip-rule="evenodd"
          d="M95.8411 145.395C94.807 144.369 93.4087 143.793 91.9513 143.793C90.4939 143.793 89.0956 144.369 88.0615 145.395L34.627 198.782C33.6004 199.814 33.0243 201.21 33.0243 202.665C33.0243 204.12 33.6004 205.516 34.627 206.548C35.6611 207.574 37.0594 208.15 38.5168 208.15C39.9742 208.15 41.3725 207.574 42.4066 206.548L95.8411 153.16C96.8677 152.128 97.4438 150.733 97.4438 149.278C97.4438 147.823 96.8677 146.427 95.8411 145.395ZM110.449 159.983C109.415 158.957 108.017 158.381 106.559 158.381C105.102 158.381 103.704 158.957 102.67 159.983L49.2351 213.378C48.2086 214.41 47.6324 215.806 47.6324 217.26C47.6324 218.715 48.2086 220.111 49.2351 221.143C50.268 222.169 51.6651 222.745 53.1214 222.745C54.5776 222.745 55.9747 222.169 57.0076 221.143L110.449 167.756C111.476 166.723 112.053 165.326 112.053 163.869C112.053 162.413 111.476 161.016 110.449 159.983Z"
          fill="#FF9F22"/>
    <path fill-rule="evenodd" clip-rule="evenodd"
          d="M21.077 92.9716C14.722 86.5975 10.0247 78.7664 7.39486 70.1617C4.76505 61.557 4.28267 52.44 5.98979 43.6062C6.20158 42.4447 6.80155 41.3894 7.69157 40.6129C6.6961 40.3308 5.63978 40.3457 4.65267 40.6557C3.72551 40.9254 2.89247 41.4491 2.24795 42.1676C1.60343 42.886 1.1732 43.7705 1.006 44.7207C-0.710906 53.5796 -0.224607 62.7241 2.42219 71.3513C5.06899 79.9786 9.79533 87.8246 16.1862 94.2004C17.3207 95.3339 18.491 96.4079 19.697 97.4224C26.5289 103.161 34.651 107.161 43.3679 109.078C52.0849 110.995 61.137 110.773 69.7494 108.431C61.0143 109.963 52.0383 109.369 43.5818 106.699C35.1254 104.029 27.4377 99.3621 21.17 93.0931L21.0484 92.9716"
          fill="#252633"/>
    <path fill-rule="evenodd" clip-rule="evenodd"
          d="M107.446 133.257L79.8456 105.681C78.3393 106.253 76.8115 106.755 75.2623 107.188L102.934 134.836C104.511 134.546 106.033 134.013 107.446 133.257Z"
          fill="#252633"/>
    <path fill-rule="evenodd" clip-rule="evenodd"
          d="M154.073 179.843L122.612 148.409C121.848 149.822 121.313 151.345 121.025 152.924L149.104 180.972C145.619 190.155 144.65 200.101 146.297 209.784C147.943 219.466 152.146 228.534 158.471 236.053C159.486 237.262 160.564 238.434 161.703 239.568C168.084 245.945 175.935 250.66 184.566 253.299C193.196 255.939 202.343 256.422 211.204 254.706C211.759 254.601 212.294 254.413 212.792 254.149C204.412 255.234 195.895 254.382 187.897 251.657C179.899 248.932 172.635 244.407 166.665 238.432C165.426 237.189 164.258 235.907 163.161 234.588C156.944 227.076 152.827 218.053 151.229 208.437C149.632 198.82 150.611 188.952 154.066 179.836"
          fill="#252633"/>
    <path fill-rule="evenodd" clip-rule="evenodd"
          d="M251.003 212.627L217.411 179.065C216.167 179.779 214.908 180.565 213.657 181.401L246.027 213.728C246.699 214.419 247.552 214.908 248.488 215.141C249.424 215.373 250.407 215.339 251.325 215.042C252.042 214.825 252.707 214.463 253.277 213.978C252.419 213.724 251.639 213.257 251.011 212.62"
          fill="#252633"/>
    <path fill-rule="evenodd" clip-rule="evenodd"
          d="M80.6247 42.399L47.0324 8.83624C46.4536 8.25684 46.0165 7.5517 45.7554 6.7758C45.4942 5.99989 45.4159 5.1742 45.5266 4.36309C45.6374 3.55199 45.9341 2.77741 46.3937 2.09974C46.8534 1.42207 47.4635 0.859625 48.1764 0.456271C47.0395 0.599152 45.9098 0.777755 44.78 0.99922C43.8339 1.17949 42.9549 1.61403 42.2374 2.2561C41.52 2.89816 40.9913 3.72347 40.7082 4.64328C40.4251 5.56309 40.3983 6.5426 40.6307 7.47649C40.8631 8.41038 41.3459 9.26331 42.0271 9.94357L75.6266 43.5063C71.7204 50.0696 66.9942 56.1096 61.5619 61.4808C57.2213 65.8522 52.4546 69.7795 47.3327 73.2042L48.5697 74.4401C61.7097 66.534 72.7146 55.5364 80.6247 42.4062"
          fill="#252633"/>
    <path fill-rule="evenodd" clip-rule="evenodd"
          d="M68.6198 223.279L125.293 166.655C124.355 165.727 123.543 164.68 122.877 163.541L65.2592 221.086L57.3938 228.987C53.9868 232.389 49.6872 234.759 44.9905 235.825C40.2938 236.891 35.3912 236.609 30.8479 235.011C26.3046 233.414 22.3056 230.567 19.3118 226.797C16.3179 223.028 14.4512 218.49 13.9268 213.706C13.3521 218.961 14.4242 224.264 16.9953 228.884C19.5664 233.504 23.5096 237.212 28.2804 239.497C33.0512 241.782 38.4143 242.531 43.6292 241.64C48.8442 240.749 53.6533 238.263 57.3934 234.524L68.6198 223.279Z"
          fill="#FF9F22"/>
    <path fill-rule="evenodd" clip-rule="evenodd"
          d="M147.202 139.229C144.871 136.9 141.857 135.374 138.598 134.874C135.339 134.374 132.006 134.925 129.083 136.448C126.159 137.97 123.798 140.385 122.342 143.34C120.887 146.296 120.412 149.638 120.989 152.882V152.946V152.903C121.56 149.819 123.056 146.981 125.279 144.766C128.184 141.864 132.125 140.234 136.233 140.234C140.342 140.234 144.282 141.864 147.187 144.766L160.351 131.614L157.577 128.849L147.202 139.229Z"
          fill="#FF9F22"/>
    <path fill-rule="evenodd" clip-rule="evenodd"
          d="M150.069 115.79L208.345 57.5515C210.753 58.1913 213.287 58.1913 215.695 57.5515C218.075 56.9148 220.245 55.6631 221.988 53.9223L242.266 33.6617L239.499 30.897L222.002 48.3714C220.241 50.1118 218.057 51.3634 215.664 52.0023C213.272 52.6413 210.754 52.6456 208.359 52.0148L147.295 113.025L150.069 115.79Z"
          fill="#FF9F22"/>
    <path fill-rule="evenodd" clip-rule="evenodd"
          d="M102.82 48.4428C98.2684 48.4428 93.9035 46.6364 90.6852 43.421C87.4669 40.2055 85.6589 35.8444 85.6589 31.2971C85.6589 35.8444 83.8509 40.2055 80.6326 43.421C77.4144 46.6364 73.0494 48.4428 68.4981 48.4428C73.0494 48.4428 77.4144 50.2493 80.6326 53.4647C83.8509 56.6801 85.6589 61.0412 85.6589 65.5886C85.6589 61.0412 87.4669 56.6801 90.6852 53.4647C93.9035 50.2493 98.2684 48.4428 102.82 48.4428Z"
          fill="white"/>
    <path fill-rule="evenodd" clip-rule="evenodd"
          d="M249.101 45.5493C244.138 45.5493 239.379 43.5796 235.869 40.0734C232.36 36.5672 230.389 31.8118 230.389 26.8533C230.387 31.8125 228.414 36.5679 224.903 40.0738C221.393 43.5798 216.633 45.5493 211.669 45.5493C214.127 45.5493 216.562 46.0331 218.833 46.973C221.104 47.913 223.168 49.2906 224.906 51.0274C226.644 52.7641 228.023 54.8259 228.964 57.0951C229.905 59.3643 230.389 61.7963 230.389 64.2525C230.388 61.7967 230.871 59.3648 231.811 57.0956C232.751 54.8265 234.129 52.7646 235.867 51.0278C237.605 49.291 239.668 47.9132 241.939 46.9732C244.209 46.0332 246.643 45.5493 249.101 45.5493Z"
          fill="white"/>
    <path fill-rule="evenodd" clip-rule="evenodd"
          d="M117.013 218.164C119.475 218.164 121.882 218.894 123.929 220.26C125.977 221.627 127.572 223.569 128.514 225.842C129.457 228.115 129.703 230.616 129.223 233.028C128.742 235.441 127.557 237.657 125.816 239.397C124.075 241.136 121.857 242.321 119.442 242.801C117.027 243.281 114.524 243.034 112.249 242.093C109.975 241.152 108.03 239.557 106.662 237.512C105.295 235.467 104.564 233.062 104.564 230.602C104.563 228.968 104.885 227.35 105.51 225.841C106.135 224.332 107.052 222.96 108.208 221.805C109.365 220.65 110.737 219.734 112.248 219.109C113.759 218.484 115.378 218.163 117.013 218.164ZM123.255 207.391C125.297 207.933 127.257 208.745 129.083 209.806L134.803 205.991C135.143 205.765 135.55 205.665 135.956 205.707C136.362 205.748 136.74 205.929 137.027 206.219L139.222 208.412L141.417 210.599C141.705 210.887 141.884 211.265 141.925 211.67C141.965 212.075 141.864 212.481 141.639 212.82L137.828 218.578C138.884 220.402 139.694 222.358 140.237 224.394L147.009 225.772C147.412 225.848 147.776 226.062 148.037 226.378C148.299 226.694 148.441 227.091 148.439 227.501V233.702C148.441 234.111 148.298 234.508 148.037 234.823C147.775 235.137 147.412 235.35 147.009 235.424L140.237 236.803C139.693 238.841 138.882 240.798 137.828 242.625L141.639 248.376C141.864 248.715 141.965 249.122 141.925 249.527C141.884 249.932 141.705 250.31 141.417 250.598L137.027 254.985C136.739 255.272 136.36 255.451 135.955 255.491C135.549 255.532 135.143 255.431 134.803 255.206L129.083 251.391C127.257 252.451 125.297 253.263 123.255 253.806L121.825 260.571C121.752 260.973 121.538 261.337 121.223 261.598C120.908 261.859 120.511 262.002 120.102 262H113.896C113.485 262.002 113.087 261.86 112.771 261.599C112.455 261.338 112.241 260.974 112.165 260.571L110.785 253.806C108.746 253.263 106.789 252.451 104.965 251.391L99.2016 255.206C98.8622 255.431 98.4555 255.532 98.0503 255.491C97.645 255.451 97.2662 255.272 96.9779 254.985L94.7899 252.791L92.5947 250.598C92.3047 250.312 92.1234 249.933 92.0816 249.528C92.0399 249.123 92.1404 248.716 92.3659 248.376L96.1842 242.625C95.1243 240.8 94.3116 238.842 93.7674 236.803L87.0032 235.424C86.5999 235.352 86.2352 235.139 85.9735 234.824C85.7118 234.509 85.57 234.112 85.5731 233.702V227.516C85.5697 227.105 85.7113 226.707 85.9729 226.391C86.2344 226.075 86.5993 225.861 87.0032 225.787L93.7674 224.408C94.3103 222.371 95.1231 220.415 96.1842 218.593L92.3659 212.835C92.1404 212.495 92.0399 212.088 92.0816 211.683C92.1234 211.277 92.3047 210.899 92.5947 210.613L94.7899 208.427L96.9779 206.233C97.2646 205.944 97.6431 205.763 98.0487 205.721C98.4544 205.679 98.8619 205.78 99.2016 206.005L104.965 209.82C106.789 208.76 108.746 207.948 110.785 207.405L112.165 200.647C112.239 200.243 112.453 199.879 112.77 199.617C113.086 199.356 113.485 199.215 113.896 199.218H120.102C120.512 199.215 120.91 199.357 121.225 199.618C121.54 199.88 121.753 200.244 121.825 200.647L123.255 207.391Z"
          fill="white"/>
    <path fill-rule="evenodd" clip-rule="evenodd"
          d="M150.87 30.1896C153.333 30.1896 155.74 30.9192 157.787 32.2862C159.835 33.6532 161.43 35.5962 162.372 37.8693C163.314 40.1424 163.56 42.6436 163.079 45.0565C162.598 47.4694 161.412 49.6856 159.67 51.4248C157.929 53.1639 155.71 54.348 153.295 54.8271C150.879 55.3062 148.376 55.0588 146.101 54.1164C143.827 53.1739 141.883 51.5786 140.516 49.5323C139.149 47.4859 138.42 45.0805 138.422 42.6202C138.422 40.9872 138.744 39.3702 139.369 37.8616C139.995 36.353 140.912 34.9823 142.068 33.8279C143.224 32.6735 144.597 31.758 146.107 31.1338C147.617 30.5095 149.236 30.1886 150.87 30.1896ZM157.077 19.4164C159.116 19.9608 161.076 20.7702 162.904 21.8239L168.66 18.0161C169 17.7912 169.406 17.6904 169.812 17.7308C170.217 17.7711 170.596 17.9502 170.884 18.2376L173.079 20.4308L175.267 22.624C175.557 22.9105 175.739 23.2887 175.78 23.694C175.822 24.0992 175.722 24.5064 175.496 24.8458L171.678 30.5968C172.739 32.4216 173.552 34.3797 174.095 36.4192L180.866 37.798C181.269 37.8718 181.633 38.0846 181.894 38.3994C182.155 38.7141 182.298 39.1107 182.296 39.5197V45.7208C182.298 46.1306 182.156 46.5282 181.895 46.8441C181.633 47.1601 181.269 47.3743 180.866 47.4496L174.095 48.8213C173.553 50.8613 172.74 52.8195 171.678 54.6437L175.496 60.4018C175.722 60.7412 175.822 61.1484 175.78 61.5537C175.739 61.959 175.557 62.3372 175.267 62.6236L170.884 67.0029C170.598 67.294 170.219 67.4756 169.812 67.5161C169.406 67.5565 168.998 67.4533 168.66 67.2244L162.904 63.4166C161.076 64.4726 159.117 65.2844 157.077 65.8313L155.697 72.5896C155.624 72.9925 155.412 73.3569 155.096 73.6183C154.781 73.8798 154.383 74.0215 153.974 74.0184H147.767C147.356 74.0217 146.958 73.8803 146.641 73.6189C146.325 73.3576 146.111 72.9931 146.037 72.5896L144.657 65.8313C142.618 65.2888 140.66 64.4767 138.836 63.4166L133.073 67.2244C132.735 67.4533 132.327 67.5565 131.921 67.5161C131.515 67.4756 131.135 67.294 130.849 67.0029L126.466 62.6236C126.176 62.3372 125.995 61.959 125.953 61.5537C125.911 61.1484 126.012 60.7412 126.237 60.4018L130.056 54.6437C128.993 52.8195 128.18 50.8613 127.639 48.8213L120.867 47.4853C120.464 47.4101 120.1 47.1958 119.839 46.8798C119.577 46.5639 119.435 46.1664 119.437 45.7565V39.5554C119.436 39.1464 119.578 38.7499 119.839 38.4351C120.101 38.1203 120.465 37.9075 120.867 37.8337L127.639 36.4549C128.182 34.4154 128.994 32.4573 130.056 30.6325L126.237 24.8816C126.012 24.5421 125.911 24.135 125.953 23.7297C125.995 23.3244 126.176 22.9462 126.466 22.6598L128.654 20.4665L130.849 18.2733C131.138 17.9859 131.516 17.8068 131.922 17.7665C132.327 17.7261 132.734 17.8269 133.073 18.0518L138.836 21.8596C140.662 20.8048 142.619 19.9952 144.657 19.4521L146.037 12.6866C146.112 12.2837 146.326 11.9201 146.643 11.6589C146.959 11.3978 147.357 11.2559 147.767 11.2578H154.002C154.411 11.2562 154.808 11.3984 155.123 11.6596C155.438 11.9208 155.652 12.2843 155.725 12.6866L157.077 19.4164Z"
          fill="white"/>
    <defs>
        <linearGradient id="paint0_linear_7861_29683" x1="128" y1="0" x2="128" y2="262" gradientUnits="userSpaceOnUse">
            <stop stop-color="#818EFF"/>
            <stop offset="1" stop-color="#818EFF"/>
        </linearGradient>
    </defs>
</svg>
